<ttFont>
    <TTGlyph name="A" xMin="72" yMin="0" xMax="406" yMax="700">
      <contour>
        <pt x="152" y="334" on="1"/>
        <pt x="152" y="27" on="1"/>
        <pt x="152" y="11" on="0"/>
        <pt x="141" y="0" on="0"/>
        <pt x="125" y="0" on="1"/>
        <pt x="72" y="0" on="1"/>
        <pt x="72" y="605" on="1"/>
        <pt x="72" y="657" on="0"/>
        <pt x="115" y="700" on="0"/>
        <pt x="167" y="700" on="1"/>
        <pt x="311" y="700" on="1"/>
        <pt x="363" y="700" on="0"/>
        <pt x="406" y="657" on="0"/>
        <pt x="406" y="605" on="1"/>
        <pt x="406" y="27" on="1"/>
        <pt x="406" y="11" on="0"/>
        <pt x="395" y="0" on="0"/>
        <pt x="379" y="0" on="1"/>
        <pt x="326" y="0" on="1"/>
        <pt x="326" y="585" on="1"/>
        <pt x="326" y="614" on="0"/>
        <pt x="311" y="640" on="0"/>
        <pt x="285" y="642" on="1"/>
        <pt x="193" y="642" on="1"/>
        <pt x="166" y="640" on="0"/>
        <pt x="152" y="614" on="0"/>
        <pt x="152" y="585" on="1"/>
        <pt x="152" y="392" on="1"/>
        <pt x="286" y="392" on="1"/>
        <pt x="286" y="361" on="1"/>
        <pt x="286" y="345" on="0"/>
        <pt x="277" y="334" on="0"/>
        <pt x="261" y="334" on="1"/>
      </contour>
    </TTGlyph>
    <TTGlyph name="AE" xMin="72" yMin="0" xMax="597" yMax="700">
      <contour>
        <pt x="152" y="334" on="1"/>
        <pt x="152" y="27" on="1"/>
        <pt x="152" y="11" on="0"/>
        <pt x="141" y="0" on="0"/>
        <pt x="125" y="0" on="1"/>
        <pt x="72" y="0" on="1"/>
        <pt x="72" y="605" on="1"/>
        <pt x="72" y="657" on="0"/>
        <pt x="115" y="700" on="0"/>
        <pt x="167" y="700" on="1"/>
        <pt x="597" y="700" on="1"/>
        <pt x="597" y="669" on="1"/>
        <pt x="597" y="653" on="0"/>
        <pt x="588" y="642" on="0"/>
        <pt x="572" y="642" on="1"/>
        <pt x="406" y="642" on="1"/>
        <pt x="406" y="392" on="1"/>
        <pt x="567" y="392" on="1"/>
        <pt x="567" y="361" on="1"/>
        <pt x="567" y="345" on="0"/>
        <pt x="558" y="334" on="0"/>
        <pt x="542" y="334" on="1"/>
        <pt x="406" y="334" on="1"/>
        <pt x="406" y="58" on="1"/>
        <pt x="597" y="58" on="1"/>
        <pt x="597" y="27" on="1"/>
        <pt x="597" y="11" on="0"/>
        <pt x="586" y="0" on="0"/>
        <pt x="570" y="0" on="1"/>
        <pt x="326" y="0" on="1"/>
        <pt x="326" y="642" on="1"/>
        <pt x="193" y="642" on="1"/>
        <pt x="166" y="640" on="0"/>
        <pt x="152" y="614" on="0"/>
        <pt x="152" y="585" on="1"/>
        <pt x="152" y="392" on="1"/>
        <pt x="286" y="392" on="1"/>
        <pt x="286" y="361" on="1"/>
        <pt x="286" y="345" on="0"/>
        <pt x="277" y="334" on="0"/>
        <pt x="261" y="334" on="1"/>
      </contour>
    </TTGlyph>
    <TTGlyph name="Aacute" xMin="72" yMin="0" xMax="406" yMax="872">
      <component glyphName="A" x="0" y="0" flags="0x204"/>
      <component glyphName="acute" x="179" y="172" flags="0x4"/>
    </TTGlyph>
    <TTGlyph name="Acircumflex" xMin="72" yMin="0" xMax="406" yMax="872">
      <component glyphName="A" x="0" y="0" flags="0x204"/>
      <component glyphName="circumflex" x="63" y="172" flags="0x4"/>
    </TTGlyph>
    <TTGlyph name="Adieresis" xMin="72" yMin="0" xMax="406" yMax="852">
      <component glyphName="A" x="0" y="0" flags="0x204"/>
      <component glyphName="dieresis" x="72" y="172" flags="0x4"/>
    </TTGlyph>
    <TTGlyph name="Agrave" xMin="72" yMin="0" xMax="406" yMax="872">
      <component glyphName="A" x="0" y="0" flags="0x204"/>
      <component glyphName="grave" x="64" y="172" flags="0x4"/>
    </TTGlyph>
    <TTGlyph name="Aring" xMin="72" yMin="0" xMax="406" yMax="900">
      <component glyphName="A" x="0" y="0" flags="0x204"/>
      <component glyphName="ring" x="101" y="172" flags="0x4"/>
    </TTGlyph>
    <TTGlyph name="Atilde" xMin="72" yMin="0" xMax="406" yMax="875">
      <component glyphName="A" x="0" y="0" flags="0x204"/>
      <component glyphName="tilde" x="57" y="172" flags="0x4"/>
    </TTGlyph>
    <TTGlyph name="B" xMin="72" yMin="0" xMax="396" yMax="700">
      <contour>
        <pt x="217" y="0" on="1"/>
        <pt x="201" y="0" on="0"/>
        <pt x="192" y="11" on="0"/>
        <pt x="192" y="27" on="1"/>
        <pt x="192" y="58" on="1"/>
        <pt x="269" y="58" on="1"/>
        <pt x="300" y="58" on="0"/>
        <pt x="316" y="84" on="0"/>
        <pt x="316" y="115" on="1"/>
        <pt x="316" y="277" on="1"/>
        <pt x="316" y="308" on="0"/>
        <pt x="300" y="334" on="0"/>
        <pt x="269" y="334" on="1"/>
        <pt x="152" y="334" on="1"/>
        <pt x="152" y="0" on="1"/>
        <pt x="72" y="0" on="1"/>
        <pt x="72" y="673" on="1"/>
        <pt x="72" y="689" on="0"/>
        <pt x="83" y="700" on="0"/>
        <pt x="99" y="700" on="1"/>
        <pt x="301" y="700" on="1"/>
        <pt x="353" y="700" on="0"/>
        <pt x="396" y="657" on="0"/>
        <pt x="396" y="605" on="1"/>
        <pt x="396" y="459" on="1"/>
        <pt x="396" y="382" on="0"/>
        <pt x="341" y="369" on="1"/>
        <pt x="341" y="367" on="1"/>
        <pt x="370" y="359" on="0"/>
        <pt x="396" y="317" on="0"/>
        <pt x="396" y="277" on="1"/>
        <pt x="396" y="95" on="1"/>
        <pt x="396" y="43" on="0"/>
        <pt x="353" y="0" on="0"/>
        <pt x="301" y="0" on="1"/>
      </contour>
      <contour>
        <pt x="152" y="642" on="1"/>
        <pt x="152" y="392" on="1"/>
        <pt x="275" y="392" on="1"/>
        <pt x="301" y="393" on="0"/>
        <pt x="316" y="420" on="0"/>
        <pt x="316" y="449" on="1"/>
        <pt x="316" y="585" on="1"/>
        <pt x="316" y="616" on="0"/>
        <pt x="300" y="642" on="0"/>
        <pt x="269" y="642" on="1"/>
      </contour>
    </TTGlyph>
    <TTGlyph name="C" xMin="70" yMin="0" xMax="354" yMax="700">
      <contour>
        <pt x="165" y="0" on="1"/>
        <pt x="113" y="0" on="0"/>
        <pt x="70" y="43" on="0"/>
        <pt x="70" y="95" on="1"/>
        <pt x="70" y="605" on="1"/>
        <pt x="70" y="657" on="0"/>
        <pt x="113" y="700" on="0"/>
        <pt x="165" y="700" on="1"/>
        <pt x="294" y="700" on="1"/>
        <pt x="323" y="700" on="0"/>
        <pt x="348" y="671" on="0"/>
        <pt x="354" y="642" on="1"/>
        <pt x="197" y="642" on="1"/>
        <pt x="166" y="642" on="0"/>
        <pt x="150" y="616" on="0"/>
        <pt x="150" y="585" on="1"/>
        <pt x="150" y="115" on="1"/>
        <pt x="150" y="84" on="0"/>
        <pt x="166" y="58" on="0"/>
        <pt x="197" y="58" on="1"/>
        <pt x="354" y="58" on="1"/>
        <pt x="354" y="27" on="1"/>
        <pt x="354" y="11" on="0"/>
        <pt x="345" y="0" on="0"/>
        <pt x="329" y="0" on="1"/>
      </contour>
    </TTGlyph>
    <TTGlyph name="Ccedilla" xMin="70" yMin="-100" xMax="354" yMax="700">
      <contour>
        <pt x="165" y="0" on="1"/>
        <pt x="113" y="0" on="0"/>
        <pt x="70" y="43" on="0"/>
        <pt x="70" y="95" on="1"/>
        <pt x="70" y="605" on="1"/>
        <pt x="70" y="657" on="0"/>
        <pt x="113" y="700" on="0"/>
        <pt x="165" y="700" on="1"/>
        <pt x="294" y="700" on="1"/>
        <pt x="323" y="700" on="0"/>
        <pt x="348" y="671" on="0"/>
        <pt x="354" y="642" on="1"/>
        <pt x="197" y="642" on="1"/>
        <pt x="166" y="642" on="0"/>
        <pt x="150" y="616" on="0"/>
        <pt x="150" y="585" on="1"/>
        <pt x="150" y="115" on="1"/>
        <pt x="150" y="84" on="0"/>
        <pt x="166" y="58" on="0"/>
        <pt x="197" y="58" on="1"/>
        <pt x="354" y="58" on="1"/>
        <pt x="354" y="27" on="1"/>
        <pt x="354" y="11" on="0"/>
        <pt x="345" y="0" on="0"/>
        <pt x="329" y="0" on="1"/>
        <pt x="250" y="0" on="1"/>
        <pt x="250" y="-73" on="1"/>
        <pt x="250" y="-89" on="0"/>
        <pt x="239" y="-100" on="0"/>
        <pt x="223" y="-100" on="1"/>
        <pt x="192" y="-100" on="1"/>
        <pt x="192" y="0" on="1"/>
      </contour>
    </TTGlyph>
    <TTGlyph name="D" xMin="72" yMin="0" xMax="406" yMax="700">
      <contour>
        <pt x="217" y="0" on="1"/>
        <pt x="201" y="0" on="0"/>
        <pt x="192" y="11" on="0"/>
        <pt x="192" y="27" on="1"/>
        <pt x="192" y="58" on="1"/>
        <pt x="279" y="58" on="1"/>
        <pt x="310" y="58" on="0"/>
        <pt x="326" y="84" on="0"/>
        <pt x="326" y="115" on="1"/>
        <pt x="326" y="585" on="1"/>
        <pt x="326" y="616" on="0"/>
        <pt x="310" y="642" on="0"/>
        <pt x="279" y="642" on="1"/>
        <pt x="152" y="642" on="1"/>
        <pt x="152" y="0" on="1"/>
        <pt x="72" y="0" on="1"/>
        <pt x="72" y="673" on="1"/>
        <pt x="72" y="689" on="0"/>
        <pt x="83" y="700" on="0"/>
        <pt x="99" y="700" on="1"/>
        <pt x="311" y="700" on="1"/>
        <pt x="363" y="700" on="0"/>
        <pt x="406" y="657" on="0"/>
        <pt x="406" y="605" on="1"/>
        <pt x="406" y="95" on="1"/>
        <pt x="406" y="43" on="0"/>
        <pt x="363" y="0" on="0"/>
        <pt x="311" y="0" on="1"/>
      </contour>
    </TTGlyph>
    <TTGlyph name="E" xMin="72" yMin="0" xMax="343" yMax="700">
      <contour>
        <pt x="152" y="334" on="1"/>
        <pt x="152" y="58" on="1"/>
        <pt x="343" y="58" on="1"/>
        <pt x="343" y="27" on="1"/>
        <pt x="343" y="11" on="0"/>
        <pt x="332" y="0" on="0"/>
        <pt x="316" y="0" on="1"/>
        <pt x="72" y="0" on="1"/>
        <pt x="72" y="673" on="1"/>
        <pt x="72" y="689" on="0"/>
        <pt x="83" y="700" on="0"/>
        <pt x="99" y="700" on="1"/>
        <pt x="343" y="700" on="1"/>
        <pt x="343" y="669" on="1"/>
        <pt x="343" y="653" on="0"/>
        <pt x="334" y="642" on="0"/>
        <pt x="318" y="642" on="1"/>
        <pt x="152" y="642" on="1"/>
        <pt x="152" y="392" on="1"/>
        <pt x="313" y="392" on="1"/>
        <pt x="313" y="361" on="1"/>
        <pt x="313" y="345" on="0"/>
        <pt x="304" y="334" on="0"/>
        <pt x="288" y="334" on="1"/>
      </contour>
    </TTGlyph>
    <TTGlyph name="Eacute" xMin="72" yMin="0" xMax="343" yMax="900">
      <component glyphName="E" x="0" y="0" flags="0x204"/>
      <component glyphName="acute" x="149" y="200" flags="0x4"/>
    </TTGlyph>
    <TTGlyph name="Ecircumflex" xMin="72" yMin="0" xMax="351" yMax="900">
      <component glyphName="E" x="0" y="0" flags="0x204"/>
      <component glyphName="circumflex" x="33" y="200" flags="0x4"/>
    </TTGlyph>
    <TTGlyph name="Edieresis" xMin="72" yMin="0" xMax="343" yMax="880">
      <component glyphName="E" x="0" y="0" flags="0x204"/>
      <component glyphName="dieresis" x="42" y="200" flags="0x4"/>
    </TTGlyph>
    <TTGlyph name="Egrave" xMin="72" yMin="0" xMax="343" yMax="900">
      <component glyphName="E" x="0" y="0" flags="0x204"/>
      <component glyphName="grave" x="34" y="200" flags="0x4"/>
    </TTGlyph>
    <TTGlyph name="Eth" xMin="16" yMin="0" xMax="430" yMax="700">
      <contour>
        <pt x="76" y="392" on="1"/>
        <pt x="76" y="673" on="1"/>
        <pt x="76" y="689" on="0"/>
        <pt x="87" y="700" on="0"/>
        <pt x="103" y="700" on="1"/>
        <pt x="335" y="700" on="1"/>
        <pt x="387" y="700" on="0"/>
        <pt x="430" y="657" on="0"/>
        <pt x="430" y="605" on="1"/>
        <pt x="430" y="95" on="1"/>
        <pt x="430" y="43" on="0"/>
        <pt x="387" y="0" on="0"/>
        <pt x="335" y="0" on="1"/>
        <pt x="76" y="0" on="1"/>
        <pt x="76" y="334" on="1"/>
        <pt x="16" y="334" on="1"/>
        <pt x="16" y="365" on="1"/>
        <pt x="16" y="381" on="0"/>
        <pt x="27" y="392" on="0"/>
        <pt x="43" y="392" on="1"/>
      </contour>
      <contour>
        <pt x="350" y="585" on="1"/>
        <pt x="350" y="616" on="0"/>
        <pt x="334" y="642" on="0"/>
        <pt x="303" y="642" on="1"/>
        <pt x="156" y="642" on="1"/>
        <pt x="156" y="392" on="1"/>
        <pt x="280" y="392" on="1"/>
        <pt x="274" y="363" on="0"/>
        <pt x="248" y="334" on="0"/>
        <pt x="216" y="334" on="1"/>
        <pt x="156" y="334" on="1"/>
        <pt x="156" y="58" on="1"/>
        <pt x="303" y="58" on="1"/>
        <pt x="334" y="58" on="0"/>
        <pt x="350" y="84" on="0"/>
        <pt x="350" y="115" on="1"/>
      </contour>
    </TTGlyph>
    <TTGlyph name="Euro" xMin="51" yMin="0" xMax="399" yMax="700">
      <contour>
        <pt x="210" y="0" on="1"/>
        <pt x="158" y="0" on="0"/>
        <pt x="115" y="43" on="0"/>
        <pt x="115" y="95" on="1"/>
        <pt x="115" y="251" on="1"/>
        <pt x="78" y="251" on="1"/>
        <pt x="62" y="251" on="0"/>
        <pt x="51" y="262" on="0"/>
        <pt x="51" y="278" on="1"/>
        <pt x="51" y="309" on="1"/>
        <pt x="115" y="309" on="1"/>
        <pt x="115" y="386" on="1"/>
        <pt x="78" y="386" on="1"/>
        <pt x="62" y="386" on="0"/>
        <pt x="51" y="397" on="0"/>
        <pt x="51" y="413" on="1"/>
        <pt x="51" y="444" on="1"/>
        <pt x="115" y="444" on="1"/>
        <pt x="115" y="605" on="1"/>
        <pt x="115" y="657" on="0"/>
        <pt x="158" y="700" on="0"/>
        <pt x="210" y="700" on="1"/>
        <pt x="339" y="700" on="1"/>
        <pt x="368" y="700" on="0"/>
        <pt x="393" y="671" on="0"/>
        <pt x="399" y="642" on="1"/>
        <pt x="242" y="642" on="1"/>
        <pt x="211" y="642" on="0"/>
        <pt x="195" y="616" on="0"/>
        <pt x="195" y="585" on="1"/>
        <pt x="195" y="444" on="1"/>
        <pt x="324" y="444" on="1"/>
        <pt x="340" y="444" on="0"/>
        <pt x="351" y="433" on="0"/>
        <pt x="351" y="417" on="1"/>
        <pt x="351" y="386" on="1"/>
        <pt x="195" y="386" on="1"/>
        <pt x="195" y="309" on="1"/>
        <pt x="324" y="309" on="1"/>
        <pt x="340" y="309" on="0"/>
        <pt x="351" y="298" on="0"/>
        <pt x="351" y="282" on="1"/>
        <pt x="351" y="251" on="1"/>
        <pt x="195" y="251" on="1"/>
        <pt x="195" y="115" on="1"/>
        <pt x="195" y="84" on="0"/>
        <pt x="211" y="58" on="0"/>
        <pt x="242" y="58" on="1"/>
        <pt x="399" y="58" on="1"/>
        <pt x="399" y="27" on="1"/>
        <pt x="399" y="11" on="0"/>
        <pt x="390" y="0" on="0"/>
        <pt x="374" y="0" on="1"/>
      </contour>
    </TTGlyph>
    <TTGlyph name="F" xMin="72" yMin="0" xMax="343" yMax="700">
      <contour>
        <pt x="343" y="700" on="1"/>
        <pt x="343" y="669" on="1"/>
        <pt x="343" y="653" on="0"/>
        <pt x="334" y="642" on="0"/>
        <pt x="318" y="642" on="1"/>
        <pt x="152" y="642" on="1"/>
        <pt x="152" y="392" on="1"/>
        <pt x="313" y="392" on="1"/>
        <pt x="313" y="361" on="1"/>
        <pt x="313" y="345" on="0"/>
        <pt x="304" y="334" on="0"/>
        <pt x="288" y="334" on="1"/>
        <pt x="152" y="334" on="1"/>
        <pt x="152" y="27" on="1"/>
        <pt x="152" y="11" on="0"/>
        <pt x="141" y="0" on="0"/>
        <pt x="125" y="0" on="1"/>
        <pt x="72" y="0" on="1"/>
        <pt x="72" y="673" on="1"/>
        <pt x="72" y="689" on="0"/>
        <pt x="83" y="700" on="0"/>
        <pt x="99" y="700" on="1"/>
      </contour>
    </TTGlyph>
    <TTGlyph name="G" xMin="70" yMin="0" xMax="404" yMax="700">
      <contour>
        <pt x="165" y="0" on="1"/>
        <pt x="113" y="0" on="0"/>
        <pt x="70" y="43" on="0"/>
        <pt x="70" y="95" on="1"/>
        <pt x="70" y="605" on="1"/>
        <pt x="70" y="657" on="0"/>
        <pt x="113" y="700" on="0"/>
        <pt x="165" y="700" on="1"/>
        <pt x="360" y="700" on="1"/>
        <pt x="376" y="700" on="0"/>
        <pt x="385" y="689" on="0"/>
        <pt x="385" y="673" on="1"/>
        <pt x="385" y="642" on="1"/>
        <pt x="197" y="642" on="1"/>
        <pt x="166" y="642" on="0"/>
        <pt x="150" y="616" on="0"/>
        <pt x="150" y="585" on="1"/>
        <pt x="150" y="115" on="1"/>
        <pt x="150" y="84" on="0"/>
        <pt x="166" y="58" on="0"/>
        <pt x="197" y="58" on="1"/>
        <pt x="277" y="58" on="1"/>
        <pt x="308" y="58" on="0"/>
        <pt x="324" y="84" on="0"/>
        <pt x="324" y="115" on="1"/>
        <pt x="324" y="334" on="1"/>
        <pt x="238" y="334" on="1"/>
        <pt x="238" y="365" on="1"/>
        <pt x="238" y="381" on="0"/>
        <pt x="249" y="392" on="0"/>
        <pt x="265" y="392" on="1"/>
        <pt x="404" y="392" on="1"/>
        <pt x="404" y="95" on="1"/>
        <pt x="404" y="43" on="0"/>
        <pt x="360" y="0" on="0"/>
        <pt x="308" y="0" on="1"/>
      </contour>
    </TTGlyph>
    <TTGlyph name="H" xMin="72" yMin="0" xMax="426" yMax="700">
      <contour>
        <pt x="426" y="700" on="1"/>
        <pt x="426" y="27" on="1"/>
        <pt x="426" y="11" on="0"/>
        <pt x="415" y="0" on="0"/>
        <pt x="399" y="0" on="1"/>
        <pt x="346" y="0" on="1"/>
        <pt x="346" y="673" on="1"/>
        <pt x="346" y="689" on="0"/>
        <pt x="357" y="700" on="0"/>
        <pt x="373" y="700" on="1"/>
      </contour>
      <contour>
        <pt x="152" y="334" on="1"/>
        <pt x="152" y="27" on="1"/>
        <pt x="152" y="11" on="0"/>
        <pt x="141" y="0" on="0"/>
        <pt x="125" y="0" on="1"/>
        <pt x="72" y="0" on="1"/>
        <pt x="72" y="673" on="1"/>
        <pt x="72" y="689" on="0"/>
        <pt x="83" y="700" on="0"/>
        <pt x="99" y="700" on="1"/>
        <pt x="152" y="700" on="1"/>
        <pt x="152" y="392" on="1"/>
        <pt x="306" y="392" on="1"/>
        <pt x="306" y="361" on="1"/>
        <pt x="306" y="345" on="0"/>
        <pt x="297" y="334" on="0"/>
        <pt x="281" y="334" on="1"/>
      </contour>
    </TTGlyph>
    <TTGlyph name="I" xMin="72" yMin="0" xMax="152" yMax="700">
      <contour>
        <pt x="152" y="700" on="1"/>
        <pt x="152" y="27" on="1"/>
        <pt x="152" y="11" on="0"/>
        <pt x="141" y="0" on="0"/>
        <pt x="125" y="0" on="1"/>
        <pt x="72" y="0" on="1"/>
        <pt x="72" y="673" on="1"/>
        <pt x="72" y="689" on="0"/>
        <pt x="83" y="700" on="0"/>
        <pt x="99" y="700" on="1"/>
      </contour>
    </TTGlyph>
    <TTGlyph name="Iacute" xMin="72" yMin="0" xMax="236" yMax="900">
      <component glyphName="I" x="0" y="0" flags="0x204"/>
      <component glyphName="acute" x="51" y="200" flags="0x4"/>
    </TTGlyph>
    <TTGlyph name="Icircumflex" xMin="-10" yMin="0" xMax="255" yMax="900">
      <component glyphName="I" x="0" y="0" flags="0x204"/>
      <component glyphName="circumflex" x="-63" y="200" flags="0x4"/>
    </TTGlyph>
    <TTGlyph name="Idieresis" xMin="6" yMin="0" xMax="228" yMax="880">
      <component glyphName="I" x="0" y="0" flags="0x204"/>
      <component glyphName="dieresis" x="-54" y="200" flags="0x4"/>
    </TTGlyph>
    <TTGlyph name="Igrave" xMin="10" yMin="0" xMax="152" yMax="900">
      <component glyphName="I" x="0" y="0" flags="0x204"/>
      <component glyphName="grave" x="-62" y="200" flags="0x4"/>
    </TTGlyph>
    <TTGlyph name="J" xMin="-32" yMin="-115" xMax="152" yMax="700">
      <contour>
        <pt x="-32" y="-84" on="1"/>
        <pt x="-32" y="-68" on="0"/>
        <pt x="-23" y="-57" on="0"/>
        <pt x="-7" y="-57" on="1"/>
        <pt x="25" y="-57" on="1"/>
        <pt x="56" y="-57" on="0"/>
        <pt x="72" y="-31" on="0"/>
        <pt x="72" y="0" on="1"/>
        <pt x="72" y="673" on="1"/>
        <pt x="72" y="689" on="0"/>
        <pt x="83" y="700" on="0"/>
        <pt x="99" y="700" on="1"/>
        <pt x="152" y="700" on="1"/>
        <pt x="152" y="-20" on="1"/>
        <pt x="152" y="-72" on="0"/>
        <pt x="109" y="-115" on="0"/>
        <pt x="57" y="-115" on="1"/>
        <pt x="-32" y="-115" on="1"/>
      </contour>
    </TTGlyph>
    <TTGlyph name="K" xMin="72" yMin="0" xMax="442" yMax="700">
      <contour>
        <pt x="152" y="700" on="1"/>
        <pt x="152" y="27" on="1"/>
        <pt x="152" y="11" on="0"/>
        <pt x="141" y="0" on="0"/>
        <pt x="125" y="0" on="1"/>
        <pt x="72" y="0" on="1"/>
        <pt x="72" y="673" on="1"/>
        <pt x="72" y="689" on="0"/>
        <pt x="83" y="700" on="0"/>
        <pt x="99" y="700" on="1"/>
      </contour>
      <contour>
        <pt x="442" y="0" on="1"/>
        <pt x="392" y="0" on="1"/>
        <pt x="376" y="0" on="0"/>
        <pt x="348" y="13" on="0"/>
        <pt x="341" y="27" on="1"/>
        <pt x="192" y="328" on="1"/>
        <pt x="192" y="399" on="1"/>
        <pt x="333" y="673" on="1"/>
        <pt x="340" y="687" on="0"/>
        <pt x="368" y="700" on="0"/>
        <pt x="384" y="700" on="1"/>
        <pt x="426" y="700" on="1"/>
        <pt x="252" y="369" on="1"/>
      </contour>
    </TTGlyph>
    <TTGlyph name="L" xMin="72" yMin="0" xMax="363" yMax="700">
      <contour>
        <pt x="72" y="0" on="1"/>
        <pt x="72" y="673" on="1"/>
        <pt x="72" y="689" on="0"/>
        <pt x="83" y="700" on="0"/>
        <pt x="99" y="700" on="1"/>
        <pt x="152" y="700" on="1"/>
        <pt x="152" y="58" on="1"/>
        <pt x="363" y="58" on="1"/>
        <pt x="363" y="27" on="1"/>
        <pt x="363" y="11" on="0"/>
        <pt x="352" y="0" on="0"/>
        <pt x="336" y="0" on="1"/>
      </contour>
    </TTGlyph>
    <TTGlyph name="M" xMin="72" yMin="0" xMax="568" yMax="700">
      <contour>
        <pt x="351" y="243" on="1"/>
        <pt x="344" y="228" on="0"/>
        <pt x="331" y="216" on="0"/>
        <pt x="318" y="216" on="1"/>
        <pt x="286" y="216" on="1"/>
        <pt x="147" y="582" on="1"/>
        <pt x="141" y="582" on="1"/>
        <pt x="149" y="461" on="1"/>
        <pt x="154" y="27" on="1"/>
        <pt x="154" y="11" on="0"/>
        <pt x="143" y="0" on="0"/>
        <pt x="127" y="0" on="1"/>
        <pt x="72" y="0" on="1"/>
        <pt x="72" y="673" on="1"/>
        <pt x="72" y="689" on="0"/>
        <pt x="83" y="700" on="0"/>
        <pt x="99" y="700" on="1"/>
        <pt x="166" y="700" on="1"/>
        <pt x="294" y="374" on="1"/>
        <pt x="316" y="291" on="1"/>
        <pt x="322" y="291" on="1"/>
        <pt x="345" y="374" on="1"/>
        <pt x="471" y="673" on="1"/>
        <pt x="477" y="687" on="0"/>
        <pt x="493" y="700" on="0"/>
        <pt x="508" y="700" on="1"/>
        <pt x="568" y="700" on="1"/>
        <pt x="568" y="27" on="1"/>
        <pt x="568" y="11" on="0"/>
        <pt x="557" y="0" on="0"/>
        <pt x="541" y="0" on="1"/>
        <pt x="488" y="0" on="1"/>
        <pt x="488" y="461" on="1"/>
        <pt x="497" y="582" on="1"/>
        <pt x="491" y="582" on="1"/>
      </contour>
    </TTGlyph>
    <TTGlyph name="N" xMin="72" yMin="0" xMax="463" yMax="700">
      <contour>
        <pt x="338" y="272" on="1"/>
        <pt x="393" y="123" on="1"/>
        <pt x="399" y="123" on="1"/>
        <pt x="383" y="275" on="1"/>
        <pt x="383" y="673" on="1"/>
        <pt x="383" y="689" on="0"/>
        <pt x="394" y="700" on="0"/>
        <pt x="410" y="700" on="1"/>
        <pt x="463" y="700" on="1"/>
        <pt x="463" y="27" on="1"/>
        <pt x="463" y="11" on="0"/>
        <pt x="452" y="0" on="0"/>
        <pt x="436" y="0" on="1"/>
        <pt x="384" y="0" on="1"/>
        <pt x="199" y="420" on="1"/>
        <pt x="143" y="581" on="1"/>
        <pt x="137" y="581" on="1"/>
        <pt x="152" y="441" on="1"/>
        <pt x="152" y="27" on="1"/>
        <pt x="152" y="11" on="0"/>
        <pt x="141" y="0" on="0"/>
        <pt x="125" y="0" on="1"/>
        <pt x="72" y="0" on="1"/>
        <pt x="72" y="673" on="1"/>
        <pt x="72" y="689" on="0"/>
        <pt x="83" y="700" on="0"/>
        <pt x="99" y="700" on="1"/>
        <pt x="153" y="700" on="1"/>
      </contour>
    </TTGlyph>
    <TTGlyph name="Ntilde" xMin="72" yMin="0" xMax="463" yMax="903">
      <component glyphName="N" x="0" y="0" flags="0x4"/>
      <component glyphName="tilde" x="71" y="200" flags="0x4"/>
    </TTGlyph>
    <TTGlyph name="O" xMin="70" yMin="0" xMax="414" yMax="700">
      <contour>
        <pt x="150" y="115" on="1"/>
        <pt x="150" y="84" on="0"/>
        <pt x="166" y="58" on="0"/>
        <pt x="197" y="58" on="1"/>
        <pt x="287" y="58" on="1"/>
        <pt x="318" y="58" on="0"/>
        <pt x="334" y="84" on="0"/>
        <pt x="334" y="115" on="1"/>
        <pt x="334" y="585" on="1"/>
        <pt x="334" y="616" on="0"/>
        <pt x="318" y="642" on="0"/>
        <pt x="287" y="642" on="1"/>
        <pt x="197" y="642" on="1"/>
        <pt x="166" y="642" on="0"/>
        <pt x="150" y="616" on="0"/>
        <pt x="150" y="585" on="1"/>
      </contour>
      <contour>
        <pt x="70" y="605" on="1"/>
        <pt x="70" y="657" on="0"/>
        <pt x="113" y="700" on="0"/>
        <pt x="165" y="700" on="1"/>
        <pt x="319" y="700" on="1"/>
        <pt x="371" y="700" on="0"/>
        <pt x="414" y="657" on="0"/>
        <pt x="414" y="605" on="1"/>
        <pt x="414" y="95" on="1"/>
        <pt x="414" y="43" on="0"/>
        <pt x="371" y="0" on="0"/>
        <pt x="319" y="0" on="1"/>
        <pt x="165" y="0" on="1"/>
        <pt x="113" y="0" on="0"/>
        <pt x="70" y="43" on="0"/>
        <pt x="70" y="95" on="1"/>
      </contour>
    </TTGlyph>
    <TTGlyph name="OE" xMin="70" yMin="0" xMax="605" yMax="700">
      <contour>
        <pt x="414" y="334" on="1"/>
        <pt x="414" y="58" on="1"/>
        <pt x="605" y="58" on="1"/>
        <pt x="605" y="27" on="1"/>
        <pt x="605" y="11" on="0"/>
        <pt x="594" y="0" on="0"/>
        <pt x="578" y="0" on="1"/>
        <pt x="165" y="0" on="1"/>
        <pt x="113" y="0" on="0"/>
        <pt x="70" y="43" on="0"/>
        <pt x="70" y="95" on="1"/>
        <pt x="70" y="605" on="1"/>
        <pt x="70" y="657" on="0"/>
        <pt x="113" y="700" on="0"/>
        <pt x="165" y="700" on="1"/>
        <pt x="605" y="700" on="1"/>
        <pt x="605" y="669" on="1"/>
        <pt x="605" y="653" on="0"/>
        <pt x="596" y="642" on="0"/>
        <pt x="580" y="642" on="1"/>
        <pt x="414" y="642" on="1"/>
        <pt x="414" y="392" on="1"/>
        <pt x="575" y="392" on="1"/>
        <pt x="575" y="361" on="1"/>
        <pt x="575" y="345" on="0"/>
        <pt x="566" y="334" on="0"/>
        <pt x="550" y="334" on="1"/>
      </contour>
      <contour>
        <pt x="150" y="115" on="1"/>
        <pt x="150" y="84" on="0"/>
        <pt x="166" y="58" on="0"/>
        <pt x="197" y="58" on="1"/>
        <pt x="334" y="58" on="1"/>
        <pt x="334" y="642" on="1"/>
        <pt x="197" y="642" on="1"/>
        <pt x="166" y="642" on="0"/>
        <pt x="150" y="616" on="0"/>
        <pt x="150" y="585" on="1"/>
      </contour>
    </TTGlyph>
    <TTGlyph name="Oacute" xMin="70" yMin="0" xMax="414" yMax="899">
      <component glyphName="O" x="0" y="0" flags="0x204"/>
      <component glyphName="acute" x="165" y="199" flags="0x4"/>
    </TTGlyph>
    <TTGlyph name="Ocircumflex" xMin="70" yMin="0" xMax="414" yMax="899">
      <component glyphName="O" x="0" y="0" flags="0x204"/>
      <component glyphName="circumflex" x="61" y="199" flags="0x4"/>
    </TTGlyph>
    <TTGlyph name="Odieresis" xMin="70" yMin="0" xMax="414" yMax="879">
      <component glyphName="O" x="0" y="0" flags="0x204"/>
      <component glyphName="dieresis" x="68" y="199" flags="0x4"/>
    </TTGlyph>
    <TTGlyph name="Ograve" xMin="70" yMin="0" xMax="414" yMax="899">
      <component glyphName="O" x="0" y="0" flags="0x204"/>
      <component glyphName="grave" x="60" y="199" flags="0x4"/>
    </TTGlyph>
    <TTGlyph name="Oslash" xMin="-6" yMin="0" xMax="520" yMax="700">
      <contour>
        <pt x="-6" y="10" on="1"/>
        <pt x="96" y="164" on="1"/>
        <pt x="96" y="605" on="1"/>
        <pt x="96" y="657" on="0"/>
        <pt x="139" y="700" on="0"/>
        <pt x="191" y="700" on="1"/>
        <pt x="345" y="700" on="1"/>
        <pt x="384" y="700" on="0"/>
        <pt x="427" y="676" on="0"/>
        <pt x="435" y="647" on="1"/>
        <pt x="439" y="653" on="1"/>
        <pt x="449" y="669" on="0"/>
        <pt x="467" y="680" on="0"/>
        <pt x="483" y="680" on="1"/>
        <pt x="520" y="680" on="1"/>
        <pt x="440" y="559" on="1"/>
        <pt x="440" y="95" on="1"/>
        <pt x="440" y="43" on="0"/>
        <pt x="397" y="0" on="0"/>
        <pt x="345" y="0" on="1"/>
        <pt x="191" y="0" on="1"/>
        <pt x="145" y="0" on="0"/>
        <pt x="102" y="33" on="0"/>
        <pt x="97" y="72" on="1"/>
        <pt x="74" y="37" on="1"/>
        <pt x="64" y="21" on="0"/>
        <pt x="46" y="10" on="0"/>
        <pt x="31" y="10" on="1"/>
      </contour>
      <contour>
        <pt x="360" y="554" on="1"/>
        <pt x="360" y="585" on="1"/>
        <pt x="360" y="616" on="0"/>
        <pt x="344" y="642" on="0"/>
        <pt x="313" y="642" on="1"/>
        <pt x="223" y="642" on="1"/>
        <pt x="192" y="642" on="0"/>
        <pt x="176" y="616" on="0"/>
        <pt x="176" y="585" on="1"/>
        <pt x="176" y="275" on="1"/>
      </contour>
      <contour>
        <pt x="360" y="458" on="1"/>
        <pt x="176" y="181" on="1"/>
        <pt x="176" y="115" on="1"/>
        <pt x="176" y="84" on="0"/>
        <pt x="192" y="58" on="0"/>
        <pt x="223" y="58" on="1"/>
        <pt x="313" y="58" on="1"/>
        <pt x="344" y="58" on="0"/>
        <pt x="360" y="84" on="0"/>
        <pt x="360" y="115" on="1"/>
      </contour>
    </TTGlyph>
    <TTGlyph name="Otilde" xMin="70" yMin="0" xMax="414" yMax="902">
      <component glyphName="O" x="0" y="0" flags="0x204"/>
      <component glyphName="tilde" x="53" y="199" flags="0x4"/>
    </TTGlyph>
    <TTGlyph name="P" xMin="72" yMin="0" xMax="396" yMax="700">
      <contour>
        <pt x="269" y="352" on="1"/>
        <pt x="300" y="352" on="0"/>
        <pt x="316" y="378" on="0"/>
        <pt x="316" y="409" on="1"/>
        <pt x="316" y="585" on="1"/>
        <pt x="316" y="616" on="0"/>
        <pt x="300" y="642" on="0"/>
        <pt x="269" y="642" on="1"/>
        <pt x="152" y="642" on="1"/>
        <pt x="152" y="27" on="1"/>
        <pt x="152" y="11" on="0"/>
        <pt x="141" y="0" on="0"/>
        <pt x="125" y="0" on="1"/>
        <pt x="72" y="0" on="1"/>
        <pt x="72" y="673" on="1"/>
        <pt x="72" y="689" on="0"/>
        <pt x="83" y="700" on="0"/>
        <pt x="99" y="700" on="1"/>
        <pt x="301" y="700" on="1"/>
        <pt x="353" y="700" on="0"/>
        <pt x="396" y="657" on="0"/>
        <pt x="396" y="605" on="1"/>
        <pt x="396" y="389" on="1"/>
        <pt x="396" y="337" on="0"/>
        <pt x="353" y="294" on="0"/>
        <pt x="301" y="294" on="1"/>
        <pt x="217" y="294" on="1"/>
        <pt x="201" y="294" on="0"/>
        <pt x="192" y="305" on="0"/>
        <pt x="192" y="321" on="1"/>
        <pt x="192" y="352" on="1"/>
      </contour>
    </TTGlyph>
    <TTGlyph name="Q" xMin="70" yMin="-123" xMax="414" yMax="700">
      <contour>
        <pt x="70" y="605" on="1"/>
        <pt x="70" y="657" on="0"/>
        <pt x="113" y="700" on="0"/>
        <pt x="165" y="700" on="1"/>
        <pt x="319" y="700" on="1"/>
        <pt x="371" y="700" on="0"/>
        <pt x="414" y="657" on="0"/>
        <pt x="414" y="605" on="1"/>
        <pt x="414" y="95" on="1"/>
        <pt x="414" y="43" on="0"/>
        <pt x="371" y="0" on="0"/>
        <pt x="319" y="0" on="1"/>
        <pt x="263" y="0" on="1"/>
        <pt x="263" y="-8" on="1"/>
        <pt x="263" y="-43" on="0"/>
        <pt x="281" y="-65" on="0"/>
        <pt x="310" y="-65" on="1"/>
        <pt x="353" y="-65" on="1"/>
        <pt x="353" y="-96" on="1"/>
        <pt x="353" y="-112" on="0"/>
        <pt x="344" y="-123" on="0"/>
        <pt x="328" y="-123" on="1"/>
        <pt x="290" y="-123" on="1"/>
        <pt x="247" y="-123" on="0"/>
        <pt x="205" y="-79" on="0"/>
        <pt x="205" y="-28" on="1"/>
        <pt x="205" y="0" on="1"/>
        <pt x="165" y="0" on="1"/>
        <pt x="113" y="0" on="0"/>
        <pt x="70" y="43" on="0"/>
        <pt x="70" y="95" on="1"/>
      </contour>
      <contour>
        <pt x="150" y="115" on="1"/>
        <pt x="150" y="84" on="0"/>
        <pt x="166" y="58" on="0"/>
        <pt x="197" y="58" on="1"/>
        <pt x="287" y="58" on="1"/>
        <pt x="318" y="58" on="0"/>
        <pt x="334" y="84" on="0"/>
        <pt x="334" y="115" on="1"/>
        <pt x="334" y="585" on="1"/>
        <pt x="334" y="616" on="0"/>
        <pt x="318" y="642" on="0"/>
        <pt x="287" y="642" on="1"/>
        <pt x="197" y="642" on="1"/>
        <pt x="166" y="642" on="0"/>
        <pt x="150" y="616" on="0"/>
        <pt x="150" y="585" on="1"/>
      </contour>
    </TTGlyph>
    <TTGlyph name="R" xMin="72" yMin="0" xMax="427" yMax="700">
      <contour>
        <pt x="274" y="392" on="1"/>
        <pt x="305" y="392" on="0"/>
        <pt x="321" y="418" on="0"/>
        <pt x="321" y="449" on="1"/>
        <pt x="321" y="585" on="1"/>
        <pt x="321" y="616" on="0"/>
        <pt x="305" y="642" on="0"/>
        <pt x="274" y="642" on="1"/>
        <pt x="152" y="642" on="1"/>
        <pt x="152" y="27" on="1"/>
        <pt x="152" y="11" on="0"/>
        <pt x="141" y="0" on="0"/>
        <pt x="125" y="0" on="1"/>
        <pt x="72" y="0" on="1"/>
        <pt x="72" y="673" on="1"/>
        <pt x="72" y="689" on="0"/>
        <pt x="83" y="700" on="0"/>
        <pt x="99" y="700" on="1"/>
        <pt x="306" y="700" on="1"/>
        <pt x="358" y="700" on="0"/>
        <pt x="401" y="657" on="0"/>
        <pt x="401" y="605" on="1"/>
        <pt x="401" y="429" on="1"/>
        <pt x="401" y="382" on="0"/>
        <pt x="367" y="339" on="0"/>
        <pt x="326" y="335" on="1"/>
        <pt x="427" y="0" on="1"/>
        <pt x="376" y="0" on="1"/>
        <pt x="360" y="0" on="0"/>
        <pt x="345" y="11" on="0"/>
        <pt x="340" y="27" on="1"/>
        <pt x="247" y="334" on="1"/>
        <pt x="217" y="334" on="1"/>
        <pt x="201" y="334" on="0"/>
        <pt x="192" y="345" on="0"/>
        <pt x="192" y="361" on="1"/>
        <pt x="192" y="392" on="1"/>
      </contour>
    </TTGlyph>
    <TTGlyph name="S" xMin="59" yMin="0" xMax="336" yMax="700">
      <contour>
        <pt x="336" y="95" on="1"/>
        <pt x="336" y="43" on="0"/>
        <pt x="293" y="0" on="0"/>
        <pt x="241" y="0" on="1"/>
        <pt x="119" y="0" on="1"/>
        <pt x="90" y="0" on="0"/>
        <pt x="65" y="29" on="0"/>
        <pt x="59" y="58" on="1"/>
        <pt x="209" y="58" on="1"/>
        <pt x="240" y="58" on="0"/>
        <pt x="256" y="84" on="0"/>
        <pt x="256" y="115" on="1"/>
        <pt x="256" y="277" on="1"/>
        <pt x="256" y="308" on="0"/>
        <pt x="239" y="334" on="0"/>
        <pt x="205" y="334" on="1"/>
        <pt x="154" y="334" on="1"/>
        <pt x="102" y="334" on="0"/>
        <pt x="59" y="377" on="0"/>
        <pt x="59" y="429" on="1"/>
        <pt x="59" y="605" on="1"/>
        <pt x="59" y="657" on="0"/>
        <pt x="102" y="700" on="0"/>
        <pt x="154" y="700" on="1"/>
        <pt x="273" y="700" on="1"/>
        <pt x="302" y="700" on="0"/>
        <pt x="327" y="671" on="0"/>
        <pt x="333" y="642" on="1"/>
        <pt x="186" y="642" on="1"/>
        <pt x="155" y="642" on="0"/>
        <pt x="139" y="616" on="0"/>
        <pt x="139" y="585" on="1"/>
        <pt x="139" y="449" on="1"/>
        <pt x="139" y="418" on="0"/>
        <pt x="155" y="392" on="0"/>
        <pt x="186" y="392" on="1"/>
        <pt x="241" y="392" on="1"/>
        <pt x="293" y="392" on="0"/>
        <pt x="336" y="349" on="0"/>
        <pt x="336" y="297" on="1"/>
      </contour>
    </TTGlyph>
    <TTGlyph name="T" xMin="26" yMin="0" xMax="398" yMax="700">
      <contour>
        <pt x="398" y="700" on="1"/>
        <pt x="398" y="669" on="1"/>
        <pt x="398" y="653" on="0"/>
        <pt x="387" y="642" on="0"/>
        <pt x="371" y="642" on="1"/>
        <pt x="251" y="642" on="1"/>
        <pt x="251" y="27" on="1"/>
        <pt x="251" y="11" on="0"/>
        <pt x="240" y="0" on="0"/>
        <pt x="224" y="0" on="1"/>
        <pt x="171" y="0" on="1"/>
        <pt x="171" y="642" on="1"/>
        <pt x="26" y="642" on="1"/>
        <pt x="26" y="673" on="1"/>
        <pt x="26" y="689" on="0"/>
        <pt x="37" y="700" on="0"/>
        <pt x="53" y="700" on="1"/>
      </contour>
    </TTGlyph>
    <TTGlyph name="Thorn" xMin="72" yMin="0" xMax="406" yMax="700">
      <contour>
        <pt x="152" y="700" on="1"/>
        <pt x="152" y="492" on="1"/>
        <pt x="158" y="521" on="0"/>
        <pt x="183" y="550" on="0"/>
        <pt x="212" y="550" on="1"/>
        <pt x="311" y="550" on="1"/>
        <pt x="363" y="550" on="0"/>
        <pt x="406" y="507" on="0"/>
        <pt x="406" y="455" on="1"/>
        <pt x="406" y="245" on="1"/>
        <pt x="406" y="193" on="0"/>
        <pt x="363" y="150" on="0"/>
        <pt x="311" y="150" on="1"/>
        <pt x="152" y="150" on="1"/>
        <pt x="152" y="27" on="1"/>
        <pt x="152" y="11" on="0"/>
        <pt x="141" y="0" on="0"/>
        <pt x="125" y="0" on="1"/>
        <pt x="72" y="0" on="1"/>
        <pt x="72" y="673" on="1"/>
        <pt x="72" y="689" on="0"/>
        <pt x="83" y="700" on="0"/>
        <pt x="99" y="700" on="1"/>
      </contour>
      <contour>
        <pt x="326" y="435" on="1"/>
        <pt x="326" y="466" on="0"/>
        <pt x="310" y="492" on="0"/>
        <pt x="279" y="492" on="1"/>
        <pt x="152" y="492" on="1"/>
        <pt x="152" y="208" on="1"/>
        <pt x="279" y="208" on="1"/>
        <pt x="310" y="208" on="0"/>
        <pt x="326" y="234" on="0"/>
        <pt x="326" y="265" on="1"/>
      </contour>
    </TTGlyph>
    <TTGlyph name="U" xMin="71" yMin="0" xMax="420" yMax="700">
      <contour>
        <pt x="420" y="700" on="1"/>
        <pt x="420" y="95" on="1"/>
        <pt x="420" y="43" on="0"/>
        <pt x="377" y="0" on="0"/>
        <pt x="325" y="0" on="1"/>
        <pt x="166" y="0" on="1"/>
        <pt x="114" y="0" on="0"/>
        <pt x="71" y="43" on="0"/>
        <pt x="71" y="95" on="1"/>
        <pt x="71" y="673" on="1"/>
        <pt x="71" y="689" on="0"/>
        <pt x="82" y="700" on="0"/>
        <pt x="98" y="700" on="1"/>
        <pt x="151" y="700" on="1"/>
        <pt x="151" y="115" on="1"/>
        <pt x="151" y="84" on="0"/>
        <pt x="167" y="58" on="0"/>
        <pt x="198" y="58" on="1"/>
        <pt x="293" y="58" on="1"/>
        <pt x="324" y="58" on="0"/>
        <pt x="340" y="84" on="0"/>
        <pt x="340" y="115" on="1"/>
        <pt x="340" y="673" on="1"/>
        <pt x="340" y="689" on="0"/>
        <pt x="351" y="700" on="0"/>
        <pt x="367" y="700" on="1"/>
      </contour>
    </TTGlyph>
    <TTGlyph name="Uacute" xMin="58" yMin="0" xMax="407" yMax="900">
      <component glyphName="U" x="-13" y="0" flags="0x4"/>
      <component glyphName="acute" x="159" y="200" flags="0x4"/>
    </TTGlyph>
    <TTGlyph name="Ucircumflex" xMin="58" yMin="0" xMax="407" yMax="900">
      <component glyphName="U" x="-13" y="0" flags="0x4"/>
      <component glyphName="circumflex" x="50" y="200" flags="0x4"/>
    </TTGlyph>
    <TTGlyph name="Udieresis" xMin="58" yMin="0" xMax="407" yMax="880">
      <component glyphName="U" x="-13" y="0" flags="0x4"/>
      <component glyphName="dieresis" x="60" y="200" flags="0x4"/>
    </TTGlyph>
    <TTGlyph name="Ugrave" xMin="58" yMin="0" xMax="407" yMax="900">
      <component glyphName="U" x="-13" y="0" flags="0x4"/>
      <component glyphName="grave" x="53" y="200" flags="0x4"/>
    </TTGlyph>
    <TTGlyph name="V" xMin="25" yMin="0" xMax="426" yMax="700">
      <contour>
        <pt x="31" y="673" on="1"/>
        <pt x="25" y="700" on="0"/>
        <pt x="51" y="700" on="1"/>
        <pt x="106" y="700" on="1"/>
        <pt x="213" y="203" on="1"/>
        <pt x="227" y="92" on="1"/>
        <pt x="233" y="92" on="1"/>
        <pt x="247" y="203" on="1"/>
        <pt x="342" y="673" on="1"/>
        <pt x="346" y="689" on="0"/>
        <pt x="360" y="700" on="0"/>
        <pt x="376" y="700" on="1"/>
        <pt x="426" y="700" on="1"/>
        <pt x="282" y="27" on="1"/>
        <pt x="278" y="11" on="0"/>
        <pt x="265" y="0" on="0"/>
        <pt x="249" y="0" on="1"/>
        <pt x="175" y="0" on="1"/>
      </contour>
    </TTGlyph>
    <TTGlyph name="W" xMin="32" yMin="-1" xMax="679" yMax="700">
      <contour>
        <pt x="378" y="313" on="1"/>
        <pt x="361" y="412" on="1"/>
        <pt x="355" y="412" on="1"/>
        <pt x="339" y="313" on="1"/>
        <pt x="260" y="27" on="1"/>
        <pt x="256" y="11" on="0"/>
        <pt x="243" y="0" on="0"/>
        <pt x="227" y="0" on="1"/>
        <pt x="160" y="0" on="1"/>
        <pt x="38" y="673" on="1"/>
        <pt x="32" y="700" on="0"/>
        <pt x="58" y="700" on="1"/>
        <pt x="112" y="700" on="1"/>
        <pt x="196" y="212" on="1"/>
        <pt x="216" y="92" on="1"/>
        <pt x="222" y="92" on="1"/>
        <pt x="246" y="212" on="1"/>
        <pt x="324" y="498" on="1"/>
        <pt x="326" y="503" on="0"/>
        <pt x="337" y="513" on="0"/>
        <pt x="345" y="513" on="1"/>
        <pt x="399" y="513" on="1"/>
        <pt x="470" y="212" on="1"/>
        <pt x="495" y="92" on="1"/>
        <pt x="501" y="92" on="1"/>
        <pt x="520" y="212" on="1"/>
        <pt x="596" y="673" on="1"/>
        <pt x="599" y="689" on="0"/>
        <pt x="614" y="700" on="0"/>
        <pt x="630" y="700" on="1"/>
        <pt x="679" y="700" on="1"/>
        <pt x="559" y="27" on="1"/>
        <pt x="555" y="11" on="0"/>
        <pt x="542" y="-1" on="0"/>
        <pt x="526" y="-1" on="1"/>
        <pt x="455" y="-1" on="1"/>
      </contour>
    </TTGlyph>
    <TTGlyph name="X" xMin="34" yMin="0" xMax="403" yMax="700">
      <contour>
        <pt x="102" y="700" on="1"/>
        <pt x="197" y="476" on="1"/>
        <pt x="216" y="402" on="1"/>
        <pt x="222" y="402" on="1"/>
        <pt x="240" y="476" on="1"/>
        <pt x="335" y="700" on="1"/>
        <pt x="378" y="700" on="1"/>
        <pt x="394" y="700" on="0"/>
        <pt x="403" y="689" on="0"/>
        <pt x="403" y="673" on="1"/>
        <pt x="264" y="348" on="1"/>
        <pt x="402" y="27" on="1"/>
        <pt x="402" y="11" on="0"/>
        <pt x="393" y="0" on="0"/>
        <pt x="377" y="0" on="1"/>
        <pt x="334" y="0" on="1"/>
        <pt x="242" y="224" on="1"/>
        <pt x="221" y="293" on="1"/>
        <pt x="215" y="293" on="1"/>
        <pt x="195" y="224" on="1"/>
        <pt x="103" y="0" on="1"/>
        <pt x="60" y="0" on="1"/>
        <pt x="44" y="0" on="0"/>
        <pt x="35" y="11" on="0"/>
        <pt x="35" y="27" on="1"/>
        <pt x="173" y="348" on="1"/>
        <pt x="34" y="673" on="1"/>
        <pt x="34" y="689" on="0"/>
        <pt x="43" y="700" on="0"/>
        <pt x="59" y="700" on="1"/>
      </contour>
    </TTGlyph>
    <TTGlyph name="Y" xMin="12" yMin="0" xMax="409" yMax="700">
      <contour>
        <pt x="86" y="700" on="1"/>
        <pt x="173" y="477" on="1"/>
        <pt x="211" y="359" on="1"/>
        <pt x="217" y="359" on="1"/>
        <pt x="254" y="477" on="1"/>
        <pt x="328" y="673" on="1"/>
        <pt x="333" y="688" on="0"/>
        <pt x="347" y="700" on="0"/>
        <pt x="364" y="700" on="1"/>
        <pt x="409" y="700" on="1"/>
        <pt x="249" y="294" on="1"/>
        <pt x="249" y="28" on="1"/>
        <pt x="249" y="11" on="0"/>
        <pt x="237" y="0" on="0"/>
        <pt x="221" y="0" on="1"/>
        <pt x="169" y="0" on="1"/>
        <pt x="169" y="294" on="1"/>
        <pt x="18" y="673" on="1"/>
        <pt x="12" y="689" on="0"/>
        <pt x="27" y="700" on="0"/>
        <pt x="43" y="700" on="1"/>
      </contour>
    </TTGlyph>
    <TTGlyph name="Yacute" xMin="9" yMin="0" xMax="406" yMax="892">
      <component glyphName="Y" x="-3" y="0" flags="0x4"/>
      <component glyphName="acute" x="121" y="192" flags="0x4"/>
    </TTGlyph>
    <TTGlyph name="Z" xMin="38" yMin="0" xMax="366" yMax="700">
      <contour>
        <pt x="63" y="0" on="1"/>
        <pt x="47" y="0" on="0"/>
        <pt x="38" y="11" on="0"/>
        <pt x="38" y="27" on="1"/>
        <pt x="38" y="58" on="1"/>
        <pt x="286" y="642" on="1"/>
        <pt x="52" y="642" on="1"/>
        <pt x="52" y="673" on="1"/>
        <pt x="52" y="689" on="0"/>
        <pt x="61" y="700" on="0"/>
        <pt x="77" y="700" on="1"/>
        <pt x="341" y="700" on="1"/>
        <pt x="357" y="700" on="0"/>
        <pt x="366" y="689" on="0"/>
        <pt x="366" y="673" on="1"/>
        <pt x="366" y="642" on="1"/>
        <pt x="117" y="58" on="1"/>
        <pt x="363" y="58" on="1"/>
        <pt x="363" y="27" on="1"/>
        <pt x="363" y="11" on="0"/>
        <pt x="354" y="0" on="0"/>
        <pt x="338" y="0" on="1"/>
      </contour>
    </TTGlyph>
    <TTGlyph name="a" xMin="51" yMin="0" xMax="371" yMax="508">
      <contour>
        <pt x="291" y="393" on="1"/>
        <pt x="291" y="424" on="0"/>
        <pt x="275" y="450" on="0"/>
        <pt x="244" y="450" on="1"/>
        <pt x="71" y="450" on="1"/>
        <pt x="77" y="479" on="0"/>
        <pt x="102" y="508" on="0"/>
        <pt x="131" y="508" on="1"/>
        <pt x="276" y="508" on="1"/>
        <pt x="328" y="508" on="0"/>
        <pt x="371" y="465" on="0"/>
        <pt x="371" y="413" on="1"/>
        <pt x="371" y="0" on="1"/>
        <pt x="318" y="0" on="1"/>
        <pt x="302" y="0" on="0"/>
        <pt x="291" y="11" on="0"/>
        <pt x="291" y="27" on="1"/>
      </contour>
      <contour>
        <pt x="146" y="0" on="1"/>
        <pt x="94" y="0" on="0"/>
        <pt x="51" y="43" on="0"/>
        <pt x="51" y="95" on="1"/>
        <pt x="51" y="205" on="1"/>
        <pt x="51" y="257" on="0"/>
        <pt x="94" y="300" on="0"/>
        <pt x="146" y="300" on="1"/>
        <pt x="231" y="300" on="1"/>
        <pt x="260" y="300" on="0"/>
        <pt x="285" y="271" on="0"/>
        <pt x="291" y="242" on="1"/>
        <pt x="178" y="242" on="1"/>
        <pt x="147" y="242" on="0"/>
        <pt x="131" y="216" on="0"/>
        <pt x="131" y="185" on="1"/>
        <pt x="131" y="107" on="1"/>
        <pt x="131" y="76" on="0"/>
        <pt x="154" y="58" on="0"/>
        <pt x="185" y="58" on="1"/>
        <pt x="251" y="58" on="1"/>
        <pt x="251" y="27" on="1"/>
        <pt x="251" y="11" on="0"/>
        <pt x="242" y="0" on="0"/>
        <pt x="226" y="0" on="1"/>
      </contour>
    </TTGlyph>
    <TTGlyph name="aacute" xMin="51" yMin="0" xMax="371" yMax="700">
      <component glyphName="a" x="0" y="0" flags="0x204"/>
      <component glyphName="acute" x="149" y="0" flags="0x4"/>
    </TTGlyph>
    <TTGlyph name="acircumflex" xMin="51" yMin="0" xMax="371" yMax="700">
      <component glyphName="a" x="0" y="0" flags="0x204"/>
      <component glyphName="circumflex" x="33" y="0" flags="0x4"/>
    </TTGlyph>
    <TTGlyph name="acute" xMin="47" yMin="559" xMax="185" yMax="700">
      <contour>
        <pt x="92" y="559" on="1"/>
        <pt x="66" y="559" on="1"/>
        <pt x="48" y="559" on="0"/>
        <pt x="47" y="578" on="0"/>
        <pt x="50" y="583" on="1"/>
        <pt x="107" y="700" on="1"/>
        <pt x="160" y="700" on="1"/>
        <pt x="175" y="700" on="0"/>
        <pt x="185" y="690" on="0"/>
        <pt x="185" y="676" on="1"/>
      </contour>
    </TTGlyph>
    <TTGlyph name="adieresis" xMin="51" yMin="0" xMax="371" yMax="680">
      <component glyphName="a" x="0" y="0" flags="0x204"/>
      <component glyphName="dieresis" x="42" y="0" flags="0x4"/>
    </TTGlyph>
    <TTGlyph name="ae" xMin="51" yMin="0" xMax="601" yMax="508">
      <contour>
        <pt x="572" y="58" on="1"/>
        <pt x="572" y="27" on="1"/>
        <pt x="572" y="11" on="0"/>
        <pt x="563" y="0" on="0"/>
        <pt x="547" y="0" on="1"/>
        <pt x="396" y="0" on="1"/>
        <pt x="344" y="0" on="0"/>
        <pt x="301" y="43" on="0"/>
        <pt x="301" y="95" on="1"/>
        <pt x="301" y="402" on="1"/>
        <pt x="300" y="426" on="0"/>
        <pt x="293" y="437" on="1"/>
        <pt x="285" y="450" on="0"/>
        <pt x="254" y="450" on="1"/>
        <pt x="71" y="450" on="1"/>
        <pt x="74" y="464" on="0"/>
        <pt x="95" y="486" on="0"/>
        <pt x="124" y="501" on="0"/>
        <pt x="156" y="508" on="0"/>
        <pt x="171" y="508" on="1"/>
        <pt x="286" y="508" on="1"/>
        <pt x="320" y="508" on="0"/>
        <pt x="341" y="499" on="1"/>
        <pt x="362" y="508" on="0"/>
        <pt x="396" y="508" on="1"/>
        <pt x="506" y="508" on="1"/>
        <pt x="558" y="508" on="0"/>
        <pt x="601" y="465" on="0"/>
        <pt x="601" y="413" on="1"/>
        <pt x="601" y="301" on="1"/>
        <pt x="601" y="249" on="0"/>
        <pt x="558" y="206" on="0"/>
        <pt x="506" y="206" on="1"/>
        <pt x="446" y="206" on="1"/>
        <pt x="430" y="206" on="0"/>
        <pt x="421" y="217" on="0"/>
        <pt x="421" y="233" on="1"/>
        <pt x="421" y="264" on="1"/>
        <pt x="479" y="264" on="1"/>
        <pt x="510" y="264" on="0"/>
        <pt x="526" y="290" on="0"/>
        <pt x="526" y="321" on="1"/>
        <pt x="526" y="398" on="1"/>
        <pt x="526" y="429" on="0"/>
        <pt x="506" y="450" on="0"/>
        <pt x="475" y="450" on="1"/>
        <pt x="432" y="450" on="1"/>
        <pt x="399" y="450" on="0"/>
        <pt x="390" y="438" on="1"/>
        <pt x="382" y="428" on="0"/>
        <pt x="381" y="402" on="1"/>
        <pt x="381" y="115" on="1"/>
        <pt x="381" y="84" on="0"/>
        <pt x="397" y="58" on="0"/>
        <pt x="428" y="58" on="1"/>
      </contour>
      <contour>
        <pt x="131" y="115" on="1"/>
        <pt x="131" y="84" on="0"/>
        <pt x="157" y="58" on="0"/>
        <pt x="188" y="58" on="1"/>
        <pt x="301" y="58" on="1"/>
        <pt x="295" y="29" on="0"/>
        <pt x="270" y="0" on="0"/>
        <pt x="241" y="0" on="1"/>
        <pt x="146" y="0" on="1"/>
        <pt x="94" y="0" on="0"/>
        <pt x="51" y="43" on="0"/>
        <pt x="51" y="95" on="1"/>
        <pt x="51" y="205" on="1"/>
        <pt x="51" y="257" on="0"/>
        <pt x="94" y="300" on="0"/>
        <pt x="146" y="300" on="1"/>
        <pt x="241" y="300" on="1"/>
        <pt x="270" y="300" on="0"/>
        <pt x="295" y="271" on="0"/>
        <pt x="301" y="242" on="1"/>
        <pt x="188" y="242" on="1"/>
        <pt x="157" y="242" on="0"/>
        <pt x="131" y="216" on="0"/>
        <pt x="131" y="185" on="1"/>
      </contour>
    </TTGlyph>
    <TTGlyph name="agrave" xMin="51" yMin="0" xMax="371" yMax="700">
      <component glyphName="a" x="0" y="0" flags="0x204"/>
      <component glyphName="grave" x="44" y="0" flags="0x4"/>
    </TTGlyph>
    <TTGlyph name="ampersand" xMin="66" yMin="0" xMax="422" yMax="700">
      <contour>
        <pt x="422" y="334" on="1"/>
        <pt x="359" y="334" on="1"/>
        <pt x="359" y="27" on="1"/>
        <pt x="359" y="11" on="0"/>
        <pt x="348" y="0" on="0"/>
        <pt x="332" y="0" on="1"/>
        <pt x="285" y="0" on="1"/>
        <pt x="285" y="334" on="1"/>
        <pt x="193" y="334" on="1"/>
        <pt x="162" y="334" on="0"/>
        <pt x="146" y="308" on="0"/>
        <pt x="146" y="277" on="1"/>
        <pt x="146" y="115" on="1"/>
        <pt x="146" y="84" on="0"/>
        <pt x="162" y="58" on="0"/>
        <pt x="193" y="58" on="1"/>
        <pt x="245" y="58" on="1"/>
        <pt x="245" y="27" on="1"/>
        <pt x="245" y="11" on="0"/>
        <pt x="236" y="0" on="0"/>
        <pt x="220" y="0" on="1"/>
        <pt x="161" y="0" on="1"/>
        <pt x="109" y="0" on="0"/>
        <pt x="66" y="43" on="0"/>
        <pt x="66" y="95" on="1"/>
        <pt x="66" y="277" on="1"/>
        <pt x="66" y="353" on="0"/>
        <pt x="121" y="367" on="1"/>
        <pt x="121" y="369" on="1"/>
        <pt x="92" y="376" on="0"/>
        <pt x="66" y="418" on="0"/>
        <pt x="66" y="459" on="1"/>
        <pt x="66" y="605" on="1"/>
        <pt x="66" y="657" on="0"/>
        <pt x="109" y="700" on="0"/>
        <pt x="161" y="700" on="1"/>
        <pt x="289" y="700" on="1"/>
        <pt x="318" y="700" on="0"/>
        <pt x="337" y="671" on="0"/>
        <pt x="339" y="642" on="1"/>
        <pt x="193" y="642" on="1"/>
        <pt x="162" y="642" on="0"/>
        <pt x="146" y="616" on="0"/>
        <pt x="146" y="585" on="1"/>
        <pt x="146" y="449" on="1"/>
        <pt x="146" y="418" on="0"/>
        <pt x="162" y="392" on="0"/>
        <pt x="193" y="392" on="1"/>
        <pt x="285" y="392" on="1"/>
        <pt x="285" y="423" on="1"/>
        <pt x="285" y="439" on="0"/>
        <pt x="296" y="450" on="0"/>
        <pt x="312" y="450" on="1"/>
        <pt x="359" y="450" on="1"/>
        <pt x="359" y="392" on="1"/>
        <pt x="397" y="392" on="1"/>
        <pt x="413" y="392" on="0"/>
        <pt x="422" y="381" on="0"/>
        <pt x="422" y="365" on="1"/>
      </contour>
    </TTGlyph>
    <TTGlyph name="aring" xMin="51" yMin="0" xMax="371" yMax="728">
      <component glyphName="a" x="0" y="0" flags="0x204"/>
      <component glyphName="ring" x="91" y="0" flags="0x4"/>
    </TTGlyph>
    <TTGlyph name="asciicircum" xMin="26" yMin="568" xMax="291" yMax="700">
      <component glyphName="circumflex" x="-27" y="0" flags="0x4"/>
    </TTGlyph>
    <TTGlyph name="asciitilde" xMin="49" yMin="274" xMax="409" yMax="450">
      <contour>
        <pt x="192" y="358" on="1"/>
        <pt x="180" y="370" on="0"/>
        <pt x="160" y="384" on="0"/>
        <pt x="150" y="384" on="1"/>
        <pt x="136" y="384" on="0"/>
        <pt x="118" y="366" on="1"/>
        <pt x="66" y="314" on="1"/>
        <pt x="49" y="339" on="0"/>
        <pt x="49" y="359" on="1"/>
        <pt x="49" y="379" on="0"/>
        <pt x="68" y="397" on="1"/>
        <pt x="84" y="414" on="1"/>
        <pt x="120" y="450" on="0"/>
        <pt x="151" y="450" on="1"/>
        <pt x="182" y="450" on="0"/>
        <pt x="218" y="414" on="1"/>
        <pt x="266" y="366" on="1"/>
        <pt x="278" y="354" on="0"/>
        <pt x="298" y="340" on="0"/>
        <pt x="308" y="340" on="1"/>
        <pt x="322" y="340" on="0"/>
        <pt x="340" y="358" on="1"/>
        <pt x="392" y="410" on="1"/>
        <pt x="409" y="385" on="0"/>
        <pt x="409" y="365" on="1"/>
        <pt x="409" y="345" on="0"/>
        <pt x="390" y="327" on="1"/>
        <pt x="374" y="310" on="1"/>
        <pt x="336" y="274" on="0"/>
        <pt x="307" y="274" on="1"/>
        <pt x="276" y="274" on="0"/>
        <pt x="240" y="310" on="1"/>
      </contour>
    </TTGlyph>
    <TTGlyph name="asterisk" xMin="50" yMin="362" xMax="390" yMax="721">
      <contour>
        <pt x="79" y="656" on="1"/>
        <pt x="191" y="591" on="1"/>
        <pt x="191" y="694" on="1"/>
        <pt x="191" y="710" on="0"/>
        <pt x="202" y="721" on="0"/>
        <pt x="218" y="721" on="1"/>
        <pt x="249" y="721" on="1"/>
        <pt x="249" y="591" on="1"/>
        <pt x="338" y="643" on="1"/>
        <pt x="352" y="651" on="0"/>
        <pt x="366" y="647" on="0"/>
        <pt x="374" y="633" on="1"/>
        <pt x="390" y="606" on="1"/>
        <pt x="278" y="541" on="1"/>
        <pt x="367" y="490" on="1"/>
        <pt x="381" y="482" on="0"/>
        <pt x="384" y="467" on="0"/>
        <pt x="376" y="453" on="1"/>
        <pt x="361" y="427" on="1"/>
        <pt x="249" y="491" on="1"/>
        <pt x="249" y="389" on="1"/>
        <pt x="249" y="373" on="0"/>
        <pt x="238" y="362" on="0"/>
        <pt x="222" y="362" on="1"/>
        <pt x="191" y="362" on="1"/>
        <pt x="191" y="491" on="1"/>
        <pt x="102" y="440" on="1"/>
        <pt x="88" y="432" on="0"/>
        <pt x="74" y="436" on="0"/>
        <pt x="66" y="450" on="1"/>
        <pt x="50" y="477" on="1"/>
        <pt x="162" y="541" on="1"/>
        <pt x="73" y="593" on="1"/>
        <pt x="59" y="601" on="0"/>
        <pt x="56" y="616" on="0"/>
        <pt x="64" y="630" on="1"/>
      </contour>
    </TTGlyph>
    <TTGlyph name="at" xMin="66" yMin="0" xMax="435" yMax="497">
      <contour>
        <pt x="304" y="128" on="1"/>
        <pt x="252" y="128" on="0"/>
        <pt x="209" y="171" on="0"/>
        <pt x="209" y="223" on="1"/>
        <pt x="209" y="274" on="1"/>
        <pt x="209" y="326" on="0"/>
        <pt x="252" y="369" on="0"/>
        <pt x="304" y="369" on="1"/>
        <pt x="362" y="369" on="1"/>
        <pt x="362" y="382" on="1"/>
        <pt x="362" y="411" on="0"/>
        <pt x="347" y="437" on="0"/>
        <pt x="321" y="439" on="1"/>
        <pt x="188" y="439" on="1"/>
        <pt x="157" y="439" on="0"/>
        <pt x="141" y="413" on="0"/>
        <pt x="141" y="382" on="1"/>
        <pt x="141" y="115" on="1"/>
        <pt x="141" y="84" on="0"/>
        <pt x="157" y="58" on="0"/>
        <pt x="188" y="58" on="1"/>
        <pt x="425" y="58" on="1"/>
        <pt x="425" y="27" on="1"/>
        <pt x="425" y="11" on="0"/>
        <pt x="414" y="0" on="0"/>
        <pt x="398" y="0" on="1"/>
        <pt x="161" y="0" on="1"/>
        <pt x="109" y="0" on="0"/>
        <pt x="66" y="43" on="0"/>
        <pt x="66" y="95" on="1"/>
        <pt x="66" y="402" on="1"/>
        <pt x="66" y="454" on="0"/>
        <pt x="109" y="497" on="0"/>
        <pt x="161" y="497" on="1"/>
        <pt x="350" y="497" on="1"/>
        <pt x="400" y="496" on="0"/>
        <pt x="435" y="453" on="0"/>
        <pt x="435" y="402" on="1"/>
        <pt x="435" y="128" on="1"/>
        <pt x="389" y="128" on="1"/>
        <pt x="373" y="128" on="0"/>
        <pt x="362" y="139" on="0"/>
        <pt x="362" y="155" on="1"/>
        <pt x="362" y="311" on="1"/>
        <pt x="325" y="311" on="1"/>
        <pt x="309" y="311" on="0"/>
        <pt x="290" y="307" on="0"/>
        <pt x="281" y="295" on="0"/>
        <pt x="279" y="272" on="0"/>
        <pt x="279" y="254" on="1"/>
        <pt x="279" y="243" on="1"/>
        <pt x="279" y="225" on="0"/>
        <pt x="282" y="202" on="0"/>
        <pt x="292" y="190" on="0"/>
        <pt x="311" y="186" on="0"/>
        <pt x="326" y="186" on="1"/>
        <pt x="331" y="186" on="1"/>
        <pt x="331" y="155" on="1"/>
        <pt x="331" y="139" on="0"/>
        <pt x="322" y="128" on="0"/>
        <pt x="306" y="128" on="1"/>
      </contour>
    </TTGlyph>
    <TTGlyph name="atilde" xMin="51" yMin="0" xMax="371" yMax="703">
      <component glyphName="a" x="0" y="0" flags="0x204"/>
      <component glyphName="tilde" x="27" y="0" flags="0x4"/>
    </TTGlyph>
    <TTGlyph name="b" xMin="66" yMin="0" xMax="396" yMax="700">
      <contour>
        <pt x="301" y="508" on="1"/>
        <pt x="353" y="508" on="0"/>
        <pt x="396" y="465" on="0"/>
        <pt x="396" y="413" on="1"/>
        <pt x="396" y="95" on="1"/>
        <pt x="396" y="43" on="0"/>
        <pt x="353" y="0" on="0"/>
        <pt x="301" y="0" on="1"/>
        <pt x="206" y="0" on="1"/>
        <pt x="177" y="0" on="0"/>
        <pt x="152" y="29" on="0"/>
        <pt x="146" y="58" on="1"/>
        <pt x="146" y="27" on="1"/>
        <pt x="146" y="11" on="0"/>
        <pt x="135" y="0" on="0"/>
        <pt x="119" y="0" on="1"/>
        <pt x="66" y="0" on="1"/>
        <pt x="66" y="673" on="1"/>
        <pt x="66" y="689" on="0"/>
        <pt x="77" y="700" on="0"/>
        <pt x="93" y="700" on="1"/>
        <pt x="146" y="700" on="1"/>
        <pt x="146" y="58" on="1"/>
        <pt x="269" y="58" on="1"/>
        <pt x="300" y="58" on="0"/>
        <pt x="316" y="84" on="0"/>
        <pt x="316" y="115" on="1"/>
        <pt x="316" y="393" on="1"/>
        <pt x="316" y="424" on="0"/>
        <pt x="300" y="450" on="0"/>
        <pt x="269" y="450" on="1"/>
        <pt x="186" y="450" on="1"/>
        <pt x="186" y="481" on="1"/>
        <pt x="186" y="497" on="0"/>
        <pt x="195" y="508" on="0"/>
        <pt x="211" y="508" on="1"/>
      </contour>
    </TTGlyph>
    <TTGlyph name="backslash" xMin="40" yMin="-121" xMax="347" yMax="760">
      <contour>
        <pt x="114" y="760" on="1"/>
        <pt x="342" y="-94" on="1"/>
        <pt x="347" y="-110" on="0"/>
        <pt x="338" y="-121" on="0"/>
        <pt x="322" y="-121" on="1"/>
        <pt x="273" y="-121" on="1"/>
        <pt x="45" y="733" on="1"/>
        <pt x="40" y="749" on="0"/>
        <pt x="49" y="760" on="0"/>
        <pt x="65" y="760" on="1"/>
      </contour>
    </TTGlyph>
    <TTGlyph name="bar" xMin="74" yMin="-128" xMax="150" yMax="760">
      <contour>
        <pt x="150" y="760" on="1"/>
        <pt x="150" y="-101" on="1"/>
        <pt x="150" y="-117" on="0"/>
        <pt x="139" y="-128" on="0"/>
        <pt x="123" y="-128" on="1"/>
        <pt x="74" y="-128" on="1"/>
        <pt x="74" y="733" on="1"/>
        <pt x="74" y="749" on="0"/>
        <pt x="85" y="760" on="0"/>
        <pt x="101" y="760" on="1"/>
      </contour>
    </TTGlyph>
    <TTGlyph name="braceleft" xMin="22" yMin="-128" xMax="327" yMax="760">
      <contour>
        <pt x="207" y="-13" on="1"/>
        <pt x="207" y="-44" on="0"/>
        <pt x="233" y="-70" on="0"/>
        <pt x="264" y="-70" on="1"/>
        <pt x="302" y="-70" on="1"/>
        <pt x="318" y="-70" on="0"/>
        <pt x="327" y="-81" on="0"/>
        <pt x="327" y="-97" on="1"/>
        <pt x="327" y="-128" on="1"/>
        <pt x="222" y="-128" on="1"/>
        <pt x="170" y="-128" on="0"/>
        <pt x="127" y="-85" on="0"/>
        <pt x="127" y="-33" on="1"/>
        <pt x="127" y="231" on="1"/>
        <pt x="127" y="251" on="0"/>
        <pt x="122" y="274" on="0"/>
        <pt x="109" y="285" on="0"/>
        <pt x="86" y="287" on="0"/>
        <pt x="68" y="287" on="1"/>
        <pt x="48" y="287" on="1"/>
        <pt x="31" y="286" on="0"/>
        <pt x="22" y="300" on="0"/>
        <pt x="22" y="316" on="1"/>
        <pt x="22" y="332" on="0"/>
        <pt x="31" y="345" on="0"/>
        <pt x="48" y="345" on="1"/>
        <pt x="69" y="345" on="1"/>
        <pt x="87" y="345" on="0"/>
        <pt x="110" y="348" on="0"/>
        <pt x="123" y="360" on="0"/>
        <pt x="127" y="382" on="0"/>
        <pt x="127" y="401" on="1"/>
        <pt x="127" y="665" on="1"/>
        <pt x="127" y="717" on="0"/>
        <pt x="170" y="760" on="0"/>
        <pt x="222" y="760" on="1"/>
        <pt x="327" y="760" on="1"/>
        <pt x="327" y="729" on="1"/>
        <pt x="327" y="713" on="0"/>
        <pt x="318" y="702" on="0"/>
        <pt x="302" y="702" on="1"/>
        <pt x="264" y="702" on="1"/>
        <pt x="233" y="702" on="0"/>
        <pt x="207" y="676" on="0"/>
        <pt x="207" y="645" on="1"/>
        <pt x="207" y="411" on="1"/>
        <pt x="207" y="364" on="0"/>
        <pt x="183" y="319" on="0"/>
        <pt x="151" y="317" on="1"/>
        <pt x="151" y="315" on="1"/>
        <pt x="183" y="313" on="0"/>
        <pt x="207" y="270" on="0"/>
        <pt x="207" y="221" on="1"/>
      </contour>
    </TTGlyph>
    <TTGlyph name="braceright" xMin="36" yMin="-128" xMax="341" yMax="760">
      <contour>
        <pt x="156" y="221" on="1"/>
        <pt x="156" y="270" on="0"/>
        <pt x="180" y="313" on="0"/>
        <pt x="212" y="315" on="1"/>
        <pt x="212" y="317" on="1"/>
        <pt x="180" y="319" on="0"/>
        <pt x="156" y="364" on="0"/>
        <pt x="156" y="411" on="1"/>
        <pt x="156" y="645" on="1"/>
        <pt x="156" y="676" on="0"/>
        <pt x="130" y="702" on="0"/>
        <pt x="99" y="702" on="1"/>
        <pt x="61" y="702" on="1"/>
        <pt x="45" y="702" on="0"/>
        <pt x="36" y="713" on="0"/>
        <pt x="36" y="729" on="1"/>
        <pt x="36" y="760" on="1"/>
        <pt x="141" y="760" on="1"/>
        <pt x="193" y="760" on="0"/>
        <pt x="236" y="717" on="0"/>
        <pt x="236" y="665" on="1"/>
        <pt x="236" y="401" on="1"/>
        <pt x="236" y="382" on="0"/>
        <pt x="240" y="360" on="0"/>
        <pt x="253" y="348" on="0"/>
        <pt x="276" y="345" on="0"/>
        <pt x="294" y="345" on="1"/>
        <pt x="315" y="345" on="1"/>
        <pt x="332" y="345" on="0"/>
        <pt x="341" y="332" on="0"/>
        <pt x="341" y="316" on="1"/>
        <pt x="341" y="300" on="0"/>
        <pt x="332" y="286" on="0"/>
        <pt x="315" y="287" on="1"/>
        <pt x="295" y="287" on="1"/>
        <pt x="277" y="287" on="0"/>
        <pt x="254" y="285" on="0"/>
        <pt x="241" y="274" on="0"/>
        <pt x="236" y="251" on="0"/>
        <pt x="236" y="231" on="1"/>
        <pt x="236" y="-33" on="1"/>
        <pt x="236" y="-85" on="0"/>
        <pt x="193" y="-128" on="0"/>
        <pt x="141" y="-128" on="1"/>
        <pt x="36" y="-128" on="1"/>
        <pt x="36" y="-97" on="1"/>
        <pt x="36" y="-81" on="0"/>
        <pt x="45" y="-70" on="0"/>
        <pt x="61" y="-70" on="1"/>
        <pt x="99" y="-70" on="1"/>
        <pt x="130" y="-70" on="0"/>
        <pt x="156" y="-44" on="0"/>
        <pt x="156" y="-13" on="1"/>
      </contour>
    </TTGlyph>
    <TTGlyph name="bracketleft" xMin="74" yMin="-130" xMax="280" yMax="760">
      <contour>
        <pt x="74" y="-130" on="1"/>
        <pt x="74" y="733" on="1"/>
        <pt x="74" y="749" on="0"/>
        <pt x="85" y="760" on="0"/>
        <pt x="101" y="760" on="1"/>
        <pt x="280" y="760" on="1"/>
        <pt x="280" y="729" on="1"/>
        <pt x="280" y="713" on="0"/>
        <pt x="269" y="702" on="0"/>
        <pt x="253" y="702" on="1"/>
        <pt x="154" y="702" on="1"/>
        <pt x="154" y="-72" on="1"/>
        <pt x="280" y="-72" on="1"/>
        <pt x="280" y="-103" on="1"/>
        <pt x="280" y="-119" on="0"/>
        <pt x="269" y="-130" on="0"/>
        <pt x="253" y="-130" on="1"/>
      </contour>
    </TTGlyph>
    <TTGlyph name="bracketright" xMin="38" yMin="-130" xMax="244" yMax="760">
      <contour>
        <pt x="65" y="-130" on="1"/>
        <pt x="49" y="-130" on="0"/>
        <pt x="38" y="-119" on="0"/>
        <pt x="38" y="-103" on="1"/>
        <pt x="38" y="-72" on="1"/>
        <pt x="164" y="-72" on="1"/>
        <pt x="164" y="702" on="1"/>
        <pt x="65" y="702" on="1"/>
        <pt x="49" y="702" on="0"/>
        <pt x="38" y="713" on="0"/>
        <pt x="38" y="729" on="1"/>
        <pt x="38" y="760" on="1"/>
        <pt x="217" y="760" on="1"/>
        <pt x="233" y="760" on="0"/>
        <pt x="244" y="749" on="0"/>
        <pt x="244" y="733" on="1"/>
        <pt x="244" y="-130" on="1"/>
      </contour>
    </TTGlyph>
    <TTGlyph name="brokenbar" xMin="75" yMin="-240" xMax="150" yMax="760">
      <contour>
        <pt x="150" y="170" on="1"/>
        <pt x="150" y="-213" on="1"/>
        <pt x="150" y="-229" on="0"/>
        <pt x="139" y="-240" on="0"/>
        <pt x="123" y="-240" on="1"/>
        <pt x="75" y="-240" on="1"/>
        <pt x="75" y="143" on="1"/>
        <pt x="75" y="159" on="0"/>
        <pt x="86" y="170" on="0"/>
        <pt x="102" y="170" on="1"/>
      </contour>
      <contour>
        <pt x="150" y="760" on="1"/>
        <pt x="150" y="377" on="1"/>
        <pt x="150" y="361" on="0"/>
        <pt x="139" y="350" on="0"/>
        <pt x="123" y="350" on="1"/>
        <pt x="75" y="350" on="1"/>
        <pt x="75" y="733" on="1"/>
        <pt x="75" y="749" on="0"/>
        <pt x="86" y="760" on="0"/>
        <pt x="102" y="760" on="1"/>
      </contour>
    </TTGlyph>
    <TTGlyph name="bullet" xMin="54" yMin="258" xMax="232" yMax="454">
      <contour>
        <pt x="54" y="356" on="1"/>
        <pt x="54" y="412" on="0"/>
        <pt x="105" y="454" on="0"/>
        <pt x="143" y="454" on="1"/>
        <pt x="180" y="454" on="0"/>
        <pt x="232" y="411" on="0"/>
        <pt x="232" y="356" on="1"/>
        <pt x="232" y="301" on="0"/>
        <pt x="180" y="258" on="0"/>
        <pt x="143" y="258" on="1"/>
        <pt x="105" y="258" on="0"/>
        <pt x="54" y="301" on="0"/>
      </contour>
    </TTGlyph>
    <TTGlyph name="c" xMin="63" yMin="0" xMax="313" yMax="508">
      <contour>
        <pt x="288" y="508" on="1"/>
        <pt x="304" y="508" on="0"/>
        <pt x="313" y="497" on="0"/>
        <pt x="313" y="481" on="1"/>
        <pt x="313" y="450" on="1"/>
        <pt x="190" y="450" on="1"/>
        <pt x="159" y="450" on="0"/>
        <pt x="143" y="424" on="0"/>
        <pt x="143" y="393" on="1"/>
        <pt x="143" y="115" on="1"/>
        <pt x="143" y="84" on="0"/>
        <pt x="159" y="58" on="0"/>
        <pt x="190" y="58" on="1"/>
        <pt x="313" y="58" on="1"/>
        <pt x="313" y="27" on="1"/>
        <pt x="313" y="11" on="0"/>
        <pt x="304" y="0" on="0"/>
        <pt x="288" y="0" on="1"/>
        <pt x="158" y="0" on="1"/>
        <pt x="106" y="0" on="0"/>
        <pt x="63" y="43" on="0"/>
        <pt x="63" y="95" on="1"/>
        <pt x="63" y="413" on="1"/>
        <pt x="63" y="465" on="0"/>
        <pt x="106" y="508" on="0"/>
        <pt x="158" y="508" on="1"/>
      </contour>
    </TTGlyph>
    <TTGlyph name="caron" xMin="58" yMin="589" xMax="323" yMax="721">
      <contour>
        <pt x="65" y="696" on="1"/>
        <pt x="58" y="704" on="0"/>
        <pt x="66" y="721" on="0"/>
        <pt x="80" y="721" on="1"/>
        <pt x="107" y="721" on="1"/>
        <pt x="192" y="637" on="1"/>
        <pt x="277" y="721" on="1"/>
        <pt x="301" y="721" on="1"/>
        <pt x="315" y="721" on="0"/>
        <pt x="323" y="704" on="0"/>
        <pt x="316" y="696" on="1"/>
        <pt x="243" y="607" on="1"/>
        <pt x="228" y="589" on="0"/>
        <pt x="210" y="589" on="1"/>
        <pt x="151" y="589" on="1"/>
      </contour>
    </TTGlyph>
    <TTGlyph name="ccedilla" xMin="63" yMin="-100" xMax="313" yMax="508">
      <contour>
        <pt x="288" y="508" on="1"/>
        <pt x="304" y="508" on="0"/>
        <pt x="313" y="497" on="0"/>
        <pt x="313" y="481" on="1"/>
        <pt x="313" y="450" on="1"/>
        <pt x="190" y="450" on="1"/>
        <pt x="159" y="450" on="0"/>
        <pt x="143" y="424" on="0"/>
        <pt x="143" y="393" on="1"/>
        <pt x="143" y="115" on="1"/>
        <pt x="143" y="84" on="0"/>
        <pt x="159" y="58" on="0"/>
        <pt x="190" y="58" on="1"/>
        <pt x="313" y="58" on="1"/>
        <pt x="313" y="27" on="1"/>
        <pt x="313" y="11" on="0"/>
        <pt x="304" y="0" on="0"/>
        <pt x="288" y="0" on="1"/>
        <pt x="232" y="0" on="1"/>
        <pt x="232" y="-73" on="1"/>
        <pt x="232" y="-89" on="0"/>
        <pt x="221" y="-100" on="0"/>
        <pt x="205" y="-100" on="1"/>
        <pt x="174" y="-100" on="1"/>
        <pt x="174" y="0" on="1"/>
        <pt x="158" y="0" on="1"/>
        <pt x="106" y="0" on="0"/>
        <pt x="63" y="43" on="0"/>
        <pt x="63" y="95" on="1"/>
        <pt x="63" y="413" on="1"/>
        <pt x="63" y="465" on="0"/>
        <pt x="106" y="508" on="0"/>
        <pt x="158" y="508" on="1"/>
      </contour>
    </TTGlyph>
    <TTGlyph name="cedilla" xMin="102" yMin="-100" xMax="160" yMax="31">
      <contour>
        <pt x="160" y="31" on="1"/>
        <pt x="160" y="-73" on="1"/>
        <pt x="160" y="-89" on="0"/>
        <pt x="149" y="-100" on="0"/>
        <pt x="133" y="-100" on="1"/>
        <pt x="102" y="-100" on="1"/>
        <pt x="102" y="4" on="1"/>
        <pt x="102" y="20" on="0"/>
        <pt x="113" y="31" on="0"/>
        <pt x="129" y="31" on="1"/>
      </contour>
    </TTGlyph>
    <TTGlyph name="cent" xMin="71" yMin="0" xMax="365" yMax="681">
      <contour>
        <pt x="151" y="195" on="1"/>
        <pt x="151" y="164" on="0"/>
        <pt x="167" y="138" on="0"/>
        <pt x="198" y="138" on="1"/>
        <pt x="365" y="138" on="1"/>
        <pt x="359" y="109" on="0"/>
        <pt x="334" y="80" on="0"/>
        <pt x="305" y="80" on="1"/>
        <pt x="264" y="80" on="1"/>
        <pt x="264" y="27" on="1"/>
        <pt x="264" y="11" on="0"/>
        <pt x="253" y="0" on="0"/>
        <pt x="237" y="0" on="1"/>
        <pt x="184" y="0" on="1"/>
        <pt x="184" y="80" on="1"/>
        <pt x="166" y="80" on="1"/>
        <pt x="114" y="80" on="0"/>
        <pt x="71" y="123" on="0"/>
        <pt x="71" y="175" on="1"/>
        <pt x="71" y="493" on="1"/>
        <pt x="71" y="545" on="0"/>
        <pt x="114" y="588" on="0"/>
        <pt x="166" y="588" on="1"/>
        <pt x="184" y="588" on="1"/>
        <pt x="184" y="654" on="1"/>
        <pt x="184" y="670" on="0"/>
        <pt x="195" y="681" on="0"/>
        <pt x="211" y="681" on="1"/>
        <pt x="264" y="681" on="1"/>
        <pt x="264" y="588" on="1"/>
        <pt x="305" y="588" on="1"/>
        <pt x="334" y="588" on="0"/>
        <pt x="359" y="559" on="0"/>
        <pt x="365" y="530" on="1"/>
        <pt x="198" y="530" on="1"/>
        <pt x="167" y="530" on="0"/>
        <pt x="151" y="504" on="0"/>
        <pt x="151" y="473" on="1"/>
      </contour>
    </TTGlyph>
    <TTGlyph name="circumflex" xMin="53" yMin="568" xMax="318" yMax="700">
      <contour>
        <pt x="311" y="593" on="1"/>
        <pt x="318" y="585" on="0"/>
        <pt x="310" y="568" on="0"/>
        <pt x="296" y="568" on="1"/>
        <pt x="269" y="568" on="1"/>
        <pt x="184" y="652" on="1"/>
        <pt x="99" y="568" on="1"/>
        <pt x="75" y="568" on="1"/>
        <pt x="61" y="568" on="0"/>
        <pt x="53" y="585" on="0"/>
        <pt x="60" y="593" on="1"/>
        <pt x="133" y="682" on="1"/>
        <pt x="148" y="700" on="0"/>
        <pt x="166" y="700" on="1"/>
        <pt x="225" y="700" on="1"/>
      </contour>
    </TTGlyph>
    <TTGlyph name="colon" xMin="66" yMin="0" xMax="154" yMax="450">
      <contour>
        <pt x="154" y="0" on="1"/>
        <pt x="93" y="0" on="1"/>
        <pt x="77" y="0" on="0"/>
        <pt x="66" y="11" on="0"/>
        <pt x="66" y="27" on="1"/>
        <pt x="66" y="80" on="1"/>
        <pt x="127" y="80" on="1"/>
        <pt x="143" y="80" on="0"/>
        <pt x="154" y="69" on="0"/>
        <pt x="154" y="53" on="1"/>
      </contour>
      <contour>
        <pt x="154" y="370" on="1"/>
        <pt x="93" y="370" on="1"/>
        <pt x="77" y="370" on="0"/>
        <pt x="66" y="381" on="0"/>
        <pt x="66" y="397" on="1"/>
        <pt x="66" y="450" on="1"/>
        <pt x="127" y="450" on="1"/>
        <pt x="143" y="450" on="0"/>
        <pt x="154" y="439" on="0"/>
        <pt x="154" y="423" on="1"/>
      </contour>
    </TTGlyph>
    <TTGlyph name="comma" xMin="65" yMin="-136" xMax="153" yMax="80">
      <contour>
        <pt x="95" y="0" on="1"/>
        <pt x="92" y="0" on="1"/>
        <pt x="76" y="0" on="0"/>
        <pt x="65" y="11" on="0"/>
        <pt x="65" y="27" on="1"/>
        <pt x="65" y="80" on="1"/>
        <pt x="126" y="80" on="1"/>
        <pt x="142" y="80" on="0"/>
        <pt x="153" y="69" on="0"/>
        <pt x="153" y="53" on="1"/>
        <pt x="153" y="-32" on="1"/>
        <pt x="153" y="-48" on="0"/>
        <pt x="146" y="-82" on="0"/>
        <pt x="131" y="-112" on="0"/>
        <pt x="109" y="-133" on="0"/>
        <pt x="95" y="-136" on="1"/>
      </contour>
    </TTGlyph>
    <TTGlyph name="copyright" xMin="70" yMin="0" xMax="604" yMax="700">
      <contour>
        <pt x="150" y="115" on="1"/>
        <pt x="150" y="84" on="0"/>
        <pt x="166" y="58" on="0"/>
        <pt x="197" y="58" on="1"/>
        <pt x="477" y="58" on="1"/>
        <pt x="508" y="58" on="0"/>
        <pt x="524" y="84" on="0"/>
        <pt x="524" y="115" on="1"/>
        <pt x="524" y="585" on="1"/>
        <pt x="524" y="616" on="0"/>
        <pt x="508" y="642" on="0"/>
        <pt x="477" y="642" on="1"/>
        <pt x="197" y="642" on="1"/>
        <pt x="166" y="642" on="0"/>
        <pt x="150" y="616" on="0"/>
        <pt x="150" y="585" on="1"/>
      </contour>
      <contour>
        <pt x="70" y="605" on="1"/>
        <pt x="70" y="657" on="0"/>
        <pt x="113" y="700" on="0"/>
        <pt x="165" y="700" on="1"/>
        <pt x="509" y="700" on="1"/>
        <pt x="561" y="700" on="0"/>
        <pt x="604" y="657" on="0"/>
        <pt x="604" y="605" on="1"/>
        <pt x="604" y="95" on="1"/>
        <pt x="604" y="43" on="0"/>
        <pt x="561" y="0" on="0"/>
        <pt x="509" y="0" on="1"/>
        <pt x="165" y="0" on="1"/>
        <pt x="113" y="0" on="0"/>
        <pt x="70" y="43" on="0"/>
        <pt x="70" y="95" on="1"/>
      </contour>
      <contour>
        <pt x="425" y="585" on="1"/>
        <pt x="441" y="585" on="0"/>
        <pt x="450" y="574" on="0"/>
        <pt x="450" y="558" on="1"/>
        <pt x="450" y="527" on="1"/>
        <pt x="337" y="527" on="1"/>
        <pt x="306" y="527" on="0"/>
        <pt x="290" y="501" on="0"/>
        <pt x="290" y="470" on="1"/>
        <pt x="290" y="232" on="1"/>
        <pt x="290" y="201" on="0"/>
        <pt x="306" y="175" on="0"/>
        <pt x="337" y="175" on="1"/>
        <pt x="450" y="175" on="1"/>
        <pt x="450" y="144" on="1"/>
        <pt x="450" y="128" on="0"/>
        <pt x="441" y="117" on="0"/>
        <pt x="425" y="117" on="1"/>
        <pt x="305" y="117" on="1"/>
        <pt x="253" y="117" on="0"/>
        <pt x="210" y="160" on="0"/>
        <pt x="210" y="212" on="1"/>
        <pt x="210" y="490" on="1"/>
        <pt x="210" y="542" on="0"/>
        <pt x="253" y="585" on="0"/>
        <pt x="305" y="585" on="1"/>
      </contour>
    </TTGlyph>
    <TTGlyph name="currency" xMin="54" yMin="183" xMax="455" yMax="623">
      <contour>
        <pt x="54" y="232" on="1"/>
        <pt x="115" y="293" on="1"/>
        <pt x="108" y="313" on="0"/>
        <pt x="108" y="345" on="1"/>
        <pt x="108" y="465" on="1"/>
        <pt x="108" y="485" on="0"/>
        <pt x="111" y="502" on="1"/>
        <pt x="66" y="548" on="1"/>
        <pt x="55" y="559" on="0"/>
        <pt x="55" y="575" on="0"/>
        <pt x="66" y="586" on="1"/>
        <pt x="103" y="623" on="1"/>
        <pt x="169" y="557" on="1"/>
        <pt x="184" y="560" on="0"/>
        <pt x="203" y="560" on="1"/>
        <pt x="301" y="560" on="1"/>
        <pt x="308" y="560" on="0"/>
        <pt x="321" y="559" on="0"/>
        <pt x="327" y="558" on="1"/>
        <pt x="380" y="611" on="1"/>
        <pt x="391" y="622" on="0"/>
        <pt x="407" y="622" on="0"/>
        <pt x="418" y="611" on="1"/>
        <pt x="455" y="574" on="1"/>
        <pt x="390" y="509" on="1"/>
        <pt x="396" y="491" on="0"/>
        <pt x="396" y="465" on="1"/>
        <pt x="396" y="345" on="1"/>
        <pt x="396" y="323" on="0"/>
        <pt x="392" y="308" on="1"/>
        <pt x="443" y="258" on="1"/>
        <pt x="454" y="247" on="0"/>
        <pt x="454" y="231" on="0"/>
        <pt x="443" y="220" on="1"/>
        <pt x="406" y="183" on="1"/>
        <pt x="336" y="253" on="1"/>
        <pt x="321" y="250" on="0"/>
        <pt x="301" y="250" on="1"/>
        <pt x="203" y="250" on="1"/>
        <pt x="190" y="250" on="0"/>
        <pt x="185" y="251" on="1"/>
        <pt x="129" y="195" on="1"/>
        <pt x="118" y="184" on="0"/>
        <pt x="102" y="184" on="0"/>
        <pt x="91" y="195" on="1"/>
      </contour>
      <contour>
        <pt x="188" y="365" on="1"/>
        <pt x="188" y="334" on="0"/>
        <pt x="214" y="308" on="0"/>
        <pt x="245" y="308" on="1"/>
        <pt x="259" y="308" on="1"/>
        <pt x="290" y="308" on="0"/>
        <pt x="316" y="334" on="0"/>
        <pt x="316" y="365" on="1"/>
        <pt x="316" y="445" on="1"/>
        <pt x="316" y="476" on="0"/>
        <pt x="290" y="502" on="0"/>
        <pt x="259" y="502" on="1"/>
        <pt x="245" y="502" on="1"/>
        <pt x="214" y="502" on="0"/>
        <pt x="188" y="476" on="0"/>
        <pt x="188" y="445" on="1"/>
      </contour>
    </TTGlyph>
    <TTGlyph name="d" xMin="63" yMin="0" xMax="393" yMax="700">
      <contour>
        <pt x="393" y="700" on="1"/>
        <pt x="393" y="27" on="1"/>
        <pt x="393" y="11" on="0"/>
        <pt x="382" y="0" on="0"/>
        <pt x="366" y="0" on="1"/>
        <pt x="313" y="0" on="1"/>
        <pt x="313" y="673" on="1"/>
        <pt x="313" y="689" on="0"/>
        <pt x="324" y="700" on="0"/>
        <pt x="340" y="700" on="1"/>
      </contour>
      <contour>
        <pt x="158" y="0" on="1"/>
        <pt x="106" y="0" on="0"/>
        <pt x="63" y="43" on="0"/>
        <pt x="63" y="95" on="1"/>
        <pt x="63" y="413" on="1"/>
        <pt x="63" y="465" on="0"/>
        <pt x="106" y="508" on="0"/>
        <pt x="158" y="508" on="1"/>
        <pt x="253" y="508" on="1"/>
        <pt x="282" y="508" on="0"/>
        <pt x="307" y="479" on="0"/>
        <pt x="313" y="450" on="1"/>
        <pt x="190" y="450" on="1"/>
        <pt x="159" y="450" on="0"/>
        <pt x="143" y="424" on="0"/>
        <pt x="143" y="393" on="1"/>
        <pt x="143" y="115" on="1"/>
        <pt x="143" y="84" on="0"/>
        <pt x="159" y="58" on="0"/>
        <pt x="190" y="58" on="1"/>
        <pt x="273" y="58" on="1"/>
        <pt x="273" y="27" on="1"/>
        <pt x="273" y="11" on="0"/>
        <pt x="264" y="0" on="0"/>
        <pt x="248" y="0" on="1"/>
      </contour>
    </TTGlyph>
    <TTGlyph name="degree" xMin="45" yMin="411" xMax="348" yMax="714">
      <contour>
        <pt x="45" y="562" on="1"/>
        <pt x="45" y="593" on="0"/>
        <pt x="69" y="649" on="0"/>
        <pt x="110" y="690" on="0"/>
        <pt x="165" y="714" on="0"/>
        <pt x="196" y="714" on="1"/>
        <pt x="227" y="714" on="0"/>
        <pt x="283" y="690" on="0"/>
        <pt x="324" y="649" on="0"/>
        <pt x="348" y="593" on="0"/>
        <pt x="348" y="562" on="1"/>
        <pt x="348" y="531" on="0"/>
        <pt x="324" y="476" on="0"/>
        <pt x="283" y="435" on="0"/>
        <pt x="227" y="411" on="0"/>
        <pt x="196" y="411" on="1"/>
        <pt x="165" y="411" on="0"/>
        <pt x="110" y="435" on="0"/>
        <pt x="69" y="476" on="0"/>
        <pt x="45" y="531" on="0"/>
      </contour>
      <contour>
        <pt x="105" y="562" on="1"/>
        <pt x="105" y="543" on="0"/>
        <pt x="119" y="510" on="0"/>
        <pt x="144" y="485" on="0"/>
        <pt x="177" y="470" on="0"/>
        <pt x="196" y="470" on="1"/>
        <pt x="215" y="470" on="0"/>
        <pt x="249" y="485" on="0"/>
        <pt x="274" y="510" on="0"/>
        <pt x="288" y="543" on="0"/>
        <pt x="288" y="562" on="1"/>
        <pt x="288" y="581" on="0"/>
        <pt x="274" y="615" on="0"/>
        <pt x="249" y="640" on="0"/>
        <pt x="215" y="655" on="0"/>
        <pt x="196" y="655" on="1"/>
        <pt x="177" y="655" on="0"/>
        <pt x="144" y="640" on="0"/>
        <pt x="119" y="615" on="0"/>
        <pt x="105" y="581" on="0"/>
      </contour>
    </TTGlyph>
    <TTGlyph name="dieresis" xMin="60" yMin="600" xMax="282" yMax="680">
      <contour>
        <pt x="148" y="600" on="1"/>
        <pt x="87" y="600" on="1"/>
        <pt x="71" y="600" on="0"/>
        <pt x="60" y="611" on="0"/>
        <pt x="60" y="627" on="1"/>
        <pt x="60" y="680" on="1"/>
        <pt x="121" y="680" on="1"/>
        <pt x="137" y="680" on="0"/>
        <pt x="148" y="669" on="0"/>
        <pt x="148" y="653" on="1"/>
      </contour>
      <contour>
        <pt x="282" y="600" on="1"/>
        <pt x="221" y="600" on="1"/>
        <pt x="205" y="600" on="0"/>
        <pt x="194" y="611" on="0"/>
        <pt x="194" y="627" on="1"/>
        <pt x="194" y="680" on="1"/>
        <pt x="255" y="680" on="1"/>
        <pt x="271" y="680" on="0"/>
        <pt x="282" y="669" on="0"/>
        <pt x="282" y="653" on="1"/>
      </contour>
    </TTGlyph>
    <TTGlyph name="divide" xMin="68" yMin="150" xMax="368" yMax="550">
      <contour>
        <pt x="255" y="470" on="1"/>
        <pt x="194" y="470" on="1"/>
        <pt x="178" y="470" on="0"/>
        <pt x="167" y="481" on="0"/>
        <pt x="167" y="497" on="1"/>
        <pt x="167" y="550" on="1"/>
        <pt x="228" y="550" on="1"/>
        <pt x="244" y="550" on="0"/>
        <pt x="255" y="539" on="0"/>
        <pt x="255" y="523" on="1"/>
      </contour>
      <contour>
        <pt x="255" y="150" on="1"/>
        <pt x="194" y="150" on="1"/>
        <pt x="178" y="150" on="0"/>
        <pt x="167" y="161" on="0"/>
        <pt x="167" y="177" on="1"/>
        <pt x="167" y="230" on="1"/>
        <pt x="228" y="230" on="1"/>
        <pt x="244" y="230" on="0"/>
        <pt x="255" y="219" on="0"/>
        <pt x="255" y="203" on="1"/>
      </contour>
      <contour>
        <pt x="68" y="390" on="1"/>
        <pt x="341" y="390" on="1"/>
        <pt x="357" y="390" on="0"/>
        <pt x="368" y="379" on="0"/>
        <pt x="368" y="363" on="1"/>
        <pt x="368" y="332" on="1"/>
        <pt x="95" y="332" on="1"/>
        <pt x="79" y="332" on="0"/>
        <pt x="68" y="343" on="0"/>
        <pt x="68" y="359" on="1"/>
      </contour>
    </TTGlyph>
    <TTGlyph name="dollar" xMin="64" yMin="0" xMax="371" yMax="700">
      <contour>
        <pt x="114" y="80" on="1"/>
        <pt x="85" y="80" on="0"/>
        <pt x="66" y="109" on="0"/>
        <pt x="64" y="138" on="1"/>
        <pt x="244" y="138" on="1"/>
        <pt x="275" y="138" on="0"/>
        <pt x="291" y="164" on="0"/>
        <pt x="291" y="195" on="1"/>
        <pt x="291" y="277" on="1"/>
        <pt x="291" y="308" on="0"/>
        <pt x="274" y="334" on="0"/>
        <pt x="240" y="334" on="1"/>
        <pt x="159" y="334" on="1"/>
        <pt x="107" y="334" on="0"/>
        <pt x="64" y="377" on="0"/>
        <pt x="64" y="429" on="1"/>
        <pt x="64" y="515" on="1"/>
        <pt x="64" y="567" on="0"/>
        <pt x="107" y="610" on="0"/>
        <pt x="159" y="610" on="1"/>
        <pt x="187" y="610" on="1"/>
        <pt x="187" y="673" on="1"/>
        <pt x="187" y="689" on="0"/>
        <pt x="198" y="700" on="0"/>
        <pt x="214" y="700" on="1"/>
        <pt x="255" y="700" on="1"/>
        <pt x="255" y="610" on="1"/>
        <pt x="313" y="610" on="1"/>
        <pt x="342" y="610" on="0"/>
        <pt x="361" y="581" on="0"/>
        <pt x="363" y="552" on="1"/>
        <pt x="191" y="552" on="1"/>
        <pt x="160" y="552" on="0"/>
        <pt x="144" y="526" on="0"/>
        <pt x="144" y="495" on="1"/>
        <pt x="144" y="449" on="1"/>
        <pt x="144" y="418" on="0"/>
        <pt x="160" y="392" on="0"/>
        <pt x="191" y="392" on="1"/>
        <pt x="276" y="392" on="1"/>
        <pt x="328" y="392" on="0"/>
        <pt x="371" y="349" on="0"/>
        <pt x="371" y="297" on="1"/>
        <pt x="371" y="175" on="1"/>
        <pt x="371" y="123" on="0"/>
        <pt x="328" y="80" on="0"/>
        <pt x="276" y="80" on="1"/>
        <pt x="256" y="80" on="1"/>
        <pt x="256" y="27" on="1"/>
        <pt x="256" y="11" on="0"/>
        <pt x="245" y="0" on="0"/>
        <pt x="229" y="0" on="1"/>
        <pt x="190" y="0" on="1"/>
        <pt x="190" y="80" on="1"/>
      </contour>
    </TTGlyph>
    <TTGlyph name="dotlessi" xMin="65" yMin="0" xMax="145" yMax="508">
      <contour>
        <pt x="145" y="508" on="1"/>
        <pt x="145" y="27" on="1"/>
        <pt x="145" y="11" on="0"/>
        <pt x="134" y="0" on="0"/>
        <pt x="118" y="0" on="1"/>
        <pt x="65" y="0" on="1"/>
        <pt x="65" y="481" on="1"/>
        <pt x="65" y="497" on="0"/>
        <pt x="76" y="508" on="0"/>
        <pt x="92" y="508" on="1"/>
      </contour>
    </TTGlyph>
    <TTGlyph name="e" xMin="63" yMin="0" xMax="363" yMax="508">
      <contour>
        <pt x="334" y="58" on="1"/>
        <pt x="334" y="27" on="1"/>
        <pt x="334" y="11" on="0"/>
        <pt x="325" y="0" on="0"/>
        <pt x="309" y="0" on="1"/>
        <pt x="158" y="0" on="1"/>
        <pt x="106" y="0" on="0"/>
        <pt x="63" y="43" on="0"/>
        <pt x="63" y="95" on="1"/>
        <pt x="63" y="413" on="1"/>
        <pt x="63" y="465" on="0"/>
        <pt x="106" y="508" on="0"/>
        <pt x="158" y="508" on="1"/>
        <pt x="268" y="508" on="1"/>
        <pt x="320" y="508" on="0"/>
        <pt x="363" y="465" on="0"/>
        <pt x="363" y="413" on="1"/>
        <pt x="363" y="301" on="1"/>
        <pt x="363" y="249" on="0"/>
        <pt x="320" y="206" on="0"/>
        <pt x="268" y="206" on="1"/>
        <pt x="208" y="206" on="1"/>
        <pt x="192" y="206" on="0"/>
        <pt x="183" y="217" on="0"/>
        <pt x="183" y="233" on="1"/>
        <pt x="183" y="264" on="1"/>
        <pt x="241" y="264" on="1"/>
        <pt x="272" y="264" on="0"/>
        <pt x="288" y="290" on="0"/>
        <pt x="288" y="321" on="1"/>
        <pt x="288" y="398" on="1"/>
        <pt x="288" y="429" on="0"/>
        <pt x="268" y="450" on="0"/>
        <pt x="237" y="450" on="1"/>
        <pt x="194" y="450" on="1"/>
        <pt x="161" y="450" on="0"/>
        <pt x="143" y="427" on="0"/>
        <pt x="143" y="393" on="1"/>
        <pt x="143" y="115" on="1"/>
        <pt x="143" y="84" on="0"/>
        <pt x="159" y="58" on="0"/>
        <pt x="190" y="58" on="1"/>
      </contour>
    </TTGlyph>
    <TTGlyph name="eacute" xMin="63" yMin="0" xMax="363" yMax="700">
      <component glyphName="e" x="0" y="0" flags="0x4"/>
      <component glyphName="acute" x="155" y="0" flags="0x4"/>
    </TTGlyph>
    <TTGlyph name="ecircumflex" xMin="63" yMin="0" xMax="363" yMax="700">
      <component glyphName="e" x="0" y="0" flags="0x4"/>
      <component glyphName="circumflex" x="39" y="0" flags="0x4"/>
    </TTGlyph>
    <TTGlyph name="edieresis" xMin="63" yMin="0" xMax="363" yMax="680">
      <component glyphName="e" x="0" y="0" flags="0x4"/>
      <component glyphName="dieresis" x="56" y="0" flags="0x4"/>
    </TTGlyph>
    <TTGlyph name="egrave" xMin="63" yMin="0" xMax="363" yMax="700">
      <component glyphName="e" x="0" y="0" flags="0x4"/>
      <component glyphName="grave" x="47" y="0" flags="0x4"/>
    </TTGlyph>
    <TTGlyph name="eight" xMin="69" yMin="0" xMax="375" yMax="700">
      <contour>
        <pt x="295" y="277" on="1"/>
        <pt x="295" y="308" on="0"/>
        <pt x="279" y="334" on="0"/>
        <pt x="248" y="334" on="1"/>
        <pt x="196" y="334" on="1"/>
        <pt x="165" y="334" on="0"/>
        <pt x="149" y="308" on="0"/>
        <pt x="149" y="277" on="1"/>
        <pt x="149" y="115" on="1"/>
        <pt x="149" y="84" on="0"/>
        <pt x="165" y="58" on="0"/>
        <pt x="196" y="58" on="1"/>
        <pt x="248" y="58" on="1"/>
        <pt x="279" y="58" on="0"/>
        <pt x="295" y="84" on="0"/>
        <pt x="295" y="115" on="1"/>
      </contour>
      <contour>
        <pt x="295" y="589" on="1"/>
        <pt x="295" y="620" on="0"/>
        <pt x="279" y="646" on="0"/>
        <pt x="248" y="646" on="1"/>
        <pt x="196" y="646" on="1"/>
        <pt x="165" y="646" on="0"/>
        <pt x="149" y="620" on="0"/>
        <pt x="149" y="589" on="1"/>
        <pt x="149" y="449" on="1"/>
        <pt x="149" y="418" on="0"/>
        <pt x="165" y="392" on="0"/>
        <pt x="196" y="392" on="1"/>
        <pt x="248" y="392" on="1"/>
        <pt x="279" y="392" on="0"/>
        <pt x="295" y="418" on="0"/>
        <pt x="295" y="449" on="1"/>
      </contour>
      <contour>
        <pt x="69" y="277" on="1"/>
        <pt x="69" y="354" on="0"/>
        <pt x="124" y="368" on="1"/>
        <pt x="124" y="369" on="1"/>
        <pt x="95" y="376" on="0"/>
        <pt x="69" y="418" on="0"/>
        <pt x="69" y="459" on="1"/>
        <pt x="69" y="605" on="1"/>
        <pt x="69" y="657" on="0"/>
        <pt x="107" y="700" on="0"/>
        <pt x="159" y="700" on="1"/>
        <pt x="285" y="700" on="1"/>
        <pt x="337" y="700" on="0"/>
        <pt x="375" y="657" on="0"/>
        <pt x="375" y="605" on="1"/>
        <pt x="375" y="459" on="1"/>
        <pt x="375" y="418" on="0"/>
        <pt x="349" y="376" on="0"/>
        <pt x="320" y="369" on="1"/>
        <pt x="320" y="368" on="1"/>
        <pt x="375" y="354" on="0"/>
        <pt x="375" y="277" on="1"/>
        <pt x="375" y="95" on="1"/>
        <pt x="375" y="43" on="0"/>
        <pt x="340" y="0" on="0"/>
        <pt x="288" y="0" on="1"/>
        <pt x="159" y="0" on="1"/>
        <pt x="107" y="0" on="0"/>
        <pt x="69" y="43" on="0"/>
        <pt x="69" y="95" on="1"/>
      </contour>
    </TTGlyph>
    <TTGlyph name="emdash" xMin="53" yMin="334" xMax="507" yMax="392">
      <contour>
        <pt x="53" y="392" on="1"/>
        <pt x="480" y="392" on="1"/>
        <pt x="496" y="392" on="0"/>
        <pt x="507" y="381" on="0"/>
        <pt x="507" y="365" on="1"/>
        <pt x="507" y="334" on="1"/>
        <pt x="80" y="334" on="1"/>
        <pt x="64" y="334" on="0"/>
        <pt x="53" y="345" on="0"/>
        <pt x="53" y="361" on="1"/>
      </contour>
    </TTGlyph>
    <TTGlyph name="endash" xMin="66" yMin="334" xMax="366" yMax="392">
      <contour>
        <pt x="66" y="392" on="1"/>
        <pt x="339" y="392" on="1"/>
        <pt x="355" y="392" on="0"/>
        <pt x="366" y="381" on="0"/>
        <pt x="366" y="365" on="1"/>
        <pt x="366" y="334" on="1"/>
        <pt x="93" y="334" on="1"/>
        <pt x="77" y="334" on="0"/>
        <pt x="66" y="345" on="0"/>
        <pt x="66" y="361" on="1"/>
      </contour>
    </TTGlyph>
    <TTGlyph name="equal" xMin="68" yMin="249" xMax="368" yMax="442">
      <contour>
        <pt x="68" y="442" on="1"/>
        <pt x="341" y="442" on="1"/>
        <pt x="357" y="442" on="0"/>
        <pt x="368" y="431" on="0"/>
        <pt x="368" y="415" on="1"/>
        <pt x="368" y="384" on="1"/>
        <pt x="95" y="384" on="1"/>
        <pt x="79" y="384" on="0"/>
        <pt x="68" y="395" on="0"/>
        <pt x="68" y="411" on="1"/>
      </contour>
      <contour>
        <pt x="68" y="307" on="1"/>
        <pt x="341" y="307" on="1"/>
        <pt x="357" y="307" on="0"/>
        <pt x="368" y="296" on="0"/>
        <pt x="368" y="280" on="1"/>
        <pt x="368" y="249" on="1"/>
        <pt x="95" y="249" on="1"/>
        <pt x="79" y="249" on="0"/>
        <pt x="68" y="260" on="0"/>
        <pt x="68" y="276" on="1"/>
      </contour>
    </TTGlyph>
    <TTGlyph name="eth" xMin="63" yMin="0" xMax="458" yMax="755">
      <contour>
        <pt x="390" y="626" on="1"/>
        <pt x="431" y="626" on="1"/>
        <pt x="447" y="626" on="0"/>
        <pt x="458" y="615" on="0"/>
        <pt x="458" y="599" on="1"/>
        <pt x="458" y="568" on="1"/>
        <pt x="390" y="568" on="1"/>
        <pt x="390" y="95" on="1"/>
        <pt x="390" y="43" on="0"/>
        <pt x="350" y="0" on="0"/>
        <pt x="298" y="0" on="1"/>
        <pt x="158" y="0" on="1"/>
        <pt x="106" y="0" on="0"/>
        <pt x="63" y="43" on="0"/>
        <pt x="63" y="95" on="1"/>
        <pt x="63" y="413" on="1"/>
        <pt x="63" y="465" on="0"/>
        <pt x="106" y="508" on="0"/>
        <pt x="158" y="508" on="1"/>
        <pt x="313" y="508" on="1"/>
        <pt x="313" y="568" on="1"/>
        <pt x="266" y="568" on="1"/>
        <pt x="250" y="568" on="0"/>
        <pt x="239" y="579" on="0"/>
        <pt x="239" y="595" on="1"/>
        <pt x="239" y="626" on="1"/>
        <pt x="313" y="626" on="1"/>
        <pt x="313" y="640" on="1"/>
        <pt x="313" y="671" on="0"/>
        <pt x="297" y="697" on="0"/>
        <pt x="266" y="697" on="1"/>
        <pt x="219" y="697" on="1"/>
        <pt x="225" y="726" on="0"/>
        <pt x="250" y="755" on="0"/>
        <pt x="279" y="755" on="1"/>
        <pt x="298" y="755" on="1"/>
        <pt x="350" y="755" on="0"/>
        <pt x="390" y="712" on="0"/>
        <pt x="390" y="660" on="1"/>
      </contour>
      <contour>
        <pt x="190" y="450" on="1"/>
        <pt x="159" y="450" on="0"/>
        <pt x="143" y="424" on="0"/>
        <pt x="143" y="393" on="1"/>
        <pt x="143" y="115" on="1"/>
        <pt x="143" y="84" on="0"/>
        <pt x="159" y="58" on="0"/>
        <pt x="190" y="58" on="1"/>
        <pt x="266" y="58" on="1"/>
        <pt x="297" y="58" on="0"/>
        <pt x="313" y="84" on="0"/>
        <pt x="313" y="115" on="1"/>
        <pt x="313" y="450" on="1"/>
      </contour>
    </TTGlyph>
    <TTGlyph name="exclam" xMin="72" yMin="0" xMax="160" yMax="700">
      <contour>
        <pt x="152" y="700" on="1"/>
        <pt x="152" y="187" on="1"/>
        <pt x="152" y="171" on="0"/>
        <pt x="141" y="160" on="0"/>
        <pt x="125" y="160" on="1"/>
        <pt x="72" y="160" on="1"/>
        <pt x="72" y="673" on="1"/>
        <pt x="72" y="689" on="0"/>
        <pt x="83" y="700" on="0"/>
        <pt x="99" y="700" on="1"/>
      </contour>
      <contour>
        <pt x="160" y="0" on="1"/>
        <pt x="99" y="0" on="1"/>
        <pt x="83" y="0" on="0"/>
        <pt x="72" y="11" on="0"/>
        <pt x="72" y="27" on="1"/>
        <pt x="72" y="80" on="1"/>
        <pt x="133" y="80" on="1"/>
        <pt x="149" y="80" on="0"/>
        <pt x="160" y="69" on="0"/>
        <pt x="160" y="53" on="1"/>
      </contour>
    </TTGlyph>
    <TTGlyph name="exclamdown" xMin="65" yMin="-250" xMax="153" yMax="450">
      <component glyphName="exclam" x="225" y="450" scale="-0.999877929688" flags="0x4"/>
    </TTGlyph>
    <TTGlyph name="f" xMin="66" yMin="0" xMax="306" yMax="700">
      <contour>
        <pt x="281" y="700" on="1"/>
        <pt x="297" y="700" on="0"/>
        <pt x="306" y="689" on="0"/>
        <pt x="306" y="673" on="1"/>
        <pt x="306" y="642" on="1"/>
        <pt x="193" y="642" on="1"/>
        <pt x="178" y="642" on="0"/>
        <pt x="159" y="638" on="0"/>
        <pt x="149" y="626" on="0"/>
        <pt x="146" y="604" on="0"/>
        <pt x="146" y="585" on="1"/>
        <pt x="146" y="508" on="1"/>
        <pt x="244" y="508" on="1"/>
        <pt x="260" y="508" on="0"/>
        <pt x="269" y="497" on="0"/>
        <pt x="269" y="481" on="1"/>
        <pt x="269" y="450" on="1"/>
        <pt x="146" y="450" on="1"/>
        <pt x="146" y="27" on="1"/>
        <pt x="146" y="11" on="0"/>
        <pt x="135" y="0" on="0"/>
        <pt x="119" y="0" on="1"/>
        <pt x="66" y="0" on="1"/>
        <pt x="66" y="605" on="1"/>
        <pt x="66" y="657" on="0"/>
        <pt x="109" y="700" on="0"/>
        <pt x="161" y="700" on="1"/>
      </contour>
    </TTGlyph>
    <TTGlyph name="five" xMin="61" yMin="0" xMax="352" yMax="700">
      <contour>
        <pt x="142" y="642" on="1"/>
        <pt x="141" y="392" on="1"/>
        <pt x="257" y="392" on="1"/>
        <pt x="309" y="392" on="0"/>
        <pt x="352" y="349" on="0"/>
        <pt x="352" y="297" on="1"/>
        <pt x="352" y="95" on="1"/>
        <pt x="352" y="43" on="0"/>
        <pt x="309" y="0" on="0"/>
        <pt x="257" y="0" on="1"/>
        <pt x="121" y="0" on="1"/>
        <pt x="92" y="0" on="0"/>
        <pt x="67" y="29" on="0"/>
        <pt x="61" y="58" on="1"/>
        <pt x="225" y="58" on="1"/>
        <pt x="256" y="58" on="0"/>
        <pt x="272" y="84" on="0"/>
        <pt x="272" y="115" on="1"/>
        <pt x="272" y="277" on="1"/>
        <pt x="272" y="308" on="0"/>
        <pt x="256" y="334" on="0"/>
        <pt x="225" y="334" on="1"/>
        <pt x="93" y="334" on="1"/>
        <pt x="77" y="334" on="0"/>
        <pt x="66" y="345" on="0"/>
        <pt x="66" y="361" on="1"/>
        <pt x="66" y="673" on="1"/>
        <pt x="66" y="689" on="0"/>
        <pt x="77" y="700" on="0"/>
        <pt x="93" y="700" on="1"/>
        <pt x="339" y="700" on="1"/>
        <pt x="339" y="669" on="1"/>
        <pt x="339" y="653" on="0"/>
        <pt x="330" y="642" on="0"/>
        <pt x="314" y="642" on="1"/>
      </contour>
    </TTGlyph>
    <TTGlyph name="foundryicon" xMin="66" yMin="138" xMax="1022" yMax="316">
      <contour>
        <pt x="1022" y="251" on="1"/>
        <pt x="1006" y="251" on="1"/>
        <pt x="1007" y="249" on="0"/>
        <pt x="1007" y="246" on="1"/>
        <pt x="1007" y="232" on="0"/>
        <pt x="985" y="211" on="0"/>
        <pt x="962" y="211" on="1"/>
        <pt x="953" y="211" on="0"/>
        <pt x="950" y="212" on="1"/>
        <pt x="950" y="197" on="1"/>
        <pt x="968" y="197" on="1"/>
        <pt x="1007" y="197" on="0"/>
        <pt x="1007" y="161" on="1"/>
        <pt x="1007" y="153" on="0"/>
        <pt x="1003" y="142" on="0"/>
        <pt x="1001" y="138" on="1"/>
        <pt x="974" y="138" on="1"/>
        <pt x="974" y="167" on="1"/>
        <pt x="928" y="167" on="1"/>
        <pt x="923" y="171" on="0"/>
        <pt x="918" y="183" on="0"/>
        <pt x="918" y="189" on="1"/>
        <pt x="918" y="207" on="0"/>
        <pt x="932" y="219" on="1"/>
        <pt x="918" y="227" on="0"/>
        <pt x="918" y="247" on="1"/>
        <pt x="918" y="263" on="0"/>
        <pt x="941" y="284" on="0"/>
        <pt x="961" y="284" on="1"/>
        <pt x="979" y="284" on="0"/>
        <pt x="992" y="274" on="1"/>
        <pt x="1000" y="284" on="0"/>
        <pt x="1011" y="284" on="1"/>
        <pt x="1015" y="284" on="0"/>
        <pt x="1019" y="283" on="0"/>
        <pt x="1022" y="282" on="1"/>
      </contour>
      <contour>
        <pt x="260" y="175" on="1"/>
        <pt x="254" y="153" on="0"/>
        <pt x="231" y="138" on="0"/>
        <pt x="217" y="138" on="1"/>
        <pt x="198" y="138" on="0"/>
        <pt x="191" y="145" on="1"/>
        <pt x="191" y="171" on="1"/>
        <pt x="208" y="171" on="1"/>
        <pt x="224" y="171" on="0"/>
        <pt x="229" y="182" on="1"/>
        <pt x="215" y="182" on="1"/>
        <pt x="191" y="251" on="1"/>
        <pt x="181" y="251" on="1"/>
        <pt x="181" y="282" on="1"/>
        <pt x="219" y="282" on="1"/>
        <pt x="233" y="233" on="1"/>
        <pt x="238" y="209" on="1"/>
        <pt x="249" y="251" on="1"/>
        <pt x="240" y="251" on="1"/>
        <pt x="240" y="282" on="1"/>
        <pt x="283" y="282" on="1"/>
        <pt x="283" y="251" on="1"/>
      </contour>
      <contour>
        <pt x="173" y="187" on="1"/>
        <pt x="155" y="179" on="0"/>
        <pt x="132" y="179" on="1"/>
        <pt x="101" y="179" on="0"/>
        <pt x="66" y="214" on="0"/>
        <pt x="66" y="245" on="1"/>
        <pt x="66" y="277" on="0"/>
        <pt x="100" y="316" on="0"/>
        <pt x="134" y="316" on="1"/>
        <pt x="143" y="316" on="0"/>
        <pt x="163" y="312" on="0"/>
        <pt x="173" y="309" on="1"/>
        <pt x="173" y="269" on="1"/>
        <pt x="142" y="269" on="1"/>
        <pt x="142" y="284" on="1"/>
        <pt x="139" y="285" on="0"/>
        <pt x="133" y="285" on="1"/>
        <pt x="119" y="285" on="0"/>
        <pt x="104" y="265" on="0"/>
        <pt x="104" y="249" on="1"/>
        <pt x="104" y="212" on="0"/>
        <pt x="141" y="212" on="1"/>
        <pt x="173" y="212" on="1"/>
      </contour>
      <contour>
        <pt x="763" y="179" on="1"/>
        <pt x="714" y="179" on="0"/>
        <pt x="714" y="231" on="1"/>
        <pt x="714" y="256" on="0"/>
        <pt x="741" y="284" on="0"/>
        <pt x="764" y="284" on="1"/>
        <pt x="787" y="284" on="0"/>
        <pt x="814" y="257" on="0"/>
        <pt x="814" y="232" on="1"/>
        <pt x="814" y="207" on="0"/>
        <pt x="787" y="179" on="0"/>
      </contour>
      <contour>
        <pt x="499" y="277" on="1"/>
        <pt x="508" y="280" on="0"/>
        <pt x="525" y="284" on="0"/>
        <pt x="535" y="284" on="1"/>
        <pt x="581" y="284" on="0"/>
        <pt x="581" y="246" on="1"/>
        <pt x="581" y="212" on="1"/>
        <pt x="592" y="212" on="1"/>
        <pt x="592" y="185" on="1"/>
        <pt x="584" y="180" on="0"/>
        <pt x="572" y="180" on="1"/>
        <pt x="556" y="180" on="0"/>
        <pt x="550" y="187" on="1"/>
        <pt x="541" y="179" on="0"/>
        <pt x="525" y="179" on="1"/>
        <pt x="511" y="179" on="0"/>
        <pt x="491" y="195" on="0"/>
        <pt x="491" y="210" on="1"/>
        <pt x="491" y="224" on="0"/>
        <pt x="509" y="240" on="0"/>
        <pt x="530" y="240" on="1"/>
        <pt x="546" y="240" on="1"/>
        <pt x="546" y="241" on="1"/>
        <pt x="546" y="245" on="0"/>
        <pt x="537" y="251" on="0"/>
        <pt x="524" y="251" on="1"/>
        <pt x="499" y="251" on="1"/>
      </contour>
      <contour>
        <pt x="476" y="212" on="1"/>
        <pt x="476" y="186" on="1"/>
        <pt x="468" y="182" on="0"/>
        <pt x="448" y="179" on="0"/>
        <pt x="439" y="179" on="1"/>
        <pt x="413" y="179" on="0"/>
        <pt x="386" y="206" on="0"/>
        <pt x="386" y="230" on="1"/>
        <pt x="386" y="254" on="0"/>
        <pt x="410" y="284" on="0"/>
        <pt x="435" y="284" on="1"/>
        <pt x="455" y="284" on="0"/>
        <pt x="479" y="260" on="0"/>
        <pt x="479" y="242" on="1"/>
        <pt x="479" y="238" on="0"/>
        <pt x="478" y="229" on="0"/>
        <pt x="477" y="224" on="1"/>
        <pt x="422" y="224" on="1"/>
        <pt x="426" y="212" on="0"/>
        <pt x="447" y="212" on="1"/>
      </contour>
      <contour>
        <pt x="826" y="251" on="1"/>
        <pt x="826" y="282" on="1"/>
        <pt x="860" y="282" on="1"/>
        <pt x="870" y="266" on="1"/>
        <pt x="872" y="271" on="0"/>
        <pt x="877" y="276" on="0"/>
        <pt x="880" y="279" on="1"/>
        <pt x="887" y="284" on="0"/>
        <pt x="895" y="284" on="1"/>
        <pt x="901" y="284" on="0"/>
        <pt x="907" y="282" on="1"/>
        <pt x="907" y="251" on="1"/>
        <pt x="873" y="251" on="1"/>
        <pt x="873" y="212" on="1"/>
        <pt x="890" y="212" on="1"/>
        <pt x="890" y="182" on="1"/>
        <pt x="828" y="182" on="1"/>
        <pt x="828" y="212" on="1"/>
        <pt x="837" y="212" on="1"/>
        <pt x="837" y="251" on="1"/>
      </contour>
      <contour>
        <pt x="297" y="251" on="1"/>
        <pt x="297" y="282" on="1"/>
        <pt x="331" y="282" on="1"/>
        <pt x="341" y="266" on="1"/>
        <pt x="343" y="271" on="0"/>
        <pt x="348" y="276" on="0"/>
        <pt x="351" y="279" on="1"/>
        <pt x="358" y="284" on="0"/>
        <pt x="366" y="284" on="1"/>
        <pt x="372" y="284" on="0"/>
        <pt x="378" y="282" on="1"/>
        <pt x="378" y="251" on="1"/>
        <pt x="344" y="251" on="1"/>
        <pt x="344" y="212" on="1"/>
        <pt x="361" y="212" on="1"/>
        <pt x="361" y="182" on="1"/>
        <pt x="299" y="182" on="1"/>
        <pt x="299" y="212" on="1"/>
        <pt x="309" y="212" on="1"/>
        <pt x="309" y="251" on="1"/>
      </contour>
      <contour>
        <pt x="604" y="285" on="1"/>
        <pt x="592" y="285" on="1"/>
        <pt x="592" y="316" on="1"/>
        <pt x="639" y="316" on="1"/>
        <pt x="639" y="212" on="1"/>
        <pt x="653" y="212" on="1"/>
        <pt x="653" y="184" on="1"/>
        <pt x="644" y="180" on="0"/>
        <pt x="631" y="180" on="1"/>
        <pt x="604" y="180" on="0"/>
        <pt x="604" y="208" on="1"/>
      </contour>
      <contour>
        <pt x="666" y="199" on="1"/>
        <pt x="666" y="207" on="0"/>
        <pt x="676" y="219" on="0"/>
        <pt x="686" y="219" on="1"/>
        <pt x="697" y="219" on="0"/>
        <pt x="708" y="207" on="0"/>
        <pt x="708" y="199" on="1"/>
        <pt x="708" y="191" on="0"/>
        <pt x="697" y="180" on="0"/>
        <pt x="686" y="180" on="1"/>
        <pt x="676" y="180" on="0"/>
        <pt x="666" y="191" on="0"/>
      </contour>
      <contour>
        <pt x="764" y="206" on="1"/>
        <pt x="778" y="206" on="0"/>
        <pt x="778" y="232" on="1"/>
        <pt x="778" y="256" on="0"/>
        <pt x="764" y="256" on="1"/>
        <pt x="750" y="256" on="0"/>
        <pt x="750" y="232" on="1"/>
        <pt x="750" y="206" on="0"/>
      </contour>
      <contour>
        <pt x="951" y="247" on="1"/>
        <pt x="951" y="232" on="0"/>
        <pt x="963" y="232" on="1"/>
        <pt x="973" y="232" on="0"/>
        <pt x="973" y="247" on="1"/>
        <pt x="973" y="262" on="0"/>
        <pt x="963" y="262" on="1"/>
        <pt x="951" y="262" on="0"/>
      </contour>
      <contour>
        <pt x="535" y="204" on="1"/>
        <pt x="542" y="204" on="0"/>
        <pt x="546" y="207" on="1"/>
        <pt x="546" y="222" on="1"/>
        <pt x="538" y="222" on="1"/>
        <pt x="525" y="222" on="0"/>
        <pt x="525" y="213" on="1"/>
        <pt x="525" y="204" on="0"/>
      </contour>
      <contour>
        <pt x="434" y="258" on="1"/>
        <pt x="424" y="258" on="0"/>
        <pt x="421" y="242" on="1"/>
        <pt x="446" y="242" on="1"/>
        <pt x="446" y="258" on="0"/>
      </contour>
    </TTGlyph>
    <TTGlyph name="four" xMin="48" yMin="0" xMax="358" yMax="700">
      <contour>
        <pt x="358" y="27" on="1"/>
        <pt x="358" y="11" on="0"/>
        <pt x="347" y="0" on="0"/>
        <pt x="331" y="0" on="1"/>
        <pt x="278" y="0" on="1"/>
        <pt x="278" y="334" on="1"/>
        <pt x="143" y="334" on="1"/>
        <pt x="115" y="334" on="0"/>
        <pt x="79" y="342" on="0"/>
        <pt x="57" y="363" on="0"/>
        <pt x="48" y="400" on="0"/>
        <pt x="48" y="429" on="1"/>
        <pt x="48" y="673" on="1"/>
        <pt x="48" y="689" on="0"/>
        <pt x="59" y="700" on="0"/>
        <pt x="75" y="700" on="1"/>
        <pt x="128" y="700" on="1"/>
        <pt x="128" y="449" on="1"/>
        <pt x="128" y="431" on="0"/>
        <pt x="131" y="409" on="0"/>
        <pt x="141" y="397" on="0"/>
        <pt x="160" y="392" on="0"/>
        <pt x="175" y="392" on="1"/>
        <pt x="278" y="392" on="1"/>
        <pt x="278" y="673" on="1"/>
        <pt x="278" y="689" on="0"/>
        <pt x="289" y="700" on="0"/>
        <pt x="305" y="700" on="1"/>
        <pt x="358" y="700" on="1"/>
      </contour>
    </TTGlyph>
    <TTGlyph name="foursuperior" xMin="39" yMin="301" xMax="315" yMax="700">
      <contour>
        <pt x="251" y="700" on="1"/>
        <pt x="251" y="436" on="1"/>
        <pt x="315" y="436" on="1"/>
        <pt x="309" y="407" on="0"/>
        <pt x="283" y="378" on="0"/>
        <pt x="251" y="378" on="1"/>
        <pt x="251" y="328" on="1"/>
        <pt x="251" y="312" on="0"/>
        <pt x="240" y="301" on="0"/>
        <pt x="224" y="301" on="1"/>
        <pt x="176" y="301" on="1"/>
        <pt x="176" y="378" on="1"/>
        <pt x="66" y="378" on="1"/>
        <pt x="50" y="378" on="0"/>
        <pt x="39" y="389" on="0"/>
        <pt x="39" y="405" on="1"/>
        <pt x="39" y="436" on="1"/>
        <pt x="160" y="700" on="1"/>
      </contour>
      <contour>
        <pt x="176" y="436" on="1"/>
        <pt x="176" y="591" on="1"/>
        <pt x="174" y="591" on="1"/>
        <pt x="103" y="436" on="1"/>
      </contour>
    </TTGlyph>
    <TTGlyph name="fraction" xMin="11" yMin="0" xMax="439" yMax="714">
      <contour>
        <pt x="439" y="714" on="1"/>
        <pt x="104" y="27" on="1"/>
        <pt x="96" y="11" on="0"/>
        <pt x="80" y="0" on="0"/>
        <pt x="64" y="0" on="1"/>
        <pt x="11" y="0" on="1"/>
        <pt x="346" y="687" on="1"/>
        <pt x="354" y="703" on="0"/>
        <pt x="370" y="714" on="0"/>
        <pt x="386" y="714" on="1"/>
      </contour>
    </TTGlyph>
    <TTGlyph name="g" xMin="63" yMin="-201" xMax="393" yMax="508">
      <contour>
        <pt x="158" y="0" on="1"/>
        <pt x="106" y="0" on="0"/>
        <pt x="63" y="43" on="0"/>
        <pt x="63" y="95" on="1"/>
        <pt x="63" y="413" on="1"/>
        <pt x="63" y="465" on="0"/>
        <pt x="106" y="508" on="0"/>
        <pt x="158" y="508" on="1"/>
        <pt x="253" y="508" on="1"/>
        <pt x="282" y="508" on="0"/>
        <pt x="307" y="479" on="0"/>
        <pt x="313" y="450" on="1"/>
        <pt x="190" y="450" on="1"/>
        <pt x="159" y="450" on="0"/>
        <pt x="143" y="424" on="0"/>
        <pt x="143" y="393" on="1"/>
        <pt x="143" y="115" on="1"/>
        <pt x="143" y="84" on="0"/>
        <pt x="159" y="58" on="0"/>
        <pt x="190" y="58" on="1"/>
        <pt x="273" y="58" on="1"/>
        <pt x="273" y="27" on="1"/>
        <pt x="273" y="11" on="0"/>
        <pt x="264" y="0" on="0"/>
        <pt x="248" y="0" on="1"/>
      </contour>
      <contour>
        <pt x="88" y="-201" on="1"/>
        <pt x="72" y="-201" on="0"/>
        <pt x="63" y="-190" on="0"/>
        <pt x="63" y="-174" on="1"/>
        <pt x="63" y="-143" on="1"/>
        <pt x="266" y="-143" on="1"/>
        <pt x="281" y="-143" on="0"/>
        <pt x="300" y="-139" on="0"/>
        <pt x="310" y="-127" on="0"/>
        <pt x="313" y="-105" on="0"/>
        <pt x="313" y="-86" on="1"/>
        <pt x="313" y="481" on="1"/>
        <pt x="313" y="497" on="0"/>
        <pt x="324" y="508" on="0"/>
        <pt x="340" y="508" on="1"/>
        <pt x="393" y="508" on="1"/>
        <pt x="393" y="-106" on="1"/>
        <pt x="393" y="-158" on="0"/>
        <pt x="350" y="-201" on="0"/>
        <pt x="298" y="-201" on="1"/>
      </contour>
    </TTGlyph>
    <TTGlyph name="germandbls" xMin="22" yMin="-250" xMax="440" yMax="700">
      <contour>
        <pt x="255" y="0" on="1"/>
        <pt x="239" y="0" on="0"/>
        <pt x="230" y="11" on="0"/>
        <pt x="230" y="27" on="1"/>
        <pt x="230" y="58" on="1"/>
        <pt x="313" y="58" on="1"/>
        <pt x="344" y="58" on="0"/>
        <pt x="360" y="84" on="0"/>
        <pt x="360" y="115" on="1"/>
        <pt x="360" y="335" on="1"/>
        <pt x="360" y="366" on="0"/>
        <pt x="344" y="392" on="0"/>
        <pt x="313" y="392" on="1"/>
        <pt x="190" y="392" on="1"/>
        <pt x="190" y="-223" on="1"/>
        <pt x="190" y="-239" on="0"/>
        <pt x="179" y="-250" on="0"/>
        <pt x="163" y="-250" on="1"/>
        <pt x="110" y="-250" on="1"/>
        <pt x="110" y="392" on="1"/>
        <pt x="47" y="392" on="1"/>
        <pt x="31" y="392" on="0"/>
        <pt x="22" y="403" on="0"/>
        <pt x="22" y="419" on="1"/>
        <pt x="22" y="450" on="1"/>
        <pt x="110" y="450" on="1"/>
        <pt x="110" y="673" on="1"/>
        <pt x="110" y="689" on="0"/>
        <pt x="121" y="700" on="0"/>
        <pt x="137" y="700" on="1"/>
        <pt x="345" y="700" on="1"/>
        <pt x="397" y="700" on="0"/>
        <pt x="440" y="657" on="0"/>
        <pt x="440" y="605" on="1"/>
        <pt x="440" y="517" on="1"/>
        <pt x="440" y="476" on="0"/>
        <pt x="414" y="433" on="0"/>
        <pt x="385" y="426" on="1"/>
        <pt x="414" y="418" on="0"/>
        <pt x="440" y="375" on="0"/>
        <pt x="440" y="335" on="1"/>
        <pt x="440" y="95" on="1"/>
        <pt x="440" y="43" on="0"/>
        <pt x="397" y="0" on="0"/>
        <pt x="345" y="0" on="1"/>
      </contour>
      <contour>
        <pt x="190" y="642" on="1"/>
        <pt x="190" y="450" on="1"/>
        <pt x="313" y="450" on="1"/>
        <pt x="344" y="450" on="0"/>
        <pt x="360" y="476" on="0"/>
        <pt x="360" y="507" on="1"/>
        <pt x="360" y="585" on="1"/>
        <pt x="360" y="616" on="0"/>
        <pt x="344" y="642" on="0"/>
        <pt x="313" y="642" on="1"/>
      </contour>
    </TTGlyph>
    <TTGlyph name="grave" xMin="72" yMin="559" xMax="206" yMax="700">
      <contour>
        <pt x="72" y="676" on="1"/>
        <pt x="72" y="690" on="0"/>
        <pt x="82" y="700" on="0"/>
        <pt x="97" y="700" on="1"/>
        <pt x="146" y="700" on="1"/>
        <pt x="203" y="583" on="1"/>
        <pt x="206" y="578" on="0"/>
        <pt x="205" y="559" on="0"/>
        <pt x="187" y="559" on="1"/>
        <pt x="161" y="559" on="1"/>
      </contour>
    </TTGlyph>
    <TTGlyph name="greater" xMin="57" yMin="125" xMax="315" yMax="567">
      <component glyphName="less" x="349" y="0" scalex="-0.999877929688" scaley="1.0" flags="0x4"/>
    </TTGlyph>
    <TTGlyph name="guillemotleft" xMin="46" yMin="127" xMax="377" yMax="468">
      <contour>
        <pt x="126" y="297" on="1"/>
        <pt x="183" y="239" on="1"/>
        <pt x="198" y="224" on="0"/>
        <pt x="221" y="179" on="0"/>
        <pt x="221" y="157" on="1"/>
        <pt x="221" y="140" on="0"/>
        <pt x="212" y="127" on="1"/>
        <pt x="46" y="292" on="1"/>
        <pt x="46" y="302" on="1"/>
        <pt x="214" y="468" on="1"/>
        <pt x="222" y="456" on="0"/>
        <pt x="222" y="439" on="1"/>
        <pt x="222" y="417" on="0"/>
        <pt x="199" y="372" on="0"/>
        <pt x="184" y="357" on="1"/>
        <pt x="126" y="299" on="1"/>
      </contour>
      <contour>
        <pt x="281" y="297" on="1"/>
        <pt x="338" y="239" on="1"/>
        <pt x="353" y="224" on="0"/>
        <pt x="376" y="179" on="0"/>
        <pt x="376" y="157" on="1"/>
        <pt x="376" y="140" on="0"/>
        <pt x="367" y="127" on="1"/>
        <pt x="201" y="292" on="1"/>
        <pt x="201" y="302" on="1"/>
        <pt x="369" y="468" on="1"/>
        <pt x="377" y="456" on="0"/>
        <pt x="377" y="439" on="1"/>
        <pt x="377" y="417" on="0"/>
        <pt x="354" y="372" on="0"/>
        <pt x="339" y="357" on="1"/>
        <pt x="281" y="299" on="1"/>
      </contour>
    </TTGlyph>
    <TTGlyph name="guillemotright" xMin="67" yMin="127" xMax="398" yMax="468">
      <contour>
        <pt x="318" y="299" on="1"/>
        <pt x="260" y="357" on="1"/>
        <pt x="245" y="372" on="0"/>
        <pt x="222" y="417" on="0"/>
        <pt x="222" y="439" on="1"/>
        <pt x="222" y="456" on="0"/>
        <pt x="230" y="468" on="1"/>
        <pt x="398" y="302" on="1"/>
        <pt x="398" y="292" on="1"/>
        <pt x="232" y="127" on="1"/>
        <pt x="223" y="140" on="0"/>
        <pt x="223" y="157" on="1"/>
        <pt x="223" y="179" on="0"/>
        <pt x="246" y="224" on="0"/>
        <pt x="261" y="239" on="1"/>
        <pt x="318" y="297" on="1"/>
      </contour>
      <contour>
        <pt x="163" y="299" on="1"/>
        <pt x="105" y="357" on="1"/>
        <pt x="90" y="372" on="0"/>
        <pt x="67" y="417" on="0"/>
        <pt x="67" y="439" on="1"/>
        <pt x="67" y="456" on="0"/>
        <pt x="75" y="468" on="1"/>
        <pt x="243" y="302" on="1"/>
        <pt x="243" y="292" on="1"/>
        <pt x="77" y="127" on="1"/>
        <pt x="68" y="140" on="0"/>
        <pt x="68" y="157" on="1"/>
        <pt x="68" y="179" on="0"/>
        <pt x="91" y="224" on="0"/>
        <pt x="106" y="239" on="1"/>
        <pt x="163" y="297" on="1"/>
      </contour>
    </TTGlyph>
    <TTGlyph name="guilsinglleft" xMin="46" yMin="127" xMax="222" yMax="468">
      <contour>
        <pt x="126" y="297" on="1"/>
        <pt x="183" y="239" on="1"/>
        <pt x="198" y="224" on="0"/>
        <pt x="221" y="179" on="0"/>
        <pt x="221" y="157" on="1"/>
        <pt x="221" y="140" on="0"/>
        <pt x="212" y="127" on="1"/>
        <pt x="46" y="292" on="1"/>
        <pt x="46" y="302" on="1"/>
        <pt x="214" y="468" on="1"/>
        <pt x="222" y="456" on="0"/>
        <pt x="222" y="439" on="1"/>
        <pt x="222" y="417" on="0"/>
        <pt x="199" y="372" on="0"/>
        <pt x="184" y="357" on="1"/>
        <pt x="126" y="299" on="1"/>
      </contour>
    </TTGlyph>
    <TTGlyph name="guilsinglright" xMin="67" yMin="127" xMax="243" yMax="468">
      <contour>
        <pt x="163" y="299" on="1"/>
        <pt x="105" y="357" on="1"/>
        <pt x="90" y="372" on="0"/>
        <pt x="67" y="417" on="0"/>
        <pt x="67" y="439" on="1"/>
        <pt x="67" y="456" on="0"/>
        <pt x="75" y="468" on="1"/>
        <pt x="243" y="302" on="1"/>
        <pt x="243" y="292" on="1"/>
        <pt x="77" y="127" on="1"/>
        <pt x="68" y="140" on="0"/>
        <pt x="68" y="157" on="1"/>
        <pt x="68" y="179" on="0"/>
        <pt x="91" y="224" on="0"/>
        <pt x="106" y="239" on="1"/>
        <pt x="163" y="297" on="1"/>
      </contour>
    </TTGlyph>
    <TTGlyph name="h" xMin="66" yMin="0" xMax="396" yMax="700">
      <contour>
        <pt x="396" y="27" on="1"/>
        <pt x="396" y="11" on="0"/>
        <pt x="385" y="0" on="0"/>
        <pt x="369" y="0" on="1"/>
        <pt x="316" y="0" on="1"/>
        <pt x="316" y="393" on="1"/>
        <pt x="316" y="424" on="0"/>
        <pt x="300" y="450" on="0"/>
        <pt x="269" y="450" on="1"/>
        <pt x="146" y="450" on="1"/>
        <pt x="146" y="27" on="1"/>
        <pt x="146" y="11" on="0"/>
        <pt x="135" y="0" on="0"/>
        <pt x="119" y="0" on="1"/>
        <pt x="66" y="0" on="1"/>
        <pt x="66" y="673" on="1"/>
        <pt x="66" y="689" on="0"/>
        <pt x="77" y="700" on="0"/>
        <pt x="93" y="700" on="1"/>
        <pt x="146" y="700" on="1"/>
        <pt x="146" y="450" on="1"/>
        <pt x="152" y="479" on="0"/>
        <pt x="177" y="508" on="0"/>
        <pt x="206" y="508" on="1"/>
        <pt x="301" y="508" on="1"/>
        <pt x="353" y="508" on="0"/>
        <pt x="396" y="465" on="0"/>
        <pt x="396" y="413" on="1"/>
      </contour>
    </TTGlyph>
    <TTGlyph name="hyphen" xMin="66" yMin="334" xMax="366" yMax="392">
      <contour>
        <pt x="66" y="392" on="1"/>
        <pt x="339" y="392" on="1"/>
        <pt x="355" y="392" on="0"/>
        <pt x="366" y="381" on="0"/>
        <pt x="366" y="365" on="1"/>
        <pt x="366" y="334" on="1"/>
        <pt x="93" y="334" on="1"/>
        <pt x="77" y="334" on="0"/>
        <pt x="66" y="345" on="0"/>
        <pt x="66" y="361" on="1"/>
      </contour>
    </TTGlyph>
    <TTGlyph name="i" xMin="61" yMin="0" xMax="149" yMax="642">
      <contour>
        <pt x="61" y="615" on="1"/>
        <pt x="61" y="631" on="0"/>
        <pt x="72" y="642" on="0"/>
        <pt x="88" y="642" on="1"/>
        <pt x="149" y="642" on="1"/>
        <pt x="149" y="589" on="1"/>
        <pt x="149" y="573" on="0"/>
        <pt x="138" y="562" on="0"/>
        <pt x="122" y="562" on="1"/>
        <pt x="61" y="562" on="1"/>
      </contour>
      <contour>
        <pt x="145" y="508" on="1"/>
        <pt x="145" y="27" on="1"/>
        <pt x="145" y="11" on="0"/>
        <pt x="134" y="0" on="0"/>
        <pt x="118" y="0" on="1"/>
        <pt x="65" y="0" on="1"/>
        <pt x="65" y="481" on="1"/>
        <pt x="65" y="497" on="0"/>
        <pt x="76" y="508" on="0"/>
        <pt x="92" y="508" on="1"/>
      </contour>
    </TTGlyph>
    <TTGlyph name="iacute" xMin="65" yMin="0" xMax="225" yMax="700">
      <component glyphName="dotlessi" x="0" y="0" flags="0x204"/>
      <component glyphName="acute" x="40" y="0" flags="0x4"/>
    </TTGlyph>
    <TTGlyph name="icircumflex" xMin="-21" yMin="0" xMax="244" yMax="700">
      <component glyphName="dotlessi" x="0" y="0" flags="0x204"/>
      <component glyphName="circumflex" x="-74" y="0" flags="0x4"/>
    </TTGlyph>
    <TTGlyph name="idieresis" xMin="-5" yMin="0" xMax="217" yMax="680">
      <component glyphName="dotlessi" x="0" y="0" flags="0x204"/>
      <component glyphName="dieresis" x="-65" y="0" flags="0x4"/>
    </TTGlyph>
    <TTGlyph name="igrave" xMin="-1" yMin="0" xMax="145" yMax="700">
      <component glyphName="dotlessi" x="0" y="0" flags="0x204"/>
      <component glyphName="grave" x="-73" y="0" flags="0x4"/>
    </TTGlyph>
    <TTGlyph name="j" xMin="61" yMin="-201" xMax="149" yMax="642">
      <contour>
        <pt x="65" y="481" on="1"/>
        <pt x="65" y="497" on="0"/>
        <pt x="76" y="508" on="0"/>
        <pt x="92" y="508" on="1"/>
        <pt x="145" y="508" on="1"/>
        <pt x="145" y="-118" on="1"/>
        <pt x="145" y="-159" on="0"/>
        <pt x="105" y="-193" on="0"/>
        <pt x="65" y="-201" on="1"/>
      </contour>
      <contour>
        <pt x="61" y="615" on="1"/>
        <pt x="61" y="631" on="0"/>
        <pt x="72" y="642" on="0"/>
        <pt x="88" y="642" on="1"/>
        <pt x="149" y="642" on="1"/>
        <pt x="149" y="589" on="1"/>
        <pt x="149" y="573" on="0"/>
        <pt x="138" y="562" on="0"/>
        <pt x="122" y="562" on="1"/>
        <pt x="61" y="562" on="1"/>
      </contour>
    </TTGlyph>
    <TTGlyph name="k" xMin="66" yMin="0" xMax="397" yMax="700">
      <contour>
        <pt x="146" y="27" on="1"/>
        <pt x="146" y="11" on="0"/>
        <pt x="135" y="0" on="0"/>
        <pt x="119" y="0" on="1"/>
        <pt x="66" y="0" on="1"/>
        <pt x="66" y="673" on="1"/>
        <pt x="66" y="689" on="0"/>
        <pt x="77" y="700" on="0"/>
        <pt x="93" y="700" on="1"/>
        <pt x="146" y="700" on="1"/>
      </contour>
      <contour>
        <pt x="176" y="307" on="1"/>
        <pt x="286" y="481" on="1"/>
        <pt x="294" y="495" on="0"/>
        <pt x="308" y="508" on="0"/>
        <pt x="324" y="508" on="1"/>
        <pt x="387" y="508" on="1"/>
        <pt x="235" y="282" on="1"/>
        <pt x="397" y="0" on="1"/>
        <pt x="328" y="0" on="1"/>
        <pt x="312" y="0" on="0"/>
        <pt x="298" y="13" on="0"/>
        <pt x="290" y="27" on="1"/>
        <pt x="176" y="243" on="1"/>
      </contour>
    </TTGlyph>
    <TTGlyph name="l" xMin="71" yMin="0" xMax="151" yMax="700">
      <contour>
        <pt x="151" y="700" on="1"/>
        <pt x="151" y="27" on="1"/>
        <pt x="151" y="11" on="0"/>
        <pt x="140" y="0" on="0"/>
        <pt x="124" y="0" on="1"/>
        <pt x="71" y="0" on="1"/>
        <pt x="71" y="673" on="1"/>
        <pt x="71" y="689" on="0"/>
        <pt x="82" y="700" on="0"/>
        <pt x="98" y="700" on="1"/>
      </contour>
    </TTGlyph>
    <TTGlyph name="less" xMin="34" yMin="125" xMax="292" yMax="567">
      <contour>
        <pt x="258" y="567" on="1"/>
        <pt x="281" y="544" on="1"/>
        <pt x="292" y="533" on="0"/>
        <pt x="291" y="518" on="0"/>
        <pt x="280" y="507" on="1"/>
        <pt x="118" y="346" on="1"/>
        <pt x="280" y="185" on="1"/>
        <pt x="291" y="174" on="0"/>
        <pt x="292" y="159" on="0"/>
        <pt x="281" y="148" on="1"/>
        <pt x="258" y="125" on="1"/>
        <pt x="53" y="328" on="1"/>
        <pt x="34" y="346" on="0"/>
        <pt x="53" y="364" on="1"/>
      </contour>
    </TTGlyph>
    <TTGlyph name="logicalnot" xMin="68" yMin="228" xMax="368" yMax="390">
      <contour>
        <pt x="68" y="390" on="1"/>
        <pt x="341" y="390" on="1"/>
        <pt x="357" y="390" on="0"/>
        <pt x="368" y="381" on="0"/>
        <pt x="368" y="365" on="1"/>
        <pt x="368" y="228" on="1"/>
        <pt x="315" y="228" on="1"/>
        <pt x="299" y="228" on="0"/>
        <pt x="288" y="237" on="0"/>
        <pt x="288" y="253" on="1"/>
        <pt x="288" y="332" on="1"/>
        <pt x="95" y="332" on="1"/>
        <pt x="79" y="332" on="0"/>
        <pt x="68" y="343" on="0"/>
        <pt x="68" y="359" on="1"/>
      </contour>
    </TTGlyph>
    <TTGlyph name="m" xMin="65" yMin="0" xMax="633" yMax="508">
      <contour>
        <pt x="389" y="27" on="1"/>
        <pt x="389" y="11" on="0"/>
        <pt x="378" y="0" on="0"/>
        <pt x="362" y="0" on="1"/>
        <pt x="309" y="0" on="1"/>
        <pt x="309" y="393" on="1"/>
        <pt x="309" y="424" on="0"/>
        <pt x="293" y="450" on="0"/>
        <pt x="262" y="450" on="1"/>
        <pt x="145" y="450" on="1"/>
        <pt x="145" y="27" on="1"/>
        <pt x="145" y="11" on="0"/>
        <pt x="134" y="0" on="0"/>
        <pt x="118" y="0" on="1"/>
        <pt x="65" y="0" on="1"/>
        <pt x="65" y="481" on="1"/>
        <pt x="65" y="497" on="0"/>
        <pt x="76" y="508" on="0"/>
        <pt x="92" y="508" on="1"/>
        <pt x="145" y="508" on="1"/>
        <pt x="145" y="450" on="1"/>
        <pt x="151" y="479" on="0"/>
        <pt x="176" y="508" on="0"/>
        <pt x="205" y="508" on="1"/>
        <pt x="294" y="508" on="1"/>
        <pt x="346" y="508" on="0"/>
        <pt x="389" y="465" on="0"/>
        <pt x="389" y="413" on="1"/>
      </contour>
      <contour>
        <pt x="633" y="27" on="1"/>
        <pt x="633" y="11" on="0"/>
        <pt x="622" y="0" on="0"/>
        <pt x="606" y="0" on="1"/>
        <pt x="553" y="0" on="1"/>
        <pt x="553" y="393" on="1"/>
        <pt x="553" y="424" on="0"/>
        <pt x="537" y="450" on="0"/>
        <pt x="506" y="450" on="1"/>
        <pt x="386" y="450" on="1"/>
        <pt x="392" y="479" on="0"/>
        <pt x="417" y="508" on="0"/>
        <pt x="446" y="508" on="1"/>
        <pt x="538" y="508" on="1"/>
        <pt x="590" y="508" on="0"/>
        <pt x="633" y="465" on="0"/>
        <pt x="633" y="413" on="1"/>
      </contour>
    </TTGlyph>
    <TTGlyph name="macron" xMin="0" yMin="593" xMax="450" yMax="651">
      <component glyphName="underscore" x="0" y="651" flags="0x204"/>
    </TTGlyph>
    <TTGlyph name="minus" xMin="68" yMin="332" xMax="368" yMax="390">
      <contour>
        <pt x="68" y="390" on="1"/>
        <pt x="341" y="390" on="1"/>
        <pt x="357" y="390" on="0"/>
        <pt x="368" y="379" on="0"/>
        <pt x="368" y="363" on="1"/>
        <pt x="368" y="332" on="1"/>
        <pt x="95" y="332" on="1"/>
        <pt x="79" y="332" on="0"/>
        <pt x="68" y="343" on="0"/>
        <pt x="68" y="359" on="1"/>
      </contour>
    </TTGlyph>
    <TTGlyph name="mu" xMin="73" yMin="-201" xMax="367" yMax="450">
      <contour>
        <pt x="73" y="423" on="1"/>
        <pt x="73" y="439" on="0"/>
        <pt x="84" y="450" on="0"/>
        <pt x="100" y="450" on="1"/>
        <pt x="153" y="450" on="1"/>
        <pt x="153" y="103" on="1"/>
        <pt x="154" y="79" on="0"/>
        <pt x="172" y="58" on="0"/>
        <pt x="200" y="58" on="1"/>
        <pt x="247" y="58" on="1"/>
        <pt x="247" y="27" on="1"/>
        <pt x="247" y="11" on="0"/>
        <pt x="238" y="0" on="0"/>
        <pt x="222" y="0" on="1"/>
        <pt x="168" y="0" on="1"/>
        <pt x="153" y="0" on="1"/>
        <pt x="153" y="-174" on="1"/>
        <pt x="153" y="-190" on="0"/>
        <pt x="142" y="-201" on="0"/>
        <pt x="126" y="-201" on="1"/>
        <pt x="73" y="-201" on="1"/>
      </contour>
      <contour>
        <pt x="287" y="0" on="1"/>
        <pt x="287" y="423" on="1"/>
        <pt x="287" y="439" on="0"/>
        <pt x="298" y="450" on="0"/>
        <pt x="314" y="450" on="1"/>
        <pt x="367" y="450" on="1"/>
        <pt x="367" y="27" on="1"/>
        <pt x="367" y="11" on="0"/>
        <pt x="356" y="0" on="0"/>
        <pt x="340" y="0" on="1"/>
      </contour>
    </TTGlyph>
    <TTGlyph name="multiply" xMin="92" yMin="235" xMax="345" yMax="489">
      <contour>
        <pt x="133" y="489" on="1"/>
        <pt x="218" y="403" on="1"/>
        <pt x="285" y="470" on="1"/>
        <pt x="296" y="481" on="0"/>
        <pt x="312" y="481" on="0"/>
        <pt x="323" y="470" on="1"/>
        <pt x="345" y="448" on="1"/>
        <pt x="259" y="362" on="1"/>
        <pt x="326" y="296" on="1"/>
        <pt x="337" y="285" on="0"/>
        <pt x="337" y="268" on="0"/>
        <pt x="326" y="257" on="1"/>
        <pt x="305" y="235" on="1"/>
        <pt x="218" y="321" on="1"/>
        <pt x="152" y="255" on="1"/>
        <pt x="141" y="244" on="0"/>
        <pt x="125" y="244" on="0"/>
        <pt x="114" y="255" on="1"/>
        <pt x="92" y="277" on="1"/>
        <pt x="177" y="362" on="1"/>
        <pt x="112" y="428" on="1"/>
        <pt x="101" y="439" on="0"/>
        <pt x="101" y="456" on="0"/>
        <pt x="112" y="467" on="1"/>
      </contour>
    </TTGlyph>
    <TTGlyph name="n" xMin="65" yMin="0" xMax="395" yMax="508">
      <contour>
        <pt x="300" y="508" on="1"/>
        <pt x="352" y="508" on="0"/>
        <pt x="395" y="465" on="0"/>
        <pt x="395" y="413" on="1"/>
        <pt x="395" y="27" on="1"/>
        <pt x="395" y="11" on="0"/>
        <pt x="384" y="0" on="0"/>
        <pt x="368" y="0" on="1"/>
        <pt x="315" y="0" on="1"/>
        <pt x="315" y="393" on="1"/>
        <pt x="315" y="424" on="0"/>
        <pt x="299" y="450" on="0"/>
        <pt x="268" y="450" on="1"/>
        <pt x="145" y="450" on="1"/>
        <pt x="145" y="27" on="1"/>
        <pt x="145" y="11" on="0"/>
        <pt x="134" y="0" on="0"/>
        <pt x="118" y="0" on="1"/>
        <pt x="65" y="0" on="1"/>
        <pt x="65" y="481" on="1"/>
        <pt x="65" y="497" on="0"/>
        <pt x="76" y="508" on="0"/>
        <pt x="92" y="508" on="1"/>
        <pt x="145" y="508" on="1"/>
        <pt x="145" y="450" on="1"/>
        <pt x="151" y="479" on="0"/>
        <pt x="176" y="508" on="0"/>
        <pt x="205" y="508" on="1"/>
      </contour>
    </TTGlyph>
    <TTGlyph name="nine" xMin="58" yMin="0" xMax="357" yMax="700">
      <contour>
        <pt x="153" y="308" on="1"/>
        <pt x="101" y="308" on="0"/>
        <pt x="58" y="351" on="0"/>
        <pt x="58" y="403" on="1"/>
        <pt x="58" y="605" on="1"/>
        <pt x="58" y="657" on="0"/>
        <pt x="101" y="700" on="0"/>
        <pt x="153" y="700" on="1"/>
        <pt x="262" y="700" on="1"/>
        <pt x="314" y="700" on="0"/>
        <pt x="357" y="657" on="0"/>
        <pt x="357" y="605" on="1"/>
        <pt x="357" y="95" on="1"/>
        <pt x="357" y="43" on="0"/>
        <pt x="314" y="0" on="0"/>
        <pt x="262" y="0" on="1"/>
        <pt x="132" y="0" on="1"/>
        <pt x="103" y="0" on="0"/>
        <pt x="78" y="29" on="0"/>
        <pt x="72" y="58" on="1"/>
        <pt x="230" y="58" on="1"/>
        <pt x="261" y="58" on="0"/>
        <pt x="277" y="84" on="0"/>
        <pt x="277" y="115" on="1"/>
        <pt x="277" y="589" on="1"/>
        <pt x="277" y="620" on="0"/>
        <pt x="261" y="646" on="0"/>
        <pt x="230" y="646" on="1"/>
        <pt x="185" y="646" on="1"/>
        <pt x="154" y="646" on="0"/>
        <pt x="138" y="620" on="0"/>
        <pt x="138" y="589" on="1"/>
        <pt x="138" y="423" on="1"/>
        <pt x="138" y="392" on="0"/>
        <pt x="154" y="366" on="0"/>
        <pt x="185" y="366" on="1"/>
        <pt x="237" y="366" on="1"/>
        <pt x="237" y="335" on="1"/>
        <pt x="237" y="319" on="0"/>
        <pt x="228" y="308" on="0"/>
        <pt x="212" y="308" on="1"/>
      </contour>
    </TTGlyph>
    <TTGlyph name="ntilde" xMin="65" yMin="0" xMax="395" yMax="703">
      <component glyphName="n" x="0" y="0" flags="0x204"/>
      <component glyphName="tilde" x="45" y="0" flags="0x4"/>
    </TTGlyph>
    <TTGlyph name="numbersign" xMin="72" yMin="0" xMax="746" yMax="700">
      <contour>
        <pt x="438" y="700" on="1"/>
        <pt x="438" y="27" on="1"/>
        <pt x="438" y="11" on="0"/>
        <pt x="427" y="0" on="0"/>
        <pt x="411" y="0" on="1"/>
        <pt x="367" y="0" on="1"/>
        <pt x="183" y="442" on="1"/>
        <pt x="145" y="553" on="1"/>
        <pt x="143" y="553" on="1"/>
        <pt x="152" y="438" on="1"/>
        <pt x="152" y="27" on="1"/>
        <pt x="152" y="11" on="0"/>
        <pt x="141" y="0" on="0"/>
        <pt x="125" y="0" on="1"/>
        <pt x="72" y="0" on="1"/>
        <pt x="72" y="673" on="1"/>
        <pt x="72" y="689" on="0"/>
        <pt x="83" y="700" on="0"/>
        <pt x="99" y="700" on="1"/>
        <pt x="156" y="700" on="1"/>
        <pt x="329" y="279" on="1"/>
        <pt x="365" y="168" on="1"/>
        <pt x="367" y="168" on="1"/>
        <pt x="358" y="281" on="1"/>
        <pt x="358" y="673" on="1"/>
        <pt x="358" y="689" on="0"/>
        <pt x="369" y="700" on="0"/>
        <pt x="385" y="700" on="1"/>
      </contour>
      <contour>
        <pt x="617" y="410" on="1"/>
        <pt x="591" y="410" on="0"/>
        <pt x="558" y="417" on="0"/>
        <pt x="539" y="436" on="0"/>
        <pt x="532" y="469" on="0"/>
        <pt x="532" y="495" on="1"/>
        <pt x="532" y="615" on="1"/>
        <pt x="532" y="641" on="0"/>
        <pt x="539" y="674" on="0"/>
        <pt x="558" y="693" on="0"/>
        <pt x="591" y="700" on="0"/>
        <pt x="617" y="700" on="1"/>
        <pt x="661" y="700" on="1"/>
        <pt x="687" y="700" on="0"/>
        <pt x="720" y="693" on="0"/>
        <pt x="739" y="674" on="0"/>
        <pt x="746" y="641" on="0"/>
        <pt x="746" y="615" on="1"/>
        <pt x="746" y="495" on="1"/>
        <pt x="746" y="469" on="0"/>
        <pt x="739" y="436" on="0"/>
        <pt x="720" y="417" on="0"/>
        <pt x="687" y="410" on="0"/>
        <pt x="661" y="410" on="1"/>
      </contour>
      <contour>
        <pt x="597" y="510" on="1"/>
        <pt x="597" y="479" on="0"/>
        <pt x="615" y="463" on="0"/>
        <pt x="639" y="463" on="1"/>
        <pt x="664" y="463" on="0"/>
        <pt x="681" y="479" on="0"/>
        <pt x="681" y="510" on="1"/>
        <pt x="681" y="600" on="1"/>
        <pt x="681" y="631" on="0"/>
        <pt x="663" y="647" on="0"/>
        <pt x="639" y="647" on="1"/>
        <pt x="614" y="647" on="0"/>
        <pt x="597" y="631" on="0"/>
        <pt x="597" y="600" on="1"/>
      </contour>
      <contour>
        <pt x="532" y="358" on="1"/>
        <pt x="719" y="358" on="1"/>
        <pt x="735" y="358" on="0"/>
        <pt x="746" y="347" on="0"/>
        <pt x="746" y="331" on="1"/>
        <pt x="746" y="300" on="1"/>
        <pt x="559" y="300" on="1"/>
        <pt x="543" y="300" on="0"/>
        <pt x="532" y="311" on="0"/>
        <pt x="532" y="327" on="1"/>
      </contour>
    </TTGlyph>
    <TTGlyph name="o" xMin="63" yMin="0" xMax="393" yMax="508">
      <contour>
        <pt x="63" y="413" on="1"/>
        <pt x="63" y="465" on="0"/>
        <pt x="106" y="508" on="0"/>
        <pt x="158" y="508" on="1"/>
        <pt x="298" y="508" on="1"/>
        <pt x="350" y="508" on="0"/>
        <pt x="393" y="465" on="0"/>
        <pt x="393" y="413" on="1"/>
        <pt x="393" y="95" on="1"/>
        <pt x="393" y="43" on="0"/>
        <pt x="350" y="0" on="0"/>
        <pt x="298" y="0" on="1"/>
        <pt x="158" y="0" on="1"/>
        <pt x="106" y="0" on="0"/>
        <pt x="63" y="43" on="0"/>
        <pt x="63" y="95" on="1"/>
      </contour>
      <contour>
        <pt x="190" y="450" on="1"/>
        <pt x="159" y="450" on="0"/>
        <pt x="143" y="424" on="0"/>
        <pt x="143" y="393" on="1"/>
        <pt x="143" y="115" on="1"/>
        <pt x="143" y="84" on="0"/>
        <pt x="159" y="58" on="0"/>
        <pt x="190" y="58" on="1"/>
        <pt x="266" y="58" on="1"/>
        <pt x="297" y="58" on="0"/>
        <pt x="313" y="84" on="0"/>
        <pt x="313" y="115" on="1"/>
        <pt x="313" y="393" on="1"/>
        <pt x="313" y="424" on="0"/>
        <pt x="297" y="450" on="0"/>
        <pt x="266" y="450" on="1"/>
      </contour>
    </TTGlyph>
    <TTGlyph name="oacute" xMin="63" yMin="0" xMax="393" yMax="700">
      <component glyphName="o" x="0" y="0" flags="0x204"/>
      <component glyphName="acute" x="163" y="0" flags="0x4"/>
    </TTGlyph>
    <TTGlyph name="ocircumflex" xMin="63" yMin="0" xMax="393" yMax="700">
      <component glyphName="o" x="0" y="0" flags="0x204"/>
      <component glyphName="circumflex" x="47" y="0" flags="0x4"/>
    </TTGlyph>
    <TTGlyph name="odieresis" xMin="63" yMin="0" xMax="393" yMax="680">
      <component glyphName="o" x="0" y="0" flags="0x204"/>
      <component glyphName="dieresis" x="56" y="0" flags="0x4"/>
    </TTGlyph>
    <TTGlyph name="oe" xMin="63" yMin="0" xMax="633" yMax="508">
      <contour>
        <pt x="604" y="58" on="1"/>
        <pt x="604" y="27" on="1"/>
        <pt x="604" y="11" on="0"/>
        <pt x="595" y="0" on="0"/>
        <pt x="579" y="0" on="1"/>
        <pt x="408" y="0" on="1"/>
        <pt x="365" y="0" on="0"/>
        <pt x="344" y="14" on="1"/>
        <pt x="321" y="0" on="0"/>
        <pt x="288" y="0" on="1"/>
        <pt x="158" y="0" on="1"/>
        <pt x="106" y="0" on="0"/>
        <pt x="63" y="43" on="0"/>
        <pt x="63" y="95" on="1"/>
        <pt x="63" y="413" on="1"/>
        <pt x="63" y="465" on="0"/>
        <pt x="106" y="508" on="0"/>
        <pt x="158" y="508" on="1"/>
        <pt x="280" y="508" on="1"/>
        <pt x="298" y="508" on="0"/>
        <pt x="329" y="500" on="0"/>
        <pt x="343" y="493" on="1"/>
        <pt x="365" y="508" on="0"/>
        <pt x="408" y="508" on="1"/>
        <pt x="538" y="508" on="1"/>
        <pt x="590" y="508" on="0"/>
        <pt x="633" y="465" on="0"/>
        <pt x="633" y="413" on="1"/>
        <pt x="633" y="301" on="1"/>
        <pt x="633" y="249" on="0"/>
        <pt x="590" y="206" on="0"/>
        <pt x="538" y="206" on="1"/>
        <pt x="458" y="206" on="1"/>
        <pt x="442" y="206" on="0"/>
        <pt x="433" y="217" on="0"/>
        <pt x="433" y="233" on="1"/>
        <pt x="433" y="264" on="1"/>
        <pt x="506" y="264" on="1"/>
        <pt x="537" y="264" on="0"/>
        <pt x="553" y="290" on="0"/>
        <pt x="553" y="321" on="1"/>
        <pt x="553" y="399" on="1"/>
        <pt x="553" y="426" on="0"/>
        <pt x="534" y="450" on="0"/>
        <pt x="506" y="450" on="1"/>
        <pt x="445" y="450" on="1"/>
        <pt x="413" y="450" on="0"/>
        <pt x="394" y="429" on="0"/>
        <pt x="393" y="399" on="1"/>
        <pt x="393" y="115" on="1"/>
        <pt x="393" y="84" on="0"/>
        <pt x="409" y="58" on="0"/>
        <pt x="440" y="58" on="1"/>
      </contour>
      <contour>
        <pt x="190" y="450" on="1"/>
        <pt x="159" y="450" on="0"/>
        <pt x="143" y="424" on="0"/>
        <pt x="143" y="393" on="1"/>
        <pt x="143" y="115" on="1"/>
        <pt x="143" y="84" on="0"/>
        <pt x="159" y="58" on="0"/>
        <pt x="190" y="58" on="1"/>
        <pt x="266" y="58" on="1"/>
        <pt x="297" y="58" on="0"/>
        <pt x="313" y="84" on="0"/>
        <pt x="313" y="115" on="1"/>
        <pt x="313" y="404" on="1"/>
        <pt x="311" y="429" on="0"/>
        <pt x="294" y="450" on="0"/>
        <pt x="266" y="450" on="1"/>
      </contour>
    </TTGlyph>
    <TTGlyph name="ograve" xMin="63" yMin="0" xMax="393" yMax="700">
      <component glyphName="o" x="0" y="0" flags="0x204"/>
      <component glyphName="grave" x="48" y="0" flags="0x4"/>
    </TTGlyph>
    <TTGlyph name="one" xMin="72" yMin="0" xMax="152" yMax="700">
      <contour>
        <pt x="152" y="27" on="1"/>
        <pt x="152" y="11" on="0"/>
        <pt x="141" y="0" on="0"/>
        <pt x="125" y="0" on="1"/>
        <pt x="72" y="0" on="1"/>
        <pt x="72" y="617" on="1"/>
        <pt x="72" y="658" on="0"/>
        <pt x="112" y="692" on="0"/>
        <pt x="152" y="700" on="1"/>
      </contour>
    </TTGlyph>
    <TTGlyph name="onehalf" xMin="64" yMin="0" xMax="629" yMax="714">
      <component glyphName="fraction" x="66" y="0" flags="0x4"/>
      <component glyphName="onesuperior" x="-3" y="0" flags="0x4"/>
      <component glyphName="twosuperior" x="339" y="-299" flags="0x4"/>
    </TTGlyph>
    <TTGlyph name="onequarter" xMin="67" yMin="0" xMax="640" yMax="714">
      <component glyphName="fraction" x="71" y="0" flags="0x4"/>
      <component glyphName="onesuperior" x="0" y="0" flags="0x4"/>
      <component glyphName="foursuperior" x="325" y="-300" flags="0x4"/>
    </TTGlyph>
    <TTGlyph name="onesuperior" xMin="67" yMin="300" xMax="147" yMax="700">
      <contour>
        <pt x="147" y="327" on="1"/>
        <pt x="147" y="311" on="0"/>
        <pt x="136" y="300" on="0"/>
        <pt x="120" y="300" on="1"/>
        <pt x="67" y="300" on="1"/>
        <pt x="67" y="617" on="1"/>
        <pt x="67" y="658" on="0"/>
        <pt x="107" y="692" on="0"/>
        <pt x="147" y="700" on="1"/>
      </contour>
    </TTGlyph>
    <TTGlyph name="ordfeminine" xMin="53" yMin="300" xMax="327" yMax="700">
      <contour>
        <pt x="148" y="300" on="1"/>
        <pt x="96" y="300" on="0"/>
        <pt x="53" y="343" on="0"/>
        <pt x="53" y="395" on="1"/>
        <pt x="53" y="456" on="1"/>
        <pt x="53" y="508" on="0"/>
        <pt x="96" y="551" on="0"/>
        <pt x="148" y="551" on="1"/>
        <pt x="247" y="551" on="1"/>
        <pt x="247" y="585" on="1"/>
        <pt x="247" y="616" on="0"/>
        <pt x="231" y="642" on="0"/>
        <pt x="200" y="642" on="1"/>
        <pt x="73" y="642" on="1"/>
        <pt x="79" y="671" on="0"/>
        <pt x="104" y="700" on="0"/>
        <pt x="133" y="700" on="1"/>
        <pt x="232" y="700" on="1"/>
        <pt x="284" y="700" on="0"/>
        <pt x="327" y="657" on="0"/>
        <pt x="327" y="605" on="1"/>
        <pt x="327" y="300" on="1"/>
        <pt x="274" y="300" on="1"/>
        <pt x="258" y="300" on="0"/>
        <pt x="247" y="311" on="0"/>
        <pt x="247" y="327" on="1"/>
        <pt x="247" y="493" on="1"/>
        <pt x="185" y="493" on="1"/>
        <pt x="154" y="493" on="0"/>
        <pt x="128" y="467" on="0"/>
        <pt x="128" y="436" on="1"/>
        <pt x="128" y="415" on="1"/>
        <pt x="128" y="384" on="0"/>
        <pt x="154" y="358" on="0"/>
        <pt x="185" y="358" on="1"/>
        <pt x="207" y="358" on="1"/>
        <pt x="207" y="327" on="1"/>
        <pt x="207" y="311" on="0"/>
        <pt x="198" y="300" on="0"/>
        <pt x="182" y="300" on="1"/>
      </contour>
    </TTGlyph>
    <TTGlyph name="ordmasculine" xMin="62" yMin="300" xMax="336" yMax="700">
      <contour>
        <pt x="62" y="605" on="1"/>
        <pt x="62" y="657" on="0"/>
        <pt x="105" y="700" on="0"/>
        <pt x="157" y="700" on="1"/>
        <pt x="241" y="700" on="1"/>
        <pt x="293" y="700" on="0"/>
        <pt x="336" y="657" on="0"/>
        <pt x="336" y="605" on="1"/>
        <pt x="336" y="395" on="1"/>
        <pt x="336" y="343" on="0"/>
        <pt x="293" y="300" on="0"/>
        <pt x="241" y="300" on="1"/>
        <pt x="157" y="300" on="1"/>
        <pt x="105" y="300" on="0"/>
        <pt x="62" y="343" on="0"/>
        <pt x="62" y="395" on="1"/>
      </contour>
      <contour>
        <pt x="189" y="642" on="1"/>
        <pt x="158" y="642" on="0"/>
        <pt x="142" y="616" on="0"/>
        <pt x="142" y="585" on="1"/>
        <pt x="142" y="415" on="1"/>
        <pt x="142" y="384" on="0"/>
        <pt x="158" y="358" on="0"/>
        <pt x="189" y="358" on="1"/>
        <pt x="209" y="358" on="1"/>
        <pt x="240" y="358" on="0"/>
        <pt x="256" y="384" on="0"/>
        <pt x="256" y="415" on="1"/>
        <pt x="256" y="585" on="1"/>
        <pt x="256" y="616" on="0"/>
        <pt x="240" y="642" on="0"/>
        <pt x="209" y="642" on="1"/>
      </contour>
    </TTGlyph>
    <TTGlyph name="oslash" xMin="-13" yMin="0" xMax="499" yMax="508">
      <contour>
        <pt x="410" y="402" on="1"/>
        <pt x="410" y="95" on="1"/>
        <pt x="410" y="43" on="0"/>
        <pt x="367" y="0" on="0"/>
        <pt x="315" y="0" on="1"/>
        <pt x="175" y="0" on="1"/>
        <pt x="123" y="0" on="0"/>
        <pt x="93" y="30" on="0"/>
        <pt x="88" y="43" on="1"/>
        <pt x="75" y="27" on="1"/>
        <pt x="62" y="11" on="0"/>
        <pt x="42" y="0" on="0"/>
        <pt x="27" y="0" on="1"/>
        <pt x="-13" y="0" on="1"/>
        <pt x="80" y="111" on="1"/>
        <pt x="80" y="413" on="1"/>
        <pt x="80" y="465" on="0"/>
        <pt x="123" y="508" on="0"/>
        <pt x="175" y="508" on="1"/>
        <pt x="315" y="508" on="1"/>
        <pt x="352" y="508" on="0"/>
        <pt x="392" y="488" on="0"/>
        <pt x="400" y="469" on="1"/>
        <pt x="410" y="481" on="1"/>
        <pt x="423" y="497" on="0"/>
        <pt x="443" y="508" on="0"/>
        <pt x="459" y="508" on="1"/>
        <pt x="499" y="508" on="1"/>
      </contour>
      <contour>
        <pt x="160" y="116" on="1"/>
        <pt x="160" y="84" on="0"/>
        <pt x="176" y="58" on="0"/>
        <pt x="207" y="58" on="1"/>
        <pt x="283" y="58" on="1"/>
        <pt x="314" y="58" on="0"/>
        <pt x="330" y="84" on="0"/>
        <pt x="330" y="115" on="1"/>
        <pt x="330" y="318" on="1"/>
      </contour>
      <contour>
        <pt x="160" y="393" on="1"/>
        <pt x="160" y="195" on="1"/>
        <pt x="330" y="397" on="1"/>
        <pt x="330" y="424" on="0"/>
        <pt x="314" y="450" on="0"/>
        <pt x="283" y="450" on="1"/>
        <pt x="207" y="450" on="1"/>
        <pt x="176" y="450" on="0"/>
        <pt x="160" y="424" on="0"/>
      </contour>
    </TTGlyph>
    <TTGlyph name="otilde" xMin="63" yMin="0" xMax="393" yMax="703">
      <component glyphName="o" x="0" y="0" flags="0x204"/>
      <component glyphName="tilde" x="41" y="0" flags="0x4"/>
    </TTGlyph>
    <TTGlyph name="p" xMin="65" yMin="-201" xMax="395" yMax="508">
      <contour>
        <pt x="300" y="508" on="1"/>
        <pt x="352" y="508" on="0"/>
        <pt x="395" y="465" on="0"/>
        <pt x="395" y="413" on="1"/>
        <pt x="395" y="95" on="1"/>
        <pt x="395" y="43" on="0"/>
        <pt x="352" y="0" on="0"/>
        <pt x="300" y="0" on="1"/>
        <pt x="205" y="0" on="1"/>
        <pt x="176" y="0" on="0"/>
        <pt x="151" y="29" on="0"/>
        <pt x="145" y="58" on="1"/>
        <pt x="145" y="-174" on="1"/>
        <pt x="145" y="-190" on="0"/>
        <pt x="134" y="-201" on="0"/>
        <pt x="118" y="-201" on="1"/>
        <pt x="65" y="-201" on="1"/>
        <pt x="65" y="481" on="1"/>
        <pt x="65" y="497" on="0"/>
        <pt x="76" y="508" on="0"/>
        <pt x="92" y="508" on="1"/>
        <pt x="145" y="508" on="1"/>
        <pt x="145" y="58" on="1"/>
        <pt x="268" y="58" on="1"/>
        <pt x="299" y="58" on="0"/>
        <pt x="315" y="84" on="0"/>
        <pt x="315" y="115" on="1"/>
        <pt x="315" y="393" on="1"/>
        <pt x="315" y="424" on="0"/>
        <pt x="299" y="450" on="0"/>
        <pt x="268" y="450" on="1"/>
        <pt x="185" y="450" on="1"/>
        <pt x="185" y="481" on="1"/>
        <pt x="185" y="497" on="0"/>
        <pt x="194" y="508" on="0"/>
        <pt x="210" y="508" on="1"/>
      </contour>
    </TTGlyph>
    <TTGlyph name="paragraph" xMin="51" yMin="0" xMax="389" yMax="700">
      <contour>
        <pt x="226" y="700" on="1"/>
        <pt x="242" y="700" on="0"/>
        <pt x="253" y="689" on="0"/>
        <pt x="253" y="673" on="1"/>
        <pt x="253" y="0" on="1"/>
        <pt x="200" y="0" on="1"/>
        <pt x="184" y="0" on="0"/>
        <pt x="173" y="11" on="0"/>
        <pt x="173" y="27" on="1"/>
        <pt x="173" y="374" on="1"/>
        <pt x="146" y="374" on="1"/>
        <pt x="94" y="374" on="0"/>
        <pt x="51" y="417" on="0"/>
        <pt x="51" y="469" on="1"/>
        <pt x="51" y="605" on="1"/>
        <pt x="51" y="657" on="0"/>
        <pt x="94" y="700" on="0"/>
        <pt x="146" y="700" on="1"/>
      </contour>
      <contour>
        <pt x="389" y="700" on="1"/>
        <pt x="389" y="27" on="1"/>
        <pt x="389" y="11" on="0"/>
        <pt x="378" y="0" on="0"/>
        <pt x="362" y="0" on="1"/>
        <pt x="309" y="0" on="1"/>
        <pt x="309" y="673" on="1"/>
        <pt x="309" y="689" on="0"/>
        <pt x="320" y="700" on="0"/>
        <pt x="336" y="700" on="1"/>
      </contour>
    </TTGlyph>
    <TTGlyph name="parenleft" xMin="71" yMin="-130" xMax="241" yMax="760">
      <contour>
        <pt x="216" y="760" on="1"/>
        <pt x="232" y="760" on="0"/>
        <pt x="241" y="750" on="0"/>
        <pt x="241" y="733" on="1"/>
        <pt x="241" y="702" on="1"/>
        <pt x="194" y="702" on="1"/>
        <pt x="163" y="702" on="0"/>
        <pt x="147" y="676" on="0"/>
        <pt x="147" y="645" on="1"/>
        <pt x="147" y="-15" on="1"/>
        <pt x="147" y="-46" on="0"/>
        <pt x="163" y="-72" on="0"/>
        <pt x="194" y="-72" on="1"/>
        <pt x="241" y="-72" on="1"/>
        <pt x="241" y="-103" on="1"/>
        <pt x="241" y="-120" on="0"/>
        <pt x="232" y="-130" on="0"/>
        <pt x="216" y="-130" on="1"/>
        <pt x="162" y="-130" on="1"/>
        <pt x="110" y="-130" on="0"/>
        <pt x="71" y="-87" on="0"/>
        <pt x="71" y="-35" on="1"/>
        <pt x="71" y="665" on="1"/>
        <pt x="71" y="717" on="0"/>
        <pt x="110" y="760" on="0"/>
        <pt x="162" y="760" on="1"/>
      </contour>
    </TTGlyph>
    <TTGlyph name="parenright" xMin="40" yMin="-130" xMax="210" yMax="760">
      <contour>
        <pt x="119" y="760" on="1"/>
        <pt x="171" y="760" on="0"/>
        <pt x="210" y="717" on="0"/>
        <pt x="210" y="665" on="1"/>
        <pt x="210" y="-35" on="1"/>
        <pt x="210" y="-87" on="0"/>
        <pt x="171" y="-130" on="0"/>
        <pt x="119" y="-130" on="1"/>
        <pt x="65" y="-130" on="1"/>
        <pt x="49" y="-130" on="0"/>
        <pt x="40" y="-120" on="0"/>
        <pt x="40" y="-103" on="1"/>
        <pt x="40" y="-72" on="1"/>
        <pt x="87" y="-72" on="1"/>
        <pt x="118" y="-72" on="0"/>
        <pt x="134" y="-46" on="0"/>
        <pt x="134" y="-15" on="1"/>
        <pt x="134" y="645" on="1"/>
        <pt x="134" y="676" on="0"/>
        <pt x="118" y="702" on="0"/>
        <pt x="87" y="702" on="1"/>
        <pt x="40" y="702" on="1"/>
        <pt x="40" y="733" on="1"/>
        <pt x="40" y="750" on="0"/>
        <pt x="49" y="760" on="0"/>
        <pt x="65" y="760" on="1"/>
      </contour>
    </TTGlyph>
    <TTGlyph name="percent" xMin="52" yMin="0" xMax="580" yMax="700">
      <contour>
        <pt x="516" y="700" on="1"/>
        <pt x="188" y="27" on="1"/>
        <pt x="180" y="11" on="0"/>
        <pt x="164" y="0" on="0"/>
        <pt x="148" y="0" on="1"/>
        <pt x="95" y="0" on="1"/>
        <pt x="423" y="673" on="1"/>
        <pt x="431" y="689" on="0"/>
        <pt x="447" y="700" on="0"/>
        <pt x="463" y="700" on="1"/>
      </contour>
      <contour>
        <pt x="137" y="410" on="1"/>
        <pt x="111" y="410" on="0"/>
        <pt x="78" y="417" on="0"/>
        <pt x="59" y="436" on="0"/>
        <pt x="52" y="469" on="0"/>
        <pt x="52" y="495" on="1"/>
        <pt x="52" y="615" on="1"/>
        <pt x="52" y="641" on="0"/>
        <pt x="59" y="674" on="0"/>
        <pt x="78" y="693" on="0"/>
        <pt x="111" y="700" on="0"/>
        <pt x="137" y="700" on="1"/>
        <pt x="181" y="700" on="1"/>
        <pt x="207" y="700" on="0"/>
        <pt x="240" y="693" on="0"/>
        <pt x="259" y="674" on="0"/>
        <pt x="266" y="641" on="0"/>
        <pt x="266" y="615" on="1"/>
        <pt x="266" y="495" on="1"/>
        <pt x="266" y="469" on="0"/>
        <pt x="259" y="436" on="0"/>
        <pt x="240" y="417" on="0"/>
        <pt x="207" y="410" on="0"/>
        <pt x="181" y="410" on="1"/>
      </contour>
      <contour>
        <pt x="117" y="510" on="1"/>
        <pt x="117" y="479" on="0"/>
        <pt x="135" y="463" on="0"/>
        <pt x="159" y="463" on="1"/>
        <pt x="184" y="463" on="0"/>
        <pt x="201" y="479" on="0"/>
        <pt x="201" y="510" on="1"/>
        <pt x="201" y="600" on="1"/>
        <pt x="201" y="631" on="0"/>
        <pt x="183" y="647" on="0"/>
        <pt x="159" y="647" on="1"/>
        <pt x="134" y="647" on="0"/>
        <pt x="117" y="631" on="0"/>
        <pt x="117" y="600" on="1"/>
      </contour>
      <contour>
        <pt x="451" y="0" on="1"/>
        <pt x="425" y="0" on="0"/>
        <pt x="392" y="7" on="0"/>
        <pt x="373" y="26" on="0"/>
        <pt x="366" y="59" on="0"/>
        <pt x="366" y="85" on="1"/>
        <pt x="366" y="205" on="1"/>
        <pt x="366" y="231" on="0"/>
        <pt x="373" y="264" on="0"/>
        <pt x="392" y="283" on="0"/>
        <pt x="425" y="290" on="0"/>
        <pt x="451" y="290" on="1"/>
        <pt x="495" y="290" on="1"/>
        <pt x="521" y="290" on="0"/>
        <pt x="554" y="283" on="0"/>
        <pt x="573" y="264" on="0"/>
        <pt x="580" y="231" on="0"/>
        <pt x="580" y="205" on="1"/>
        <pt x="580" y="85" on="1"/>
        <pt x="580" y="59" on="0"/>
        <pt x="573" y="26" on="0"/>
        <pt x="554" y="7" on="0"/>
        <pt x="521" y="0" on="0"/>
        <pt x="495" y="0" on="1"/>
      </contour>
      <contour>
        <pt x="431" y="100" on="1"/>
        <pt x="431" y="69" on="0"/>
        <pt x="449" y="53" on="0"/>
        <pt x="473" y="53" on="1"/>
        <pt x="498" y="53" on="0"/>
        <pt x="515" y="69" on="0"/>
        <pt x="515" y="100" on="1"/>
        <pt x="515" y="190" on="1"/>
        <pt x="515" y="221" on="0"/>
        <pt x="497" y="237" on="0"/>
        <pt x="473" y="237" on="1"/>
        <pt x="448" y="237" on="0"/>
        <pt x="431" y="221" on="0"/>
        <pt x="431" y="190" on="1"/>
      </contour>
    </TTGlyph>
    <TTGlyph name="period" xMin="65" yMin="0" xMax="153" yMax="80">
      <contour>
        <pt x="153" y="0" on="1"/>
        <pt x="92" y="0" on="1"/>
        <pt x="76" y="0" on="0"/>
        <pt x="65" y="11" on="0"/>
        <pt x="65" y="27" on="1"/>
        <pt x="65" y="80" on="1"/>
        <pt x="126" y="80" on="1"/>
        <pt x="142" y="80" on="0"/>
        <pt x="153" y="69" on="0"/>
        <pt x="153" y="53" on="1"/>
      </contour>
    </TTGlyph>
    <TTGlyph name="periodcentered" xMin="58" yMin="235" xMax="184" yMax="371">
      <contour>
        <pt x="58" y="303" on="1"/>
        <pt x="58" y="341" on="0"/>
        <pt x="95" y="371" on="0"/>
        <pt x="121" y="371" on="1"/>
        <pt x="147" y="371" on="0"/>
        <pt x="184" y="341" on="0"/>
        <pt x="184" y="303" on="1"/>
        <pt x="184" y="265" on="0"/>
        <pt x="147" y="235" on="0"/>
        <pt x="121" y="235" on="1"/>
        <pt x="95" y="235" on="0"/>
        <pt x="58" y="265" on="0"/>
      </contour>
    </TTGlyph>
    <TTGlyph name="plus" xMin="68" yMin="212" xMax="368" yMax="512">
      <contour>
        <pt x="247" y="512" on="1"/>
        <pt x="247" y="392" on="1"/>
        <pt x="341" y="392" on="1"/>
        <pt x="357" y="392" on="0"/>
        <pt x="368" y="381" on="0"/>
        <pt x="368" y="365" on="1"/>
        <pt x="368" y="334" on="1"/>
        <pt x="247" y="334" on="1"/>
        <pt x="247" y="239" on="1"/>
        <pt x="247" y="223" on="0"/>
        <pt x="236" y="212" on="0"/>
        <pt x="220" y="212" on="1"/>
        <pt x="189" y="212" on="1"/>
        <pt x="189" y="334" on="1"/>
        <pt x="95" y="334" on="1"/>
        <pt x="79" y="334" on="0"/>
        <pt x="68" y="345" on="0"/>
        <pt x="68" y="361" on="1"/>
        <pt x="68" y="392" on="1"/>
        <pt x="189" y="392" on="1"/>
        <pt x="189" y="485" on="1"/>
        <pt x="189" y="501" on="0"/>
        <pt x="200" y="512" on="0"/>
        <pt x="216" y="512" on="1"/>
      </contour>
    </TTGlyph>
    <TTGlyph name="plusminus" xMin="68" yMin="132" xMax="368" yMax="512">
      <contour>
        <pt x="247" y="512" on="1"/>
        <pt x="247" y="392" on="1"/>
        <pt x="341" y="392" on="1"/>
        <pt x="357" y="392" on="0"/>
        <pt x="368" y="381" on="0"/>
        <pt x="368" y="365" on="1"/>
        <pt x="368" y="334" on="1"/>
        <pt x="247" y="334" on="1"/>
        <pt x="247" y="239" on="1"/>
        <pt x="247" y="223" on="0"/>
        <pt x="236" y="212" on="0"/>
        <pt x="220" y="212" on="1"/>
        <pt x="189" y="212" on="1"/>
        <pt x="189" y="334" on="1"/>
        <pt x="95" y="334" on="1"/>
        <pt x="79" y="334" on="0"/>
        <pt x="68" y="345" on="0"/>
        <pt x="68" y="361" on="1"/>
        <pt x="68" y="392" on="1"/>
        <pt x="189" y="392" on="1"/>
        <pt x="189" y="485" on="1"/>
        <pt x="189" y="501" on="0"/>
        <pt x="200" y="512" on="0"/>
        <pt x="216" y="512" on="1"/>
      </contour>
      <contour>
        <pt x="68" y="190" on="1"/>
        <pt x="341" y="190" on="1"/>
        <pt x="357" y="190" on="0"/>
        <pt x="368" y="179" on="0"/>
        <pt x="368" y="163" on="1"/>
        <pt x="368" y="132" on="1"/>
        <pt x="95" y="132" on="1"/>
        <pt x="79" y="132" on="0"/>
        <pt x="68" y="143" on="0"/>
        <pt x="68" y="159" on="1"/>
      </contour>
    </TTGlyph>
    <TTGlyph name="q" xMin="63" yMin="-201" xMax="393" yMax="508">
      <contour>
        <pt x="313" y="-201" on="1"/>
        <pt x="313" y="481" on="1"/>
        <pt x="313" y="497" on="0"/>
        <pt x="324" y="508" on="0"/>
        <pt x="340" y="508" on="1"/>
        <pt x="393" y="508" on="1"/>
        <pt x="393" y="-174" on="1"/>
        <pt x="393" y="-190" on="0"/>
        <pt x="382" y="-201" on="0"/>
        <pt x="366" y="-201" on="1"/>
      </contour>
      <contour>
        <pt x="158" y="0" on="1"/>
        <pt x="106" y="0" on="0"/>
        <pt x="63" y="43" on="0"/>
        <pt x="63" y="95" on="1"/>
        <pt x="63" y="413" on="1"/>
        <pt x="63" y="465" on="0"/>
        <pt x="106" y="508" on="0"/>
        <pt x="158" y="508" on="1"/>
        <pt x="253" y="508" on="1"/>
        <pt x="282" y="508" on="0"/>
        <pt x="307" y="479" on="0"/>
        <pt x="313" y="450" on="1"/>
        <pt x="190" y="450" on="1"/>
        <pt x="159" y="450" on="0"/>
        <pt x="143" y="424" on="0"/>
        <pt x="143" y="393" on="1"/>
        <pt x="143" y="115" on="1"/>
        <pt x="143" y="84" on="0"/>
        <pt x="159" y="58" on="0"/>
        <pt x="190" y="58" on="1"/>
        <pt x="273" y="58" on="1"/>
        <pt x="273" y="27" on="1"/>
        <pt x="273" y="11" on="0"/>
        <pt x="264" y="0" on="0"/>
        <pt x="248" y="0" on="1"/>
      </contour>
    </TTGlyph>
    <TTGlyph name="question" xMin="49" yMin="0" xMax="325" yMax="700">
      <contour>
        <pt x="184" y="0" on="1"/>
        <pt x="123" y="0" on="1"/>
        <pt x="107" y="0" on="0"/>
        <pt x="96" y="11" on="0"/>
        <pt x="96" y="27" on="1"/>
        <pt x="96" y="80" on="1"/>
        <pt x="157" y="80" on="1"/>
        <pt x="173" y="80" on="0"/>
        <pt x="184" y="69" on="0"/>
        <pt x="184" y="53" on="1"/>
      </contour>
      <contour>
        <pt x="96" y="315" on="1"/>
        <pt x="96" y="367" on="0"/>
        <pt x="139" y="410" on="0"/>
        <pt x="191" y="410" on="1"/>
        <pt x="198" y="410" on="1"/>
        <pt x="229" y="410" on="0"/>
        <pt x="245" y="436" on="0"/>
        <pt x="245" y="467" on="1"/>
        <pt x="245" y="585" on="1"/>
        <pt x="245" y="616" on="0"/>
        <pt x="229" y="642" on="0"/>
        <pt x="198" y="642" on="1"/>
        <pt x="49" y="642" on="1"/>
        <pt x="55" y="671" on="0"/>
        <pt x="80" y="700" on="0"/>
        <pt x="109" y="700" on="1"/>
        <pt x="230" y="700" on="1"/>
        <pt x="282" y="700" on="0"/>
        <pt x="325" y="657" on="0"/>
        <pt x="325" y="605" on="1"/>
        <pt x="325" y="447" on="1"/>
        <pt x="325" y="395" on="0"/>
        <pt x="282" y="352" on="0"/>
        <pt x="230" y="352" on="1"/>
        <pt x="223" y="352" on="1"/>
        <pt x="192" y="352" on="0"/>
        <pt x="176" y="326" on="0"/>
        <pt x="176" y="295" on="1"/>
        <pt x="176" y="183" on="1"/>
        <pt x="176" y="167" on="0"/>
        <pt x="165" y="156" on="0"/>
        <pt x="149" y="156" on="1"/>
        <pt x="96" y="156" on="1"/>
      </contour>
    </TTGlyph>
    <TTGlyph name="questiondown" xMin="53" yMin="-249" xMax="329" yMax="451">
      <component glyphName="question" x="378" y="451" scale="-0.999877929688" flags="0x4"/>
    </TTGlyph>
    <TTGlyph name="quotedbl" xMin="61" yMin="540" xMax="259" yMax="700">
      <component glyphName="quotesingle" x="0" y="0" flags="0x4"/>
      <component glyphName="quotesingle" x="130" y="0" flags="0x4"/>
    </TTGlyph>
    <TTGlyph name="quotedblbase" xMin="65" yMin="-86" xMax="293" yMax="80">
      <contour>
        <pt x="95" y="0" on="1"/>
        <pt x="92" y="0" on="1"/>
        <pt x="76" y="0" on="0"/>
        <pt x="65" y="11" on="0"/>
        <pt x="65" y="27" on="1"/>
        <pt x="65" y="80" on="1"/>
        <pt x="126" y="80" on="1"/>
        <pt x="142" y="80" on="0"/>
        <pt x="153" y="69" on="0"/>
        <pt x="153" y="53" on="1"/>
        <pt x="153" y="-22" on="1"/>
        <pt x="153" y="-54" on="0"/>
        <pt x="124" y="-80" on="0"/>
        <pt x="95" y="-86" on="1"/>
      </contour>
      <contour>
        <pt x="235" y="0" on="1"/>
        <pt x="232" y="0" on="1"/>
        <pt x="216" y="0" on="0"/>
        <pt x="205" y="11" on="0"/>
        <pt x="205" y="27" on="1"/>
        <pt x="205" y="80" on="1"/>
        <pt x="266" y="80" on="1"/>
        <pt x="282" y="80" on="0"/>
        <pt x="293" y="69" on="0"/>
        <pt x="293" y="53" on="1"/>
        <pt x="293" y="-22" on="1"/>
        <pt x="293" y="-54" on="0"/>
        <pt x="264" y="-80" on="0"/>
        <pt x="235" y="-86" on="1"/>
      </contour>
    </TTGlyph>
    <TTGlyph name="quotedblleft" xMin="58" yMin="620" xMax="286" yMax="786">
      <component glyphName="quoteleft" x="0" y="0" flags="0x4"/>
      <component glyphName="quoteleft" x="140" y="0" flags="0x4"/>
    </TTGlyph>
    <TTGlyph name="quotedblright" xMin="52" yMin="534" xMax="280" yMax="700">
      <component glyphName="quoteright" x="0" y="0" flags="0x4"/>
      <component glyphName="quoteright" x="140" y="0" flags="0x4"/>
    </TTGlyph>
    <TTGlyph name="quoteleft" xMin="58" yMin="620" xMax="146" yMax="786">
      <contour>
        <pt x="116" y="700" on="1"/>
        <pt x="119" y="700" on="1"/>
        <pt x="135" y="700" on="0"/>
        <pt x="146" y="689" on="0"/>
        <pt x="146" y="673" on="1"/>
        <pt x="146" y="620" on="1"/>
        <pt x="85" y="620" on="1"/>
        <pt x="69" y="620" on="0"/>
        <pt x="58" y="631" on="0"/>
        <pt x="58" y="647" on="1"/>
        <pt x="58" y="722" on="1"/>
        <pt x="58" y="754" on="0"/>
        <pt x="87" y="780" on="0"/>
        <pt x="116" y="786" on="1"/>
      </contour>
    </TTGlyph>
    <TTGlyph name="quoteright" xMin="52" yMin="534" xMax="140" yMax="700">
      <contour>
        <pt x="82" y="620" on="1"/>
        <pt x="79" y="620" on="1"/>
        <pt x="63" y="620" on="0"/>
        <pt x="52" y="631" on="0"/>
        <pt x="52" y="647" on="1"/>
        <pt x="52" y="700" on="1"/>
        <pt x="113" y="700" on="1"/>
        <pt x="129" y="700" on="0"/>
        <pt x="140" y="689" on="0"/>
        <pt x="140" y="673" on="1"/>
        <pt x="140" y="598" on="1"/>
        <pt x="140" y="566" on="0"/>
        <pt x="111" y="540" on="0"/>
        <pt x="82" y="534" on="1"/>
      </contour>
    </TTGlyph>
    <TTGlyph name="quotesinglbase" xMin="65" yMin="-86" xMax="153" yMax="80">
      <contour>
        <pt x="95" y="0" on="1"/>
        <pt x="92" y="0" on="1"/>
        <pt x="76" y="0" on="0"/>
        <pt x="65" y="11" on="0"/>
        <pt x="65" y="27" on="1"/>
        <pt x="65" y="80" on="1"/>
        <pt x="126" y="80" on="1"/>
        <pt x="142" y="80" on="0"/>
        <pt x="153" y="69" on="0"/>
        <pt x="153" y="53" on="1"/>
        <pt x="153" y="-22" on="1"/>
        <pt x="153" y="-54" on="0"/>
        <pt x="124" y="-80" on="0"/>
        <pt x="95" y="-86" on="1"/>
      </contour>
    </TTGlyph>
    <TTGlyph name="quotesingle" xMin="61" yMin="540" xMax="129" yMax="700">
      <contour>
        <pt x="129" y="540" on="1"/>
        <pt x="88" y="540" on="1"/>
        <pt x="72" y="540" on="0"/>
        <pt x="61" y="551" on="0"/>
        <pt x="61" y="567" on="1"/>
        <pt x="61" y="700" on="1"/>
        <pt x="102" y="700" on="1"/>
        <pt x="118" y="700" on="0"/>
        <pt x="129" y="689" on="0"/>
        <pt x="129" y="673" on="1"/>
      </contour>
    </TTGlyph>
    <TTGlyph name="r" xMin="65" yMin="0" xMax="279" yMax="508">
      <contour>
        <pt x="145" y="450" on="1"/>
        <pt x="145" y="27" on="1"/>
        <pt x="145" y="11" on="0"/>
        <pt x="134" y="0" on="0"/>
        <pt x="118" y="0" on="1"/>
        <pt x="65" y="0" on="1"/>
        <pt x="65" y="481" on="1"/>
        <pt x="65" y="497" on="0"/>
        <pt x="76" y="508" on="0"/>
        <pt x="92" y="508" on="1"/>
        <pt x="145" y="508" on="1"/>
        <pt x="145" y="450" on="1"/>
        <pt x="158" y="484" on="0"/>
        <pt x="186" y="508" on="0"/>
        <pt x="215" y="508" on="1"/>
        <pt x="254" y="508" on="1"/>
        <pt x="270" y="508" on="0"/>
        <pt x="279" y="497" on="0"/>
        <pt x="279" y="481" on="1"/>
        <pt x="279" y="450" on="1"/>
      </contour>
    </TTGlyph>
    <TTGlyph name="registered" xMin="70" yMin="0" xMax="604" yMax="700">
      <contour>
        <pt x="150" y="115" on="1"/>
        <pt x="150" y="84" on="0"/>
        <pt x="166" y="58" on="0"/>
        <pt x="197" y="58" on="1"/>
        <pt x="477" y="58" on="1"/>
        <pt x="508" y="58" on="0"/>
        <pt x="524" y="84" on="0"/>
        <pt x="524" y="115" on="1"/>
        <pt x="524" y="585" on="1"/>
        <pt x="524" y="616" on="0"/>
        <pt x="508" y="642" on="0"/>
        <pt x="477" y="642" on="1"/>
        <pt x="197" y="642" on="1"/>
        <pt x="166" y="642" on="0"/>
        <pt x="150" y="616" on="0"/>
        <pt x="150" y="585" on="1"/>
      </contour>
      <contour>
        <pt x="70" y="605" on="1"/>
        <pt x="70" y="657" on="0"/>
        <pt x="113" y="700" on="0"/>
        <pt x="165" y="700" on="1"/>
        <pt x="509" y="700" on="1"/>
        <pt x="561" y="700" on="0"/>
        <pt x="604" y="657" on="0"/>
        <pt x="604" y="605" on="1"/>
        <pt x="604" y="95" on="1"/>
        <pt x="604" y="43" on="0"/>
        <pt x="561" y="0" on="0"/>
        <pt x="509" y="0" on="1"/>
        <pt x="165" y="0" on="1"/>
        <pt x="113" y="0" on="0"/>
        <pt x="70" y="43" on="0"/>
        <pt x="70" y="95" on="1"/>
      </contour>
      <contour>
        <pt x="372" y="585" on="1"/>
        <pt x="424" y="585" on="0"/>
        <pt x="467" y="542" on="0"/>
        <pt x="467" y="490" on="1"/>
        <pt x="467" y="424" on="1"/>
        <pt x="467" y="382" on="0"/>
        <pt x="439" y="338" on="0"/>
        <pt x="407" y="332" on="1"/>
        <pt x="472" y="118" on="1"/>
        <pt x="431" y="118" on="1"/>
        <pt x="415" y="118" on="0"/>
        <pt x="400" y="129" on="0"/>
        <pt x="395" y="145" on="1"/>
        <pt x="339" y="329" on="1"/>
        <pt x="275" y="329" on="1"/>
        <pt x="275" y="145" on="1"/>
        <pt x="275" y="129" on="0"/>
        <pt x="264" y="118" on="0"/>
        <pt x="248" y="118" on="1"/>
        <pt x="205" y="118" on="1"/>
        <pt x="205" y="558" on="1"/>
        <pt x="205" y="574" on="0"/>
        <pt x="216" y="585" on="0"/>
        <pt x="232" y="585" on="1"/>
      </contour>
      <contour>
        <pt x="397" y="470" on="1"/>
        <pt x="397" y="501" on="0"/>
        <pt x="381" y="527" on="0"/>
        <pt x="350" y="527" on="1"/>
        <pt x="275" y="527" on="1"/>
        <pt x="275" y="377" on="1"/>
        <pt x="350" y="377" on="1"/>
        <pt x="381" y="377" on="0"/>
        <pt x="397" y="403" on="0"/>
        <pt x="397" y="434" on="1"/>
      </contour>
    </TTGlyph>
    <TTGlyph name="ring" xMin="60" yMin="565" xMax="229" yMax="728">
      <contour>
        <pt x="129" y="565" on="1"/>
        <pt x="91" y="565" on="0"/>
        <pt x="60" y="590" on="0"/>
        <pt x="60" y="627" on="1"/>
        <pt x="60" y="666" on="1"/>
        <pt x="60" y="703" on="0"/>
        <pt x="91" y="728" on="0"/>
        <pt x="129" y="728" on="1"/>
        <pt x="160" y="728" on="1"/>
        <pt x="198" y="728" on="0"/>
        <pt x="229" y="703" on="0"/>
        <pt x="229" y="666" on="1"/>
        <pt x="229" y="627" on="1"/>
        <pt x="229" y="590" on="0"/>
        <pt x="198" y="565" on="0"/>
        <pt x="160" y="565" on="1"/>
      </contour>
      <contour>
        <pt x="108" y="642" on="1"/>
        <pt x="108" y="627" on="0"/>
        <pt x="110" y="611" on="0"/>
        <pt x="118" y="603" on="0"/>
        <pt x="133" y="601" on="0"/>
        <pt x="145" y="601" on="1"/>
        <pt x="169" y="601" on="0"/>
        <pt x="181" y="613" on="0"/>
        <pt x="181" y="642" on="1"/>
        <pt x="181" y="651" on="1"/>
        <pt x="181" y="666" on="0"/>
        <pt x="179" y="682" on="0"/>
        <pt x="171" y="690" on="0"/>
        <pt x="156" y="692" on="0"/>
        <pt x="144" y="692" on="1"/>
        <pt x="120" y="692" on="0"/>
        <pt x="108" y="680" on="0"/>
        <pt x="108" y="651" on="1"/>
      </contour>
    </TTGlyph>
    <TTGlyph name="s" xMin="57" yMin="0" xMax="321" yMax="508">
      <contour>
        <pt x="142" y="225" on="1"/>
        <pt x="116" y="225" on="0"/>
        <pt x="83" y="233" on="0"/>
        <pt x="64" y="254" on="0"/>
        <pt x="57" y="288" on="0"/>
        <pt x="57" y="314" on="1"/>
        <pt x="57" y="413" on="1"/>
        <pt x="57" y="465" on="0"/>
        <pt x="100" y="508" on="0"/>
        <pt x="152" y="508" on="1"/>
        <pt x="286" y="508" on="1"/>
        <pt x="302" y="508" on="0"/>
        <pt x="311" y="497" on="0"/>
        <pt x="311" y="481" on="1"/>
        <pt x="311" y="450" on="1"/>
        <pt x="179" y="450" on="1"/>
        <pt x="148" y="450" on="0"/>
        <pt x="132" y="424" on="0"/>
        <pt x="132" y="393" on="1"/>
        <pt x="132" y="340" on="1"/>
        <pt x="132" y="322" on="0"/>
        <pt x="135" y="299" on="0"/>
        <pt x="145" y="287" on="0"/>
        <pt x="164" y="283" on="0"/>
        <pt x="179" y="283" on="1"/>
        <pt x="236" y="283" on="1"/>
        <pt x="262" y="283" on="0"/>
        <pt x="295" y="275" on="0"/>
        <pt x="314" y="254" on="0"/>
        <pt x="321" y="220" on="0"/>
        <pt x="321" y="194" on="1"/>
        <pt x="321" y="95" on="1"/>
        <pt x="321" y="43" on="0"/>
        <pt x="278" y="0" on="0"/>
        <pt x="226" y="0" on="1"/>
        <pt x="82" y="0" on="1"/>
        <pt x="66" y="0" on="0"/>
        <pt x="57" y="11" on="0"/>
        <pt x="57" y="27" on="1"/>
        <pt x="57" y="58" on="1"/>
        <pt x="199" y="58" on="1"/>
        <pt x="230" y="58" on="0"/>
        <pt x="246" y="84" on="0"/>
        <pt x="246" y="115" on="1"/>
        <pt x="246" y="168" on="1"/>
        <pt x="246" y="199" on="0"/>
        <pt x="230" y="225" on="0"/>
        <pt x="199" y="225" on="1"/>
      </contour>
    </TTGlyph>
    <TTGlyph name="section" xMin="60" yMin="1" xMax="358" yMax="700">
      <contour>
        <pt x="358" y="337" on="1"/>
        <pt x="358" y="297" on="0"/>
        <pt x="317" y="263" on="0"/>
        <pt x="278" y="255" on="1"/>
        <pt x="278" y="389" on="1"/>
        <pt x="278" y="420" on="0"/>
        <pt x="262" y="446" on="0"/>
        <pt x="231" y="446" on="1"/>
        <pt x="155" y="446" on="1"/>
        <pt x="103" y="446" on="0"/>
        <pt x="60" y="489" on="0"/>
        <pt x="60" y="541" on="1"/>
        <pt x="60" y="605" on="1"/>
        <pt x="60" y="657" on="0"/>
        <pt x="103" y="700" on="0"/>
        <pt x="155" y="700" on="1"/>
        <pt x="268" y="700" on="1"/>
        <pt x="297" y="700" on="0"/>
        <pt x="322" y="671" on="0"/>
        <pt x="328" y="642" on="1"/>
        <pt x="187" y="642" on="1"/>
        <pt x="156" y="642" on="0"/>
        <pt x="140" y="616" on="0"/>
        <pt x="140" y="585" on="1"/>
        <pt x="140" y="561" on="1"/>
        <pt x="140" y="530" on="0"/>
        <pt x="156" y="504" on="0"/>
        <pt x="187" y="504" on="1"/>
        <pt x="263" y="504" on="1"/>
        <pt x="315" y="504" on="0"/>
        <pt x="358" y="461" on="0"/>
        <pt x="358" y="409" on="1"/>
      </contour>
      <contour>
        <pt x="60" y="364" on="1"/>
        <pt x="60" y="404" on="0"/>
        <pt x="101" y="438" on="0"/>
        <pt x="140" y="446" on="1"/>
        <pt x="140" y="312" on="1"/>
        <pt x="140" y="281" on="0"/>
        <pt x="156" y="255" on="0"/>
        <pt x="187" y="255" on="1"/>
        <pt x="263" y="255" on="1"/>
        <pt x="315" y="255" on="0"/>
        <pt x="358" y="212" on="0"/>
        <pt x="358" y="160" on="1"/>
        <pt x="358" y="96" on="1"/>
        <pt x="358" y="44" on="0"/>
        <pt x="315" y="1" on="0"/>
        <pt x="263" y="1" on="1"/>
        <pt x="150" y="1" on="1"/>
        <pt x="121" y="1" on="0"/>
        <pt x="96" y="30" on="0"/>
        <pt x="90" y="59" on="1"/>
        <pt x="231" y="59" on="1"/>
        <pt x="262" y="59" on="0"/>
        <pt x="278" y="85" on="0"/>
        <pt x="278" y="116" on="1"/>
        <pt x="278" y="140" on="1"/>
        <pt x="278" y="171" on="0"/>
        <pt x="262" y="197" on="0"/>
        <pt x="231" y="197" on="1"/>
        <pt x="155" y="197" on="1"/>
        <pt x="103" y="197" on="0"/>
        <pt x="60" y="240" on="0"/>
        <pt x="60" y="292" on="1"/>
      </contour>
    </TTGlyph>
    <TTGlyph name="semicolon" xMin="65" yMin="-136" xMax="153" yMax="450">
      <component glyphName="comma" x="0" y="0" flags="0x4"/>
      <component glyphName="period" x="0" y="370" flags="0x4"/>
    </TTGlyph>
    <TTGlyph name="seven" xMin="33" yMin="0" xMax="326" yMax="700">
      <contour>
        <pt x="302" y="700" on="1"/>
        <pt x="317" y="700" on="0"/>
        <pt x="325" y="689" on="0"/>
        <pt x="326" y="673" on="1"/>
        <pt x="326" y="642" on="1"/>
        <pt x="154" y="0" on="1"/>
        <pt x="78" y="0" on="1"/>
        <pt x="249" y="642" on="1"/>
        <pt x="33" y="642" on="1"/>
        <pt x="33" y="673" on="1"/>
        <pt x="33" y="689" on="0"/>
        <pt x="44" y="700" on="0"/>
        <pt x="60" y="700" on="1"/>
      </contour>
    </TTGlyph>
    <TTGlyph name="six" xMin="70" yMin="0" xMax="379" yMax="700">
      <contour>
        <pt x="284" y="392" on="1"/>
        <pt x="336" y="392" on="0"/>
        <pt x="379" y="349" on="0"/>
        <pt x="379" y="297" on="1"/>
        <pt x="379" y="95" on="1"/>
        <pt x="379" y="43" on="0"/>
        <pt x="336" y="0" on="0"/>
        <pt x="284" y="0" on="1"/>
        <pt x="165" y="0" on="1"/>
        <pt x="113" y="0" on="0"/>
        <pt x="70" y="43" on="0"/>
        <pt x="70" y="95" on="1"/>
        <pt x="70" y="605" on="1"/>
        <pt x="70" y="657" on="0"/>
        <pt x="113" y="700" on="0"/>
        <pt x="165" y="700" on="1"/>
        <pt x="304" y="700" on="1"/>
        <pt x="333" y="700" on="0"/>
        <pt x="358" y="671" on="0"/>
        <pt x="364" y="642" on="1"/>
        <pt x="197" y="642" on="1"/>
        <pt x="166" y="642" on="0"/>
        <pt x="150" y="616" on="0"/>
        <pt x="150" y="585" on="1"/>
        <pt x="150" y="115" on="1"/>
        <pt x="150" y="84" on="0"/>
        <pt x="166" y="58" on="0"/>
        <pt x="197" y="58" on="1"/>
        <pt x="252" y="58" on="1"/>
        <pt x="283" y="58" on="0"/>
        <pt x="299" y="84" on="0"/>
        <pt x="299" y="115" on="1"/>
        <pt x="299" y="277" on="1"/>
        <pt x="299" y="308" on="0"/>
        <pt x="283" y="334" on="0"/>
        <pt x="252" y="334" on="1"/>
        <pt x="190" y="334" on="1"/>
        <pt x="190" y="365" on="1"/>
        <pt x="190" y="381" on="0"/>
        <pt x="199" y="392" on="0"/>
        <pt x="215" y="392" on="1"/>
      </contour>
    </TTGlyph>
    <TTGlyph name="slash" xMin="41" yMin="-121" xMax="351" yMax="760">
      <contour>
        <pt x="351" y="760" on="1"/>
        <pt x="124" y="-94" on="1"/>
        <pt x="119" y="-110" on="0"/>
        <pt x="106" y="-121" on="0"/>
        <pt x="90" y="-121" on="1"/>
        <pt x="41" y="-121" on="1"/>
        <pt x="268" y="733" on="1"/>
        <pt x="273" y="749" on="0"/>
        <pt x="286" y="760" on="0"/>
        <pt x="302" y="760" on="1"/>
      </contour>
    </TTGlyph>
    <TTGlyph name="sterling" xMin="44" yMin="0" xMax="391" yMax="700">
      <contour>
        <pt x="217" y="58" on="1"/>
        <pt x="308" y="58" on="1"/>
        <pt x="340" y="58" on="0"/>
        <pt x="366" y="29" on="0"/>
        <pt x="372" y="0" on="1"/>
        <pt x="108" y="0" on="1"/>
        <pt x="76" y="0" on="0"/>
        <pt x="50" y="29" on="0"/>
        <pt x="44" y="58" on="1"/>
        <pt x="137" y="58" on="1"/>
        <pt x="137" y="605" on="1"/>
        <pt x="137" y="657" on="0"/>
        <pt x="180" y="700" on="0"/>
        <pt x="232" y="700" on="1"/>
        <pt x="327" y="700" on="1"/>
        <pt x="359" y="700" on="0"/>
        <pt x="385" y="671" on="0"/>
        <pt x="391" y="642" on="1"/>
        <pt x="264" y="642" on="1"/>
        <pt x="249" y="642" on="0"/>
        <pt x="230" y="638" on="0"/>
        <pt x="220" y="626" on="0"/>
        <pt x="217" y="604" on="0"/>
        <pt x="217" y="585" on="1"/>
        <pt x="217" y="450" on="1"/>
        <pt x="325" y="450" on="1"/>
        <pt x="341" y="450" on="0"/>
        <pt x="350" y="439" on="0"/>
        <pt x="350" y="423" on="1"/>
        <pt x="350" y="392" on="1"/>
        <pt x="217" y="392" on="1"/>
      </contour>
    </TTGlyph>
    <TTGlyph name="t" xMin="66" yMin="0" xMax="280" yMax="624">
      <contour>
        <pt x="244" y="508" on="1"/>
        <pt x="260" y="508" on="0"/>
        <pt x="269" y="497" on="0"/>
        <pt x="269" y="481" on="1"/>
        <pt x="269" y="450" on="1"/>
        <pt x="146" y="450" on="1"/>
        <pt x="146" y="115" on="1"/>
        <pt x="146" y="84" on="0"/>
        <pt x="162" y="58" on="0"/>
        <pt x="193" y="58" on="1"/>
        <pt x="280" y="58" on="1"/>
        <pt x="278" y="29" on="0"/>
        <pt x="259" y="0" on="0"/>
        <pt x="230" y="0" on="1"/>
        <pt x="161" y="0" on="1"/>
        <pt x="109" y="0" on="0"/>
        <pt x="66" y="43" on="0"/>
        <pt x="66" y="95" on="1"/>
        <pt x="66" y="597" on="1"/>
        <pt x="66" y="613" on="0"/>
        <pt x="77" y="624" on="0"/>
        <pt x="93" y="624" on="1"/>
        <pt x="146" y="624" on="1"/>
        <pt x="146" y="508" on="1"/>
      </contour>
    </TTGlyph>
    <TTGlyph name="thorn" xMin="66" yMin="-201" xMax="396" yMax="700">
      <contour>
        <pt x="211" y="0" on="1"/>
        <pt x="195" y="0" on="0"/>
        <pt x="186" y="11" on="0"/>
        <pt x="186" y="27" on="1"/>
        <pt x="186" y="58" on="1"/>
        <pt x="269" y="58" on="1"/>
        <pt x="300" y="58" on="0"/>
        <pt x="316" y="84" on="0"/>
        <pt x="316" y="115" on="1"/>
        <pt x="316" y="393" on="1"/>
        <pt x="316" y="424" on="0"/>
        <pt x="300" y="450" on="0"/>
        <pt x="269" y="450" on="1"/>
        <pt x="146" y="450" on="1"/>
        <pt x="146" y="-174" on="1"/>
        <pt x="146" y="-190" on="0"/>
        <pt x="135" y="-201" on="0"/>
        <pt x="119" y="-201" on="1"/>
        <pt x="66" y="-201" on="1"/>
        <pt x="66" y="673" on="1"/>
        <pt x="66" y="689" on="0"/>
        <pt x="77" y="700" on="0"/>
        <pt x="93" y="700" on="1"/>
        <pt x="146" y="700" on="1"/>
        <pt x="146" y="450" on="1"/>
        <pt x="152" y="479" on="0"/>
        <pt x="177" y="508" on="0"/>
        <pt x="206" y="508" on="1"/>
        <pt x="301" y="508" on="1"/>
        <pt x="353" y="508" on="0"/>
        <pt x="396" y="465" on="0"/>
        <pt x="396" y="413" on="1"/>
        <pt x="396" y="95" on="1"/>
        <pt x="396" y="43" on="0"/>
        <pt x="353" y="0" on="0"/>
        <pt x="301" y="0" on="1"/>
      </contour>
    </TTGlyph>
    <TTGlyph name="three" xMin="44" yMin="0" xMax="326" yMax="700">
      <contour>
        <pt x="238" y="585" on="1"/>
        <pt x="238" y="616" on="0"/>
        <pt x="222" y="642" on="0"/>
        <pt x="191" y="642" on="1"/>
        <pt x="44" y="642" on="1"/>
        <pt x="50" y="671" on="0"/>
        <pt x="75" y="700" on="0"/>
        <pt x="104" y="700" on="1"/>
        <pt x="223" y="700" on="1"/>
        <pt x="275" y="700" on="0"/>
        <pt x="318" y="657" on="0"/>
        <pt x="318" y="605" on="1"/>
        <pt x="318" y="459" on="1"/>
        <pt x="318" y="418" on="0"/>
        <pt x="300" y="376" on="0"/>
        <pt x="271" y="369" on="1"/>
        <pt x="271" y="368" on="1"/>
        <pt x="326" y="354" on="0"/>
        <pt x="326" y="277" on="1"/>
        <pt x="326" y="95" on="1"/>
        <pt x="326" y="43" on="0"/>
        <pt x="283" y="0" on="0"/>
        <pt x="231" y="0" on="1"/>
        <pt x="112" y="0" on="1"/>
        <pt x="83" y="0" on="0"/>
        <pt x="58" y="29" on="0"/>
        <pt x="52" y="58" on="1"/>
        <pt x="199" y="58" on="1"/>
        <pt x="230" y="58" on="0"/>
        <pt x="246" y="84" on="0"/>
        <pt x="246" y="115" on="1"/>
        <pt x="246" y="277" on="1"/>
        <pt x="246" y="308" on="0"/>
        <pt x="220" y="334" on="0"/>
        <pt x="189" y="334" on="1"/>
        <pt x="105" y="334" on="1"/>
        <pt x="105" y="365" on="1"/>
        <pt x="105" y="381" on="0"/>
        <pt x="116" y="392" on="0"/>
        <pt x="132" y="392" on="1"/>
        <pt x="195" y="392" on="1"/>
        <pt x="222" y="393" on="0"/>
        <pt x="238" y="420" on="0"/>
        <pt x="238" y="449" on="1"/>
      </contour>
    </TTGlyph>
    <TTGlyph name="threequarters" xMin="54" yMin="0" xMax="764" yMax="714">
      <component glyphName="fraction" x="195" y="0" flags="0x4"/>
      <component glyphName="threesuperior" x="1" y="0" flags="0x4"/>
      <component glyphName="foursuperior" x="449" y="-300" flags="0x4"/>
    </TTGlyph>
    <TTGlyph name="threesuperior" xMin="53" yMin="300" xMax="287" yMax="700">
      <contour>
        <pt x="167" y="553" on="1"/>
        <pt x="186" y="554" on="0"/>
        <pt x="207" y="570" on="0"/>
        <pt x="209" y="599" on="1"/>
        <pt x="207" y="623" on="0"/>
        <pt x="191" y="642" on="0"/>
        <pt x="160" y="642" on="1"/>
        <pt x="53" y="642" on="1"/>
        <pt x="59" y="671" on="0"/>
        <pt x="84" y="700" on="0"/>
        <pt x="113" y="700" on="1"/>
        <pt x="192" y="700" on="1"/>
        <pt x="244" y="700" on="0"/>
        <pt x="287" y="656" on="0"/>
        <pt x="287" y="610" on="1"/>
        <pt x="287" y="571" on="0"/>
        <pt x="261" y="536" on="0"/>
        <pt x="232" y="530" on="1"/>
        <pt x="232" y="528" on="1"/>
        <pt x="260" y="520" on="0"/>
        <pt x="287" y="477" on="0"/>
        <pt x="287" y="438" on="1"/>
        <pt x="287" y="397" on="0"/>
        <pt x="277" y="344" on="0"/>
        <pt x="254" y="312" on="0"/>
        <pt x="218" y="300" on="0"/>
        <pt x="192" y="300" on="1"/>
        <pt x="113" y="300" on="1"/>
        <pt x="84" y="300" on="0"/>
        <pt x="59" y="329" on="0"/>
        <pt x="53" y="358" on="1"/>
        <pt x="160" y="358" on="1"/>
        <pt x="191" y="358" on="0"/>
        <pt x="207" y="392" on="0"/>
        <pt x="207" y="420" on="1"/>
        <pt x="207" y="469" on="0"/>
        <pt x="185" y="495" on="0"/>
        <pt x="150" y="495" on="1"/>
        <pt x="103" y="495" on="1"/>
        <pt x="103" y="526" on="1"/>
        <pt x="103" y="542" on="0"/>
        <pt x="114" y="553" on="0"/>
        <pt x="130" y="553" on="1"/>
      </contour>
    </TTGlyph>
    <TTGlyph name="tilde" xMin="66" yMin="582" xMax="326" yMax="703">
      <contour>
        <pt x="110" y="604" on="1"/>
        <pt x="110" y="590" on="0"/>
        <pt x="97" y="584" on="0"/>
        <pt x="86" y="584" on="1"/>
        <pt x="66" y="584" on="1"/>
        <pt x="66" y="600" on="1"/>
        <pt x="66" y="631" on="0"/>
        <pt x="75" y="670" on="0"/>
        <pt x="93" y="693" on="0"/>
        <pt x="119" y="703" on="0"/>
        <pt x="137" y="703" on="1"/>
        <pt x="158" y="703" on="0"/>
        <pt x="189" y="683" on="0"/>
        <pt x="214" y="659" on="0"/>
        <pt x="239" y="639" on="0"/>
        <pt x="254" y="639" on="1"/>
        <pt x="264" y="639" on="0"/>
        <pt x="282" y="644" on="0"/>
        <pt x="282" y="655" on="1"/>
        <pt x="282" y="680" on="1"/>
        <pt x="282" y="694" on="0"/>
        <pt x="295" y="700" on="0"/>
        <pt x="306" y="700" on="1"/>
        <pt x="326" y="700" on="1"/>
        <pt x="326" y="684" on="1"/>
        <pt x="326" y="653" on="0"/>
        <pt x="317" y="614" on="0"/>
        <pt x="299" y="591" on="0"/>
        <pt x="272" y="582" on="0"/>
        <pt x="254" y="582" on="1"/>
        <pt x="233" y="582" on="0"/>
        <pt x="203" y="602" on="0"/>
        <pt x="177" y="625" on="0"/>
        <pt x="153" y="645" on="0"/>
        <pt x="138" y="645" on="1"/>
        <pt x="110" y="645" on="0"/>
        <pt x="110" y="629" on="1"/>
      </contour>
    </TTGlyph>
    <TTGlyph name="two" xMin="60" yMin="0" xMax="340" yMax="700">
      <contour>
        <pt x="340" y="429" on="1"/>
        <pt x="340" y="400" on="0"/>
        <pt x="331" y="363" on="0"/>
        <pt x="309" y="342" on="0"/>
        <pt x="273" y="334" on="0"/>
        <pt x="245" y="334" on="1"/>
        <pt x="187" y="334" on="1"/>
        <pt x="172" y="334" on="0"/>
        <pt x="153" y="329" on="0"/>
        <pt x="143" y="317" on="0"/>
        <pt x="140" y="295" on="0"/>
        <pt x="140" y="277" on="1"/>
        <pt x="140" y="115" on="1"/>
        <pt x="140" y="84" on="0"/>
        <pt x="156" y="58" on="0"/>
        <pt x="187" y="58" on="1"/>
        <pt x="340" y="58" on="1"/>
        <pt x="340" y="27" on="1"/>
        <pt x="340" y="11" on="0"/>
        <pt x="329" y="0" on="0"/>
        <pt x="313" y="0" on="1"/>
        <pt x="155" y="0" on="1"/>
        <pt x="103" y="0" on="0"/>
        <pt x="60" y="43" on="0"/>
        <pt x="60" y="95" on="1"/>
        <pt x="60" y="297" on="1"/>
        <pt x="60" y="326" on="0"/>
        <pt x="69" y="363" on="0"/>
        <pt x="91" y="384" on="0"/>
        <pt x="127" y="392" on="0"/>
        <pt x="155" y="392" on="1"/>
        <pt x="213" y="392" on="1"/>
        <pt x="228" y="392" on="0"/>
        <pt x="247" y="397" on="0"/>
        <pt x="257" y="409" on="0"/>
        <pt x="260" y="431" on="0"/>
        <pt x="260" y="449" on="1"/>
        <pt x="260" y="585" on="1"/>
        <pt x="260" y="616" on="0"/>
        <pt x="244" y="642" on="0"/>
        <pt x="213" y="642" on="1"/>
        <pt x="66" y="642" on="1"/>
        <pt x="72" y="671" on="0"/>
        <pt x="97" y="700" on="0"/>
        <pt x="126" y="700" on="1"/>
        <pt x="245" y="700" on="1"/>
        <pt x="297" y="700" on="0"/>
        <pt x="340" y="657" on="0"/>
        <pt x="340" y="605" on="1"/>
      </contour>
    </TTGlyph>
    <TTGlyph name="twosuperior" xMin="56" yMin="300" xMax="290" yMax="700">
      <contour>
        <pt x="57" y="300" on="1"/>
        <pt x="57" y="358" on="1"/>
        <pt x="108" y="415" on="0"/>
        <pt x="169" y="474" on="0"/>
        <pt x="200" y="508" on="0"/>
        <pt x="210" y="534" on="0"/>
        <pt x="210" y="558" on="1"/>
        <pt x="210" y="585" on="1"/>
        <pt x="210" y="616" on="0"/>
        <pt x="194" y="642" on="0"/>
        <pt x="163" y="642" on="1"/>
        <pt x="56" y="642" on="1"/>
        <pt x="62" y="671" on="0"/>
        <pt x="87" y="700" on="0"/>
        <pt x="116" y="700" on="1"/>
        <pt x="195" y="700" on="1"/>
        <pt x="247" y="700" on="0"/>
        <pt x="290" y="657" on="0"/>
        <pt x="290" y="605" on="1"/>
        <pt x="290" y="548" on="1"/>
        <pt x="290" y="525" on="0"/>
        <pt x="262" y="479" on="0"/>
        <pt x="219" y="431" on="0"/>
        <pt x="168" y="383" on="0"/>
        <pt x="146" y="358" on="1"/>
        <pt x="290" y="358" on="1"/>
        <pt x="290" y="327" on="1"/>
        <pt x="290" y="311" on="0"/>
        <pt x="279" y="300" on="0"/>
        <pt x="263" y="300" on="1"/>
      </contour>
    </TTGlyph>
    <TTGlyph name="u" xMin="64" yMin="0" xMax="394" yMax="508">
      <contour>
        <pt x="314" y="0" on="1"/>
        <pt x="314" y="481" on="1"/>
        <pt x="314" y="497" on="0"/>
        <pt x="325" y="508" on="0"/>
        <pt x="341" y="508" on="1"/>
        <pt x="394" y="508" on="1"/>
        <pt x="394" y="27" on="1"/>
        <pt x="394" y="11" on="0"/>
        <pt x="383" y="0" on="0"/>
        <pt x="367" y="0" on="1"/>
      </contour>
      <contour>
        <pt x="64" y="481" on="1"/>
        <pt x="64" y="497" on="0"/>
        <pt x="75" y="508" on="0"/>
        <pt x="91" y="508" on="1"/>
        <pt x="144" y="508" on="1"/>
        <pt x="144" y="115" on="1"/>
        <pt x="144" y="84" on="0"/>
        <pt x="160" y="58" on="0"/>
        <pt x="191" y="58" on="1"/>
        <pt x="274" y="58" on="1"/>
        <pt x="274" y="27" on="1"/>
        <pt x="274" y="11" on="0"/>
        <pt x="265" y="0" on="0"/>
        <pt x="249" y="0" on="1"/>
        <pt x="159" y="0" on="1"/>
        <pt x="107" y="0" on="0"/>
        <pt x="64" y="43" on="0"/>
        <pt x="64" y="95" on="1"/>
      </contour>
    </TTGlyph>
    <TTGlyph name="uacute" xMin="64" yMin="0" xMax="394" yMax="700">
      <component glyphName="u" x="0" y="0" flags="0x204"/>
      <component glyphName="acute" x="146" y="0" flags="0x4"/>
    </TTGlyph>
    <TTGlyph name="ucircumflex" xMin="64" yMin="0" xMax="394" yMax="700">
      <component glyphName="u" x="0" y="0" flags="0x204"/>
      <component glyphName="circumflex" x="52" y="0" flags="0x4"/>
    </TTGlyph>
    <TTGlyph name="udieresis" xMin="64" yMin="0" xMax="394" yMax="680">
      <component glyphName="u" x="0" y="0" flags="0x204"/>
      <component glyphName="dieresis" x="58" y="0" flags="0x4"/>
    </TTGlyph>
    <TTGlyph name="ugrave" xMin="64" yMin="0" xMax="394" yMax="700">
      <component glyphName="u" x="0" y="0" flags="0x204"/>
      <component glyphName="grave" x="82" y="0" flags="0x4"/>
    </TTGlyph>
    <TTGlyph name="underscore" xMin="0" yMin="-58" xMax="450" yMax="0">
      <contour>
        <pt x="0" y="0" on="1"/>
        <pt x="423" y="0" on="1"/>
        <pt x="439" y="0" on="0"/>
        <pt x="450" y="-11" on="0"/>
        <pt x="450" y="-27" on="1"/>
        <pt x="450" y="-58" on="1"/>
        <pt x="27" y="-58" on="1"/>
        <pt x="11" y="-58" on="0"/>
        <pt x="0" y="-47" on="0"/>
        <pt x="0" y="-31" on="1"/>
      </contour>
    </TTGlyph>
    <TTGlyph name="uni00AD" xMin="66" yMin="334" xMax="366" yMax="392">
      <contour>
        <pt x="66" y="392" on="1"/>
        <pt x="339" y="392" on="1"/>
        <pt x="355" y="392" on="0"/>
        <pt x="366" y="381" on="0"/>
        <pt x="366" y="365" on="1"/>
        <pt x="366" y="334" on="1"/>
        <pt x="93" y="334" on="1"/>
        <pt x="77" y="334" on="0"/>
        <pt x="66" y="345" on="0"/>
        <pt x="66" y="361" on="1"/>
      </contour>
    </TTGlyph>
    <TTGlyph name="v" xMin="30" yMin="0" xMax="395" yMax="508">
      <contour>
        <pt x="261" y="27" on="1"/>
        <pt x="257" y="11" on="0"/>
        <pt x="244" y="0" on="0"/>
        <pt x="228" y="0" on="1"/>
        <pt x="168" y="0" on="1"/>
        <pt x="36" y="481" on="1"/>
        <pt x="30" y="508" on="0"/>
        <pt x="56" y="508" on="1"/>
        <pt x="101" y="508" on="1"/>
        <pt x="189" y="193" on="1"/>
        <pt x="211" y="74" on="1"/>
        <pt x="217" y="74" on="1"/>
        <pt x="238" y="193" on="1"/>
        <pt x="320" y="481" on="1"/>
        <pt x="324" y="497" on="0"/>
        <pt x="338" y="508" on="0"/>
        <pt x="354" y="508" on="1"/>
        <pt x="395" y="508" on="1"/>
      </contour>
    </TTGlyph>
    <TTGlyph name="w" xMin="27" yMin="0" xMax="560" yMax="508">
      <contour>
        <pt x="480" y="25" on="1"/>
        <pt x="478" y="13" on="0"/>
        <pt x="468" y="0" on="0"/>
        <pt x="455" y="0" on="1"/>
        <pt x="381" y="0" on="1"/>
        <pt x="329" y="208" on="1"/>
        <pt x="300" y="336" on="1"/>
        <pt x="294" y="336" on="1"/>
        <pt x="264" y="208" on="1"/>
        <pt x="216" y="26" on="1"/>
        <pt x="211" y="11" on="0"/>
        <pt x="197" y="0" on="0"/>
        <pt x="185" y="0" on="1"/>
        <pt x="115" y="0" on="1"/>
        <pt x="30" y="488" on="1"/>
        <pt x="27" y="508" on="0"/>
        <pt x="45" y="508" on="1"/>
        <pt x="100" y="508" on="1"/>
        <pt x="167" y="68" on="1"/>
        <pt x="174" y="68" on="1"/>
        <pt x="254" y="370" on="1"/>
        <pt x="259" y="387" on="0"/>
        <pt x="276" y="388" on="1"/>
        <pt x="342" y="388" on="1"/>
        <pt x="421" y="68" on="1"/>
        <pt x="425" y="68" on="1"/>
        <pt x="488" y="488" on="1"/>
        <pt x="490" y="500" on="0"/>
        <pt x="501" y="508" on="0"/>
        <pt x="513" y="508" on="1"/>
        <pt x="560" y="508" on="1"/>
      </contour>
    </TTGlyph>
</ttFont>
